<svg viewBox="0 0 1080 1080" fill="none" xmlns="http://www.w3.org/2000/svg">
<g clip-path="url(#clip0_40_4001)">
<g clip-path="url(#clip1_40_4001)">
<path d="M1080 0H0V1080H1080V0Z" fill="#006B32"/>
<path d="M1080 0H0V1080H1080V0Z" fill="url(#paint0_radial_40_4001)"/>
<path d="M540 1323C972.439 1323 1323 972.439 1323 540C1323 107.561 972.439 -243 540 -243C107.561 -243 -243 107.561 -243 540C-243 972.439 107.561 1323 540 1323Z" stroke="#26A642" stroke-opacity="0.5" stroke-width="2.16" stroke-miterlimit="10"/>
<path d="M540 1296C957.527 1296 1296 957.527 1296 540C1296 122.473 957.527 -216 540 -216C122.473 -216 -216 122.473 -216 540C-216 957.527 122.473 1296 540 1296Z" stroke="#26A642" stroke-opacity="0.5" stroke-width="2.16" stroke-miterlimit="10"/>
<path d="M540 1269C942.616 1269 1269 942.616 1269 540C1269 137.384 942.616 -189 540 -189C137.384 -189 -189 137.384 -189 540C-189 942.616 137.384 1269 540 1269Z" stroke="#26A642" stroke-opacity="0.5" stroke-width="2.16" stroke-miterlimit="10"/>
<path d="M540 1242C927.704 1242 1242 927.704 1242 540C1242 152.296 927.704 -162 540 -162C152.296 -162 -162 152.296 -162 540C-162 927.704 152.296 1242 540 1242Z" stroke="#26A642" stroke-opacity="0.5" stroke-width="2.16" stroke-miterlimit="10"/>
<path d="M540 1215C912.792 1215 1215 912.792 1215 540C1215 167.208 912.792 -135 540 -135C167.208 -135 -135 167.208 -135 540C-135 912.792 167.208 1215 540 1215Z" stroke="#26A642" stroke-opacity="0.5" stroke-width="2.16" stroke-miterlimit="10"/>
<path d="M540 1188C897.881 1188 1188 897.881 1188 540C1188 182.12 897.881 -108 540 -108C182.12 -108 -108 182.12 -108 540C-108 897.881 182.12 1188 540 1188Z" stroke="#26A642" stroke-opacity="0.5" stroke-width="2.16" stroke-miterlimit="10"/>
<path d="M540 1161C882.969 1161 1161 882.969 1161 540C1161 197.031 882.969 -81 540 -81C197.031 -81 -81 197.031 -81 540C-81 882.969 197.031 1161 540 1161Z" stroke="#26A642" stroke-opacity="0.5" stroke-width="2.16" stroke-miterlimit="10"/>
<path d="M540 1134C868.057 1134 1134 868.057 1134 540C1134 211.943 868.057 -54 540 -54C211.943 -54 -54 211.943 -54 540C-54 868.057 211.943 1134 540 1134Z" stroke="#26A642" stroke-opacity="0.5" stroke-width="2.16" stroke-miterlimit="10"/>
<path d="M540 1107C853.146 1107 1107 853.146 1107 540C1107 226.855 853.146 -27 540 -27C226.855 -27 -27 226.855 -27 540C-27 853.146 226.855 1107 540 1107Z" stroke="#26A642" stroke-opacity="0.5" stroke-width="2.16" stroke-miterlimit="10"/>
<path d="M540 1080C838.234 1080 1080 838.234 1080 540C1080 241.766 838.234 0 540 0C241.766 0 0 241.766 0 540C0 838.234 241.766 1080 540 1080Z" stroke="#26A642" stroke-opacity="0.5" stroke-width="2.16" stroke-miterlimit="10"/>
<path d="M540 1053C823.322 1053 1053 823.322 1053 540C1053 256.678 823.322 27 540 27C256.678 27 27 256.678 27 540C27 823.322 256.678 1053 540 1053Z" stroke="#26A642" stroke-opacity="0.5" stroke-width="2.16" stroke-miterlimit="10"/>
<path d="M540 1026C808.41 1026 1026 808.41 1026 540C1026 271.59 808.41 54 540 54C271.59 54 54 271.59 54 540C54 808.41 271.59 1026 540 1026Z" stroke="#26A642" stroke-opacity="0.5" stroke-width="2.16" stroke-miterlimit="10"/>
<path d="M540 999C793.499 999 999 793.499 999 540C999 286.501 793.499 81 540 81C286.501 81 81 286.501 81 540C81 793.499 286.501 999 540 999Z" stroke="#26A642" stroke-opacity="0.5" stroke-width="2.16" stroke-miterlimit="10"/>
<path d="M540 972C778.587 972 972 778.587 972 540C972 301.413 778.587 108 540 108C301.413 108 108 301.413 108 540C108 778.587 301.413 972 540 972Z" stroke="#26A642" stroke-opacity="0.5" stroke-width="2.16" stroke-miterlimit="10"/>
<path d="M540 945C763.675 945 945 763.675 945 540C945 316.325 763.675 135 540 135C316.325 135 135 316.325 135 540C135 763.675 316.325 945 540 945Z" stroke="#26A642" stroke-opacity="0.5" stroke-width="2.16" stroke-miterlimit="10"/>
<path d="M540 918C748.764 918 918 748.764 918 540C918 331.236 748.764 162 540 162C331.236 162 162 331.236 162 540C162 748.764 331.236 918 540 918Z" stroke="#26A642" stroke-opacity="0.5" stroke-width="2.16" stroke-miterlimit="10"/>
<path d="M540 891C733.852 891 891 733.852 891 540C891 346.148 733.852 189 540 189C346.148 189 189 346.148 189 540C189 733.852 346.148 891 540 891Z" stroke="#26A642" stroke-opacity="0.5" stroke-width="2.16" stroke-miterlimit="10"/>
<path d="M540 864C718.94 864 864 718.94 864 540C864 361.06 718.94 216 540 216C361.06 216 216 361.06 216 540C216 718.94 361.06 864 540 864Z" stroke="#26A642" stroke-opacity="0.5" stroke-width="2.16" stroke-miterlimit="10"/>
<path d="M540 837C704.029 837 837 704.029 837 540C837 375.971 704.029 243 540 243C375.971 243 243 375.971 243 540C243 704.029 375.971 837 540 837Z" stroke="#26A642" stroke-opacity="0.5" stroke-width="2.16" stroke-miterlimit="10"/>
<path d="M540 810C689.117 810 810 689.117 810 540C810 390.883 689.117 270 540 270C390.883 270 270 390.883 270 540C270 689.117 390.883 810 540 810Z" stroke="#26A642" stroke-opacity="0.5" stroke-width="2.16" stroke-miterlimit="10"/>
<path d="M540 783C674.205 783 783 674.205 783 540C783 405.795 674.205 297 540 297C405.795 297 297 405.795 297 540C297 674.205 405.795 783 540 783Z" stroke="#26A642" stroke-opacity="0.5" stroke-width="2.16" stroke-miterlimit="10"/>
<path d="M540 756C659.294 756 756 659.294 756 540C756 420.706 659.294 324 540 324C420.706 324 324 420.706 324 540C324 659.294 420.706 756 540 756Z" stroke="#26A642" stroke-opacity="0.5" stroke-width="2.16" stroke-miterlimit="10"/>
<path d="M540 729C644.382 729 729 644.382 729 540C729 435.618 644.382 351 540 351C435.618 351 351 435.618 351 540C351 644.382 435.618 729 540 729Z" stroke="#26A642" stroke-opacity="0.5" stroke-width="2.16" stroke-miterlimit="10"/>
<path d="M540 702C629.47 702 702 629.47 702 540C702 450.53 629.47 378 540 378C450.53 378 378 450.53 378 540C378 629.47 450.53 702 540 702Z" stroke="#26A642" stroke-opacity="0.5" stroke-width="2.16" stroke-miterlimit="10"/>
<path d="M540 675C614.558 675 675 614.558 675 540C675 465.442 614.558 405 540 405C465.442 405 405 465.442 405 540C405 614.558 465.442 675 540 675Z" stroke="#26A642" stroke-opacity="0.5" stroke-width="2.16" stroke-miterlimit="10"/>
<path d="M540 648C599.647 648 648 599.647 648 540C648 480.353 599.647 432 540 432C480.353 432 432 480.353 432 540C432 599.647 480.353 648 540 648Z" stroke="#26A642" stroke-opacity="0.5" stroke-width="2.16" stroke-miterlimit="10"/>
<path d="M540 621C584.735 621 621 584.735 621 540C621 495.265 584.735 459 540 459C495.265 459 459 495.265 459 540C459 584.735 495.265 621 540 621Z" stroke="#26A642" stroke-opacity="0.5" stroke-width="2.16" stroke-miterlimit="10"/>
<path d="M540 594C569.823 594 594 569.823 594 540C594 510.177 569.823 486 540 486C510.177 486 486 510.177 486 540C486 569.823 510.177 594 540 594Z" stroke="#26A642" stroke-opacity="0.5" stroke-width="2.16" stroke-miterlimit="10"/>
<path d="M540 567C554.912 567 567 554.912 567 540C567 525.088 554.912 513 540 513C525.088 513 513 525.088 513 540C513 554.912 525.088 567 540 567Z" stroke="#26A642" stroke-opacity="0.5" stroke-width="2.16" stroke-miterlimit="10"/>
<path d="M1080 0H0V1080H1080V0Z" fill="url(#paint1_radial_40_4001)" fill-opacity="0.5"/>
</g>
<g opacity="0.75">
<rect x="0.5" y="0.5" width="1079" height="1079" fill="url(#paint2_radial_40_4001)" stroke="black"/>
<rect x="1079.5" y="1079.5" width="1079" height="1079" transform="rotate(-180 1079.5 1079.5)" fill="url(#paint3_radial_40_4001)" stroke="black"/>
</g>
</g>
<defs>
<radialGradient id="paint0_radial_40_4001" cx="0" cy="0" r="1" gradientUnits="userSpaceOnUse" gradientTransform="translate(540 540) scale(790)">
<stop stop-color="#006B32"/>
<stop offset="1" stop-color="#0E4429"/>
</radialGradient>
<radialGradient id="paint1_radial_40_4001" cx="0" cy="0" r="1" gradientUnits="userSpaceOnUse" gradientTransform="translate(540 540) scale(790)">
<stop stop-color="#3AD454"/>
<stop offset="1" stop-color="#3AD454" stop-opacity="0"/>
</radialGradient>
<radialGradient id="paint2_radial_40_4001" cx="0" cy="0" r="1" gradientUnits="userSpaceOnUse" gradientTransform="translate(156.101 123.337) rotate(45.7526) scale(1655.77 1249.33)">
<stop offset="0.00880086" stop-color="#0D0E0F" stop-opacity="0.92"/>
<stop offset="0.27" stop-color="#0D0E0F" stop-opacity="0.72"/>
<stop offset="0.568183" stop-color="#0D0E0F" stop-opacity="0.62"/>
<stop offset="0.758841" stop-color="#0D0E0F" stop-opacity="0.42"/>
<stop offset="1" stop-color="#3AD454" stop-opacity="0"/>
</radialGradient>
<radialGradient id="paint3_radial_40_4001" cx="0" cy="0" r="1" gradientUnits="userSpaceOnUse" gradientTransform="translate(1236.1 1203.34) rotate(45.7526) scale(1655.77 1249.33)">
<stop offset="0.00880086" stop-color="#0D0E0F" stop-opacity="0.92"/>
<stop offset="0.27" stop-color="#0D0E0F" stop-opacity="0.72"/>
<stop offset="0.568183" stop-color="#0D0E0F" stop-opacity="0.62"/>
<stop offset="0.758841" stop-color="#0D0E0F" stop-opacity="0.42"/>
<stop offset="1" stop-color="#3AD454" stop-opacity="0"/>
</radialGradient>
<clipPath id="clip0_40_4001">
<rect width="1080" height="1080" fill="white"/>
</clipPath>
<clipPath id="clip1_40_4001">
<rect width="1080" height="1080" fill="white"/>
</clipPath>
</defs>
</svg>
