<svg viewBox="0 0 1080 1080" fill="none" xmlns="http://www.w3.org/2000/svg">
<g clip-path="url(#clip0_40_3888)">
<g clip-path="url(#clip1_40_3888)">
<path d="M108 0H0V1080H108V0Z" fill="#0E4429"/>
<path d="M54 54C83.8234 54 108 29.8234 108 3.8147e-06C108 -29.8234 83.8234 -54 54 -54C24.1766 -54 0 -29.8234 0 3.8147e-06C0 29.8234 24.1766 54 54 54Z" fill="#0E4429"/>
<path d="M3.8147e-06 108C29.8234 108 54 83.8234 54 54C54 24.1766 29.8234 0 3.8147e-06 0C-29.8234 0 -54 24.1766 -54 54C-54 83.8234 -29.8234 108 3.8147e-06 108Z" fill="#0E4B2C"/>
<path d="M108 108C137.823 108 162 83.8234 162 54C162 24.1766 137.823 0 108 0C78.1766 0 54 24.1766 54 54C54 83.8234 78.1766 108 108 108Z" fill="#0E4B2C"/>
<path d="M54 162C83.8234 162 108 137.823 108 108C108 78.1766 83.8234 54 54 54C24.1766 54 0 78.1766 0 108C0 137.823 24.1766 162 54 162Z" fill="#0D512F"/>
<path d="M3.8147e-06 216C29.8234 216 54 191.823 54 162C54 132.177 29.8234 108 3.8147e-06 108C-29.8234 108 -54 132.177 -54 162C-54 191.823 -29.8234 216 3.8147e-06 216Z" fill="#0D5832"/>
<path d="M108 216C137.823 216 162 191.823 162 162C162 132.177 137.823 108 108 108C78.1766 108 54 132.177 54 162C54 191.823 78.1766 216 108 216Z" fill="#0D5832"/>
<path d="M54 270C83.8234 270 108 245.823 108 216C108 186.177 83.8234 162 54 162C24.1766 162 0 186.177 0 216C0 245.823 24.1766 270 54 270Z" fill="#0D5F35"/>
<path d="M3.8147e-06 324C29.8234 324 54 299.823 54 270C54 240.177 29.8234 216 3.8147e-06 216C-29.8234 216 -54 240.177 -54 270C-54 299.823 -29.8234 324 3.8147e-06 324Z" fill="#0D6637"/>
<path d="M108 324C137.823 324 162 299.823 162 270C162 240.177 137.823 216 108 216C78.1766 216 54 240.177 54 270C54 299.823 78.1766 324 108 324Z" fill="#0D6637"/>
<path d="M54 378C83.8234 378 108 353.823 108 324C108 294.177 83.8234 270 54 270C24.1766 270 0 294.177 0 324C0 353.823 24.1766 378 54 378Z" fill="#0D6D3A"/>
<path d="M3.8147e-06 432C29.8234 432 54 407.823 54 378C54 348.177 29.8234 324 3.8147e-06 324C-29.8234 324 -54 348.177 -54 378C-54 407.823 -29.8234 432 3.8147e-06 432Z" fill="#0D743D"/>
<path d="M108 432C137.823 432 162 407.823 162 378C162 348.177 137.823 324 108 324C78.1766 324 54 348.177 54 378C54 407.823 78.1766 432 108 432Z" fill="#0D743D"/>
<path d="M54 486C83.8234 486 108 461.823 108 432C108 402.177 83.8234 378 54 378C24.1766 378 0 402.177 0 432C0 461.823 24.1766 486 54 486Z" fill="#0E7B3F"/>
<path d="M3.8147e-06 540C29.8234 540 54 515.823 54 486C54 456.177 29.8234 432 3.8147e-06 432C-29.8234 432 -54 456.177 -54 486C-54 515.823 -29.8234 540 3.8147e-06 540Z" fill="#108241"/>
<path d="M108 540C137.823 540 162 515.823 162 486C162 456.177 137.823 432 108 432C78.1766 432 54 456.177 54 486C54 515.823 78.1766 540 108 540Z" fill="#108241"/>
<path d="M54 594C83.8234 594 108 569.823 108 540C108 510.177 83.8234 486 54 486C24.1766 486 0 510.177 0 540C0 569.823 24.1766 594 54 594Z" fill="#128944"/>
<path d="M3.8147e-06 648C29.8234 648 54 623.823 54 594C54 564.177 29.8234 540 3.8147e-06 540C-29.8234 540 -54 564.177 -54 594C-54 623.823 -29.8234 648 3.8147e-06 648Z" fill="#149046"/>
<path d="M108 648C137.823 648 162 623.823 162 594C162 564.177 137.823 540 108 540C78.1766 540 54 564.177 54 594C54 623.823 78.1766 648 108 648Z" fill="#149046"/>
<path d="M54 702C83.8234 702 108 677.823 108 648C108 618.177 83.8234 594 54 594C24.1766 594 0 618.177 0 648C0 677.823 24.1766 702 54 702Z" fill="#179848"/>
<path d="M3.8147e-06 756C29.8234 756 54 731.823 54 702C54 672.177 29.8234 648 3.8147e-06 648C-29.8234 648 -54 672.177 -54 702C-54 731.823 -29.8234 756 3.8147e-06 756Z" fill="#1A9F4A"/>
<path d="M108 756C137.823 756 162 731.823 162 702C162 672.177 137.823 648 108 648C78.1766 648 54 672.177 54 702C54 731.823 78.1766 756 108 756Z" fill="#1A9F4A"/>
<path d="M54 810C83.8234 810 108 785.823 108 756C108 726.177 83.8234 702 54 702C24.1766 702 0 726.177 0 756C0 785.823 24.1766 810 54 810Z" fill="#1EA74C"/>
<path d="M3.8147e-06 864C29.8234 864 54 839.823 54 810C54 780.177 29.8234 756 3.8147e-06 756C-29.8234 756 -54 780.177 -54 810C-54 839.823 -29.8234 864 3.8147e-06 864Z" fill="#22AE4D"/>
<path d="M108 864C137.823 864 162 839.823 162 810C162 780.177 137.823 756 108 756C78.1766 756 54 780.177 54 810C54 839.823 78.1766 864 108 864Z" fill="#22AE4D"/>
<path d="M54 918C83.8234 918 108 893.823 108 864C108 834.177 83.8234 810 54 810C24.1766 810 0 834.177 0 864C0 893.823 24.1766 918 54 918Z" fill="#26B64F"/>
<path d="M3.8147e-06 972C29.8234 972 54 947.823 54 918C54 888.177 29.8234 864 3.8147e-06 864C-29.8234 864 -54 888.177 -54 918C-54 947.823 -29.8234 972 3.8147e-06 972Z" fill="#2BBD50"/>
<path d="M108 972C137.823 972 162 947.823 162 918C162 888.177 137.823 864 108 864C78.1766 864 54 888.177 54 918C54 947.823 78.1766 972 108 972Z" fill="#2BBD50"/>
<path d="M54 1026C83.8234 1026 108 1001.82 108 972C108 942.177 83.8234 918 54 918C24.1766 918 0 942.177 0 972C0 1001.82 24.1766 1026 54 1026Z" fill="#30C552"/>
<path d="M3.8147e-06 1080C29.8234 1080 54 1055.82 54 1026C54 996.177 29.8234 972 3.8147e-06 972C-29.8234 972 -54 996.177 -54 1026C-54 1055.82 -29.8234 1080 3.8147e-06 1080Z" fill="#35CC53"/>
<path d="M108 1080C137.823 1080 162 1055.82 162 1026C162 996.177 137.823 972 108 972C78.1766 972 54 996.177 54 1026C54 1055.82 78.1766 1080 108 1080Z" fill="#35CC53"/>
<path d="M54 1134C83.8234 1134 108 1109.82 108 1080C108 1050.18 83.8234 1026 54 1026C24.1766 1026 0 1050.18 0 1080C0 1109.82 24.1766 1134 54 1134Z" fill="#3AD454"/>
</g>
<g clip-path="url(#clip2_40_3888)">
<path d="M216 0H108V1080H216V0Z" fill="#0E4429"/>
<path d="M162 54C191.823 54 216 29.8234 216 3.8147e-06C216 -29.8234 191.823 -54 162 -54C132.177 -54 108 -29.8234 108 3.8147e-06C108 29.8234 132.177 54 162 54Z" fill="#0E4429"/>
<path d="M108 108C137.823 108 162 83.8234 162 54C162 24.1766 137.823 0 108 0C78.1766 0 54 24.1766 54 54C54 83.8234 78.1766 108 108 108Z" fill="#0E4B2C"/>
<path d="M216 108C245.823 108 270 83.8234 270 54C270 24.1766 245.823 0 216 0C186.177 0 162 24.1766 162 54C162 83.8234 186.177 108 216 108Z" fill="#0E4B2C"/>
<path d="M162 162C191.823 162 216 137.823 216 108C216 78.1766 191.823 54 162 54C132.177 54 108 78.1766 108 108C108 137.823 132.177 162 162 162Z" fill="#0D512F"/>
<path d="M108 216C137.823 216 162 191.823 162 162C162 132.177 137.823 108 108 108C78.1766 108 54 132.177 54 162C54 191.823 78.1766 216 108 216Z" fill="#0D5832"/>
<path d="M216 216C245.823 216 270 191.823 270 162C270 132.177 245.823 108 216 108C186.177 108 162 132.177 162 162C162 191.823 186.177 216 216 216Z" fill="#0D5832"/>
<path d="M162 270C191.823 270 216 245.823 216 216C216 186.177 191.823 162 162 162C132.177 162 108 186.177 108 216C108 245.823 132.177 270 162 270Z" fill="#0D5F35"/>
<path d="M108 324C137.823 324 162 299.823 162 270C162 240.177 137.823 216 108 216C78.1766 216 54 240.177 54 270C54 299.823 78.1766 324 108 324Z" fill="#0D6637"/>
<path d="M216 324C245.823 324 270 299.823 270 270C270 240.177 245.823 216 216 216C186.177 216 162 240.177 162 270C162 299.823 186.177 324 216 324Z" fill="#0D6637"/>
<path d="M162 378C191.823 378 216 353.823 216 324C216 294.177 191.823 270 162 270C132.177 270 108 294.177 108 324C108 353.823 132.177 378 162 378Z" fill="#0D6D3A"/>
<path d="M108 432C137.823 432 162 407.823 162 378C162 348.177 137.823 324 108 324C78.1766 324 54 348.177 54 378C54 407.823 78.1766 432 108 432Z" fill="#0D743D"/>
<path d="M216 432C245.823 432 270 407.823 270 378C270 348.177 245.823 324 216 324C186.177 324 162 348.177 162 378C162 407.823 186.177 432 216 432Z" fill="#0D743D"/>
<path d="M162 486C191.823 486 216 461.823 216 432C216 402.177 191.823 378 162 378C132.177 378 108 402.177 108 432C108 461.823 132.177 486 162 486Z" fill="#0E7B3F"/>
<path d="M108 540C137.823 540 162 515.823 162 486C162 456.177 137.823 432 108 432C78.1766 432 54 456.177 54 486C54 515.823 78.1766 540 108 540Z" fill="#108241"/>
<path d="M216 540C245.823 540 270 515.823 270 486C270 456.177 245.823 432 216 432C186.177 432 162 456.177 162 486C162 515.823 186.177 540 216 540Z" fill="#108241"/>
<path d="M162 594C191.823 594 216 569.823 216 540C216 510.177 191.823 486 162 486C132.177 486 108 510.177 108 540C108 569.823 132.177 594 162 594Z" fill="#128944"/>
<path d="M108 648C137.823 648 162 623.823 162 594C162 564.177 137.823 540 108 540C78.1766 540 54 564.177 54 594C54 623.823 78.1766 648 108 648Z" fill="#149046"/>
<path d="M216 648C245.823 648 270 623.823 270 594C270 564.177 245.823 540 216 540C186.177 540 162 564.177 162 594C162 623.823 186.177 648 216 648Z" fill="#149046"/>
<path d="M162 702C191.823 702 216 677.823 216 648C216 618.177 191.823 594 162 594C132.177 594 108 618.177 108 648C108 677.823 132.177 702 162 702Z" fill="#179848"/>
<path d="M108 756C137.823 756 162 731.823 162 702C162 672.177 137.823 648 108 648C78.1766 648 54 672.177 54 702C54 731.823 78.1766 756 108 756Z" fill="#1A9F4A"/>
<path d="M216 756C245.823 756 270 731.823 270 702C270 672.177 245.823 648 216 648C186.177 648 162 672.177 162 702C162 731.823 186.177 756 216 756Z" fill="#1A9F4A"/>
<path d="M162 810C191.823 810 216 785.823 216 756C216 726.177 191.823 702 162 702C132.177 702 108 726.177 108 756C108 785.823 132.177 810 162 810Z" fill="#1EA74C"/>
<path d="M108 864C137.823 864 162 839.823 162 810C162 780.177 137.823 756 108 756C78.1766 756 54 780.177 54 810C54 839.823 78.1766 864 108 864Z" fill="#22AE4D"/>
<path d="M216 864C245.823 864 270 839.823 270 810C270 780.177 245.823 756 216 756C186.177 756 162 780.177 162 810C162 839.823 186.177 864 216 864Z" fill="#22AE4D"/>
<path d="M162 918C191.823 918 216 893.823 216 864C216 834.177 191.823 810 162 810C132.177 810 108 834.177 108 864C108 893.823 132.177 918 162 918Z" fill="#26B64F"/>
<path d="M108 972C137.823 972 162 947.823 162 918C162 888.177 137.823 864 108 864C78.1766 864 54 888.177 54 918C54 947.823 78.1766 972 108 972Z" fill="#2BBD50"/>
<path d="M216 972C245.823 972 270 947.823 270 918C270 888.177 245.823 864 216 864C186.177 864 162 888.177 162 918C162 947.823 186.177 972 216 972Z" fill="#2BBD50"/>
<path d="M162 1026C191.823 1026 216 1001.82 216 972C216 942.177 191.823 918 162 918C132.177 918 108 942.177 108 972C108 1001.82 132.177 1026 162 1026Z" fill="#30C552"/>
<path d="M108 1080C137.823 1080 162 1055.82 162 1026C162 996.177 137.823 972 108 972C78.1766 972 54 996.177 54 1026C54 1055.82 78.1766 1080 108 1080Z" fill="#35CC53"/>
<path d="M216 1080C245.823 1080 270 1055.82 270 1026C270 996.177 245.823 972 216 972C186.177 972 162 996.177 162 1026C162 1055.82 186.177 1080 216 1080Z" fill="#35CC53"/>
<path d="M162 1134C191.823 1134 216 1109.82 216 1080C216 1050.18 191.823 1026 162 1026C132.177 1026 108 1050.18 108 1080C108 1109.82 132.177 1134 162 1134Z" fill="#3AD454"/>
</g>
<g clip-path="url(#clip3_40_3888)">
<path d="M324 0H216V1080H324V0Z" fill="#0E4429"/>
<path d="M270 54C299.823 54 324 29.8234 324 3.8147e-06C324 -29.8234 299.823 -54 270 -54C240.177 -54 216 -29.8234 216 3.8147e-06C216 29.8234 240.177 54 270 54Z" fill="#0E4429"/>
<path d="M216 108C245.823 108 270 83.8234 270 54C270 24.1766 245.823 0 216 0C186.177 0 162 24.1766 162 54C162 83.8234 186.177 108 216 108Z" fill="#0E4B2C"/>
<path d="M324 108C353.823 108 378 83.8234 378 54C378 24.1766 353.823 0 324 0C294.177 0 270 24.1766 270 54C270 83.8234 294.177 108 324 108Z" fill="#0E4B2C"/>
<path d="M270 162C299.823 162 324 137.823 324 108C324 78.1766 299.823 54 270 54C240.177 54 216 78.1766 216 108C216 137.823 240.177 162 270 162Z" fill="#0D512F"/>
<path d="M216 216C245.823 216 270 191.823 270 162C270 132.177 245.823 108 216 108C186.177 108 162 132.177 162 162C162 191.823 186.177 216 216 216Z" fill="#0D5832"/>
<path d="M324 216C353.823 216 378 191.823 378 162C378 132.177 353.823 108 324 108C294.177 108 270 132.177 270 162C270 191.823 294.177 216 324 216Z" fill="#0D5832"/>
<path d="M270 270C299.823 270 324 245.823 324 216C324 186.177 299.823 162 270 162C240.177 162 216 186.177 216 216C216 245.823 240.177 270 270 270Z" fill="#0D5F35"/>
<path d="M216 324C245.823 324 270 299.823 270 270C270 240.177 245.823 216 216 216C186.177 216 162 240.177 162 270C162 299.823 186.177 324 216 324Z" fill="#0D6637"/>
<path d="M324 324C353.823 324 378 299.823 378 270C378 240.177 353.823 216 324 216C294.177 216 270 240.177 270 270C270 299.823 294.177 324 324 324Z" fill="#0D6637"/>
<path d="M270 378C299.823 378 324 353.823 324 324C324 294.177 299.823 270 270 270C240.177 270 216 294.177 216 324C216 353.823 240.177 378 270 378Z" fill="#0D6D3A"/>
<path d="M216 432C245.823 432 270 407.823 270 378C270 348.177 245.823 324 216 324C186.177 324 162 348.177 162 378C162 407.823 186.177 432 216 432Z" fill="#0D743D"/>
<path d="M324 432C353.823 432 378 407.823 378 378C378 348.177 353.823 324 324 324C294.177 324 270 348.177 270 378C270 407.823 294.177 432 324 432Z" fill="#0D743D"/>
<path d="M270 486C299.823 486 324 461.823 324 432C324 402.177 299.823 378 270 378C240.177 378 216 402.177 216 432C216 461.823 240.177 486 270 486Z" fill="#0E7B3F"/>
<path d="M216 540C245.823 540 270 515.823 270 486C270 456.177 245.823 432 216 432C186.177 432 162 456.177 162 486C162 515.823 186.177 540 216 540Z" fill="#108241"/>
<path d="M324 540C353.823 540 378 515.823 378 486C378 456.177 353.823 432 324 432C294.177 432 270 456.177 270 486C270 515.823 294.177 540 324 540Z" fill="#108241"/>
<path d="M270 594C299.823 594 324 569.823 324 540C324 510.177 299.823 486 270 486C240.177 486 216 510.177 216 540C216 569.823 240.177 594 270 594Z" fill="#128944"/>
<path d="M216 648C245.823 648 270 623.823 270 594C270 564.177 245.823 540 216 540C186.177 540 162 564.177 162 594C162 623.823 186.177 648 216 648Z" fill="#149046"/>
<path d="M324 648C353.823 648 378 623.823 378 594C378 564.177 353.823 540 324 540C294.177 540 270 564.177 270 594C270 623.823 294.177 648 324 648Z" fill="#149046"/>
<path d="M270 702C299.823 702 324 677.823 324 648C324 618.177 299.823 594 270 594C240.177 594 216 618.177 216 648C216 677.823 240.177 702 270 702Z" fill="#179848"/>
<path d="M216 756C245.823 756 270 731.823 270 702C270 672.177 245.823 648 216 648C186.177 648 162 672.177 162 702C162 731.823 186.177 756 216 756Z" fill="#1A9F4A"/>
<path d="M324 756C353.823 756 378 731.823 378 702C378 672.177 353.823 648 324 648C294.177 648 270 672.177 270 702C270 731.823 294.177 756 324 756Z" fill="#1A9F4A"/>
<path d="M270 810C299.823 810 324 785.823 324 756C324 726.177 299.823 702 270 702C240.177 702 216 726.177 216 756C216 785.823 240.177 810 270 810Z" fill="#1EA74C"/>
<path d="M216 864C245.823 864 270 839.823 270 810C270 780.177 245.823 756 216 756C186.177 756 162 780.177 162 810C162 839.823 186.177 864 216 864Z" fill="#22AE4D"/>
<path d="M324 864C353.823 864 378 839.823 378 810C378 780.177 353.823 756 324 756C294.177 756 270 780.177 270 810C270 839.823 294.177 864 324 864Z" fill="#22AE4D"/>
<path d="M270 918C299.823 918 324 893.823 324 864C324 834.177 299.823 810 270 810C240.177 810 216 834.177 216 864C216 893.823 240.177 918 270 918Z" fill="#26B64F"/>
<path d="M216 972C245.823 972 270 947.823 270 918C270 888.177 245.823 864 216 864C186.177 864 162 888.177 162 918C162 947.823 186.177 972 216 972Z" fill="#2BBD50"/>
<path d="M324 972C353.823 972 378 947.823 378 918C378 888.177 353.823 864 324 864C294.177 864 270 888.177 270 918C270 947.823 294.177 972 324 972Z" fill="#2BBD50"/>
<path d="M270 1026C299.823 1026 324 1001.82 324 972C324 942.177 299.823 918 270 918C240.177 918 216 942.177 216 972C216 1001.82 240.177 1026 270 1026Z" fill="#30C552"/>
<path d="M216 1080C245.823 1080 270 1055.82 270 1026C270 996.177 245.823 972 216 972C186.177 972 162 996.177 162 1026C162 1055.82 186.177 1080 216 1080Z" fill="#35CC53"/>
<path d="M324 1080C353.823 1080 378 1055.82 378 1026C378 996.177 353.823 972 324 972C294.177 972 270 996.177 270 1026C270 1055.82 294.177 1080 324 1080Z" fill="#35CC53"/>
<path d="M270 1134C299.823 1134 324 1109.82 324 1080C324 1050.18 299.823 1026 270 1026C240.177 1026 216 1050.18 216 1080C216 1109.82 240.177 1134 270 1134Z" fill="#3AD454"/>
</g>
<g clip-path="url(#clip4_40_3888)">
<path d="M432 0H324V1080H432V0Z" fill="#0E4429"/>
<path d="M378 54C407.823 54 432 29.8234 432 3.8147e-06C432 -29.8234 407.823 -54 378 -54C348.177 -54 324 -29.8234 324 3.8147e-06C324 29.8234 348.177 54 378 54Z" fill="#0E4429"/>
<path d="M324 108C353.823 108 378 83.8234 378 54C378 24.1766 353.823 0 324 0C294.177 0 270 24.1766 270 54C270 83.8234 294.177 108 324 108Z" fill="#0E4B2C"/>
<path d="M432 108C461.823 108 486 83.8234 486 54C486 24.1766 461.823 0 432 0C402.177 0 378 24.1766 378 54C378 83.8234 402.177 108 432 108Z" fill="#0E4B2C"/>
<path d="M378 162C407.823 162 432 137.823 432 108C432 78.1766 407.823 54 378 54C348.177 54 324 78.1766 324 108C324 137.823 348.177 162 378 162Z" fill="#0D512F"/>
<path d="M324 216C353.823 216 378 191.823 378 162C378 132.177 353.823 108 324 108C294.177 108 270 132.177 270 162C270 191.823 294.177 216 324 216Z" fill="#0D5832"/>
<path d="M432 216C461.823 216 486 191.823 486 162C486 132.177 461.823 108 432 108C402.177 108 378 132.177 378 162C378 191.823 402.177 216 432 216Z" fill="#0D5832"/>
<path d="M378 270C407.823 270 432 245.823 432 216C432 186.177 407.823 162 378 162C348.177 162 324 186.177 324 216C324 245.823 348.177 270 378 270Z" fill="#0D5F35"/>
<path d="M324 324C353.823 324 378 299.823 378 270C378 240.177 353.823 216 324 216C294.177 216 270 240.177 270 270C270 299.823 294.177 324 324 324Z" fill="#0D6637"/>
<path d="M432 324C461.823 324 486 299.823 486 270C486 240.177 461.823 216 432 216C402.177 216 378 240.177 378 270C378 299.823 402.177 324 432 324Z" fill="#0D6637"/>
<path d="M378 378C407.823 378 432 353.823 432 324C432 294.177 407.823 270 378 270C348.177 270 324 294.177 324 324C324 353.823 348.177 378 378 378Z" fill="#0D6D3A"/>
<path d="M324 432C353.823 432 378 407.823 378 378C378 348.177 353.823 324 324 324C294.177 324 270 348.177 270 378C270 407.823 294.177 432 324 432Z" fill="#0D743D"/>
<path d="M432 432C461.823 432 486 407.823 486 378C486 348.177 461.823 324 432 324C402.177 324 378 348.177 378 378C378 407.823 402.177 432 432 432Z" fill="#0D743D"/>
<path d="M378 486C407.823 486 432 461.823 432 432C432 402.177 407.823 378 378 378C348.177 378 324 402.177 324 432C324 461.823 348.177 486 378 486Z" fill="#0E7B3F"/>
<path d="M324 540C353.823 540 378 515.823 378 486C378 456.177 353.823 432 324 432C294.177 432 270 456.177 270 486C270 515.823 294.177 540 324 540Z" fill="#108241"/>
<path d="M432 540C461.823 540 486 515.823 486 486C486 456.177 461.823 432 432 432C402.177 432 378 456.177 378 486C378 515.823 402.177 540 432 540Z" fill="#108241"/>
<path d="M378 594C407.823 594 432 569.823 432 540C432 510.177 407.823 486 378 486C348.177 486 324 510.177 324 540C324 569.823 348.177 594 378 594Z" fill="#128944"/>
<path d="M324 648C353.823 648 378 623.823 378 594C378 564.177 353.823 540 324 540C294.177 540 270 564.177 270 594C270 623.823 294.177 648 324 648Z" fill="#149046"/>
<path d="M432 648C461.823 648 486 623.823 486 594C486 564.177 461.823 540 432 540C402.177 540 378 564.177 378 594C378 623.823 402.177 648 432 648Z" fill="#149046"/>
<path d="M378 702C407.823 702 432 677.823 432 648C432 618.177 407.823 594 378 594C348.177 594 324 618.177 324 648C324 677.823 348.177 702 378 702Z" fill="#179848"/>
<path d="M324 756C353.823 756 378 731.823 378 702C378 672.177 353.823 648 324 648C294.177 648 270 672.177 270 702C270 731.823 294.177 756 324 756Z" fill="#1A9F4A"/>
<path d="M432 756C461.823 756 486 731.823 486 702C486 672.177 461.823 648 432 648C402.177 648 378 672.177 378 702C378 731.823 402.177 756 432 756Z" fill="#1A9F4A"/>
<path d="M378 810C407.823 810 432 785.823 432 756C432 726.177 407.823 702 378 702C348.177 702 324 726.177 324 756C324 785.823 348.177 810 378 810Z" fill="#1EA74C"/>
<path d="M324 864C353.823 864 378 839.823 378 810C378 780.177 353.823 756 324 756C294.177 756 270 780.177 270 810C270 839.823 294.177 864 324 864Z" fill="#22AE4D"/>
<path d="M432 864C461.823 864 486 839.823 486 810C486 780.177 461.823 756 432 756C402.177 756 378 780.177 378 810C378 839.823 402.177 864 432 864Z" fill="#22AE4D"/>
<path d="M378 918C407.823 918 432 893.823 432 864C432 834.177 407.823 810 378 810C348.177 810 324 834.177 324 864C324 893.823 348.177 918 378 918Z" fill="#26B64F"/>
<path d="M324 972C353.823 972 378 947.823 378 918C378 888.177 353.823 864 324 864C294.177 864 270 888.177 270 918C270 947.823 294.177 972 324 972Z" fill="#2BBD50"/>
<path d="M432 972C461.823 972 486 947.823 486 918C486 888.177 461.823 864 432 864C402.177 864 378 888.177 378 918C378 947.823 402.177 972 432 972Z" fill="#2BBD50"/>
<path d="M378 1026C407.823 1026 432 1001.82 432 972C432 942.177 407.823 918 378 918C348.177 918 324 942.177 324 972C324 1001.82 348.177 1026 378 1026Z" fill="#30C552"/>
<path d="M324 1080C353.823 1080 378 1055.82 378 1026C378 996.177 353.823 972 324 972C294.177 972 270 996.177 270 1026C270 1055.82 294.177 1080 324 1080Z" fill="#35CC53"/>
<path d="M432 1080C461.823 1080 486 1055.82 486 1026C486 996.177 461.823 972 432 972C402.177 972 378 996.177 378 1026C378 1055.82 402.177 1080 432 1080Z" fill="#35CC53"/>
<path d="M378 1134C407.823 1134 432 1109.82 432 1080C432 1050.18 407.823 1026 378 1026C348.177 1026 324 1050.18 324 1080C324 1109.82 348.177 1134 378 1134Z" fill="#3AD454"/>
</g>
<g clip-path="url(#clip5_40_3888)">
<path d="M540 0H432V1080H540V0Z" fill="#0E4429"/>
<path d="M486 54C515.823 54 540 29.8234 540 3.8147e-06C540 -29.8234 515.823 -54 486 -54C456.177 -54 432 -29.8234 432 3.8147e-06C432 29.8234 456.177 54 486 54Z" fill="#0E4429"/>
<path d="M432 108C461.823 108 486 83.8234 486 54C486 24.1766 461.823 0 432 0C402.177 0 378 24.1766 378 54C378 83.8234 402.177 108 432 108Z" fill="#0E4B2C"/>
<path d="M540 108C569.823 108 594 83.8234 594 54C594 24.1766 569.823 0 540 0C510.177 0 486 24.1766 486 54C486 83.8234 510.177 108 540 108Z" fill="#0E4B2C"/>
<path d="M486 162C515.823 162 540 137.823 540 108C540 78.1766 515.823 54 486 54C456.177 54 432 78.1766 432 108C432 137.823 456.177 162 486 162Z" fill="#0D512F"/>
<path d="M432 216C461.823 216 486 191.823 486 162C486 132.177 461.823 108 432 108C402.177 108 378 132.177 378 162C378 191.823 402.177 216 432 216Z" fill="#0D5832"/>
<path d="M540 216C569.823 216 594 191.823 594 162C594 132.177 569.823 108 540 108C510.177 108 486 132.177 486 162C486 191.823 510.177 216 540 216Z" fill="#0D5832"/>
<path d="M486 270C515.823 270 540 245.823 540 216C540 186.177 515.823 162 486 162C456.177 162 432 186.177 432 216C432 245.823 456.177 270 486 270Z" fill="#0D5F35"/>
<path d="M432 324C461.823 324 486 299.823 486 270C486 240.177 461.823 216 432 216C402.177 216 378 240.177 378 270C378 299.823 402.177 324 432 324Z" fill="#0D6637"/>
<path d="M540 324C569.823 324 594 299.823 594 270C594 240.177 569.823 216 540 216C510.177 216 486 240.177 486 270C486 299.823 510.177 324 540 324Z" fill="#0D6637"/>
<path d="M486 378C515.823 378 540 353.823 540 324C540 294.177 515.823 270 486 270C456.177 270 432 294.177 432 324C432 353.823 456.177 378 486 378Z" fill="#0D6D3A"/>
<path d="M432 432C461.823 432 486 407.823 486 378C486 348.177 461.823 324 432 324C402.177 324 378 348.177 378 378C378 407.823 402.177 432 432 432Z" fill="#0D743D"/>
<path d="M540 432C569.823 432 594 407.823 594 378C594 348.177 569.823 324 540 324C510.177 324 486 348.177 486 378C486 407.823 510.177 432 540 432Z" fill="#0D743D"/>
<path d="M486 486C515.823 486 540 461.823 540 432C540 402.177 515.823 378 486 378C456.177 378 432 402.177 432 432C432 461.823 456.177 486 486 486Z" fill="#0E7B3F"/>
<path d="M432 540C461.823 540 486 515.823 486 486C486 456.177 461.823 432 432 432C402.177 432 378 456.177 378 486C378 515.823 402.177 540 432 540Z" fill="#108241"/>
<path d="M540 540C569.823 540 594 515.823 594 486C594 456.177 569.823 432 540 432C510.177 432 486 456.177 486 486C486 515.823 510.177 540 540 540Z" fill="#108241"/>
<path d="M486 594C515.823 594 540 569.823 540 540C540 510.177 515.823 486 486 486C456.177 486 432 510.177 432 540C432 569.823 456.177 594 486 594Z" fill="#128944"/>
<path d="M432 648C461.823 648 486 623.823 486 594C486 564.177 461.823 540 432 540C402.177 540 378 564.177 378 594C378 623.823 402.177 648 432 648Z" fill="#149046"/>
<path d="M540 648C569.823 648 594 623.823 594 594C594 564.177 569.823 540 540 540C510.177 540 486 564.177 486 594C486 623.823 510.177 648 540 648Z" fill="#149046"/>
<path d="M486 702C515.823 702 540 677.823 540 648C540 618.177 515.823 594 486 594C456.177 594 432 618.177 432 648C432 677.823 456.177 702 486 702Z" fill="#179848"/>
<path d="M432 756C461.823 756 486 731.823 486 702C486 672.177 461.823 648 432 648C402.177 648 378 672.177 378 702C378 731.823 402.177 756 432 756Z" fill="#1A9F4A"/>
<path d="M540 756C569.823 756 594 731.823 594 702C594 672.177 569.823 648 540 648C510.177 648 486 672.177 486 702C486 731.823 510.177 756 540 756Z" fill="#1A9F4A"/>
<path d="M486 810C515.823 810 540 785.823 540 756C540 726.177 515.823 702 486 702C456.177 702 432 726.177 432 756C432 785.823 456.177 810 486 810Z" fill="#1EA74C"/>
<path d="M432 864C461.823 864 486 839.823 486 810C486 780.177 461.823 756 432 756C402.177 756 378 780.177 378 810C378 839.823 402.177 864 432 864Z" fill="#22AE4D"/>
<path d="M540 864C569.823 864 594 839.823 594 810C594 780.177 569.823 756 540 756C510.177 756 486 780.177 486 810C486 839.823 510.177 864 540 864Z" fill="#22AE4D"/>
<path d="M486 918C515.823 918 540 893.823 540 864C540 834.177 515.823 810 486 810C456.177 810 432 834.177 432 864C432 893.823 456.177 918 486 918Z" fill="#26B64F"/>
<path d="M432 972C461.823 972 486 947.823 486 918C486 888.177 461.823 864 432 864C402.177 864 378 888.177 378 918C378 947.823 402.177 972 432 972Z" fill="#2BBD50"/>
<path d="M540 972C569.823 972 594 947.823 594 918C594 888.177 569.823 864 540 864C510.177 864 486 888.177 486 918C486 947.823 510.177 972 540 972Z" fill="#2BBD50"/>
<path d="M486 1026C515.823 1026 540 1001.82 540 972C540 942.177 515.823 918 486 918C456.177 918 432 942.177 432 972C432 1001.82 456.177 1026 486 1026Z" fill="#30C552"/>
<path d="M432 1080C461.823 1080 486 1055.82 486 1026C486 996.177 461.823 972 432 972C402.177 972 378 996.177 378 1026C378 1055.82 402.177 1080 432 1080Z" fill="#35CC53"/>
<path d="M540 1080C569.823 1080 594 1055.82 594 1026C594 996.177 569.823 972 540 972C510.177 972 486 996.177 486 1026C486 1055.82 510.177 1080 540 1080Z" fill="#35CC53"/>
<path d="M486 1134C515.823 1134 540 1109.82 540 1080C540 1050.18 515.823 1026 486 1026C456.177 1026 432 1050.18 432 1080C432 1109.82 456.177 1134 486 1134Z" fill="#3AD454"/>
</g>
<g clip-path="url(#clip6_40_3888)">
<path d="M648 0H540V1080H648V0Z" fill="#0E4429"/>
<path d="M594 54C623.823 54 648 29.8234 648 3.8147e-06C648 -29.8234 623.823 -54 594 -54C564.177 -54 540 -29.8234 540 3.8147e-06C540 29.8234 564.177 54 594 54Z" fill="#0E4429"/>
<path d="M540 108C569.823 108 594 83.8234 594 54C594 24.1766 569.823 0 540 0C510.177 0 486 24.1766 486 54C486 83.8234 510.177 108 540 108Z" fill="#0E4B2C"/>
<path d="M648 108C677.823 108 702 83.8234 702 54C702 24.1766 677.823 0 648 0C618.177 0 594 24.1766 594 54C594 83.8234 618.177 108 648 108Z" fill="#0E4B2C"/>
<path d="M594 162C623.823 162 648 137.823 648 108C648 78.1766 623.823 54 594 54C564.177 54 540 78.1766 540 108C540 137.823 564.177 162 594 162Z" fill="#0D512F"/>
<path d="M540 216C569.823 216 594 191.823 594 162C594 132.177 569.823 108 540 108C510.177 108 486 132.177 486 162C486 191.823 510.177 216 540 216Z" fill="#0D5832"/>
<path d="M648 216C677.823 216 702 191.823 702 162C702 132.177 677.823 108 648 108C618.177 108 594 132.177 594 162C594 191.823 618.177 216 648 216Z" fill="#0D5832"/>
<path d="M594 270C623.823 270 648 245.823 648 216C648 186.177 623.823 162 594 162C564.177 162 540 186.177 540 216C540 245.823 564.177 270 594 270Z" fill="#0D5F35"/>
<path d="M540 324C569.823 324 594 299.823 594 270C594 240.177 569.823 216 540 216C510.177 216 486 240.177 486 270C486 299.823 510.177 324 540 324Z" fill="#0D6637"/>
<path d="M648 324C677.823 324 702 299.823 702 270C702 240.177 677.823 216 648 216C618.177 216 594 240.177 594 270C594 299.823 618.177 324 648 324Z" fill="#0D6637"/>
<path d="M594 378C623.823 378 648 353.823 648 324C648 294.177 623.823 270 594 270C564.177 270 540 294.177 540 324C540 353.823 564.177 378 594 378Z" fill="#0D6D3A"/>
<path d="M540 432C569.823 432 594 407.823 594 378C594 348.177 569.823 324 540 324C510.177 324 486 348.177 486 378C486 407.823 510.177 432 540 432Z" fill="#0D743D"/>
<path d="M648 432C677.823 432 702 407.823 702 378C702 348.177 677.823 324 648 324C618.177 324 594 348.177 594 378C594 407.823 618.177 432 648 432Z" fill="#0D743D"/>
<path d="M594 486C623.823 486 648 461.823 648 432C648 402.177 623.823 378 594 378C564.177 378 540 402.177 540 432C540 461.823 564.177 486 594 486Z" fill="#0E7B3F"/>
<path d="M540 540C569.823 540 594 515.823 594 486C594 456.177 569.823 432 540 432C510.177 432 486 456.177 486 486C486 515.823 510.177 540 540 540Z" fill="#108241"/>
<path d="M648 540C677.823 540 702 515.823 702 486C702 456.177 677.823 432 648 432C618.177 432 594 456.177 594 486C594 515.823 618.177 540 648 540Z" fill="#108241"/>
<path d="M594 594C623.823 594 648 569.823 648 540C648 510.177 623.823 486 594 486C564.177 486 540 510.177 540 540C540 569.823 564.177 594 594 594Z" fill="#128944"/>
<path d="M540 648C569.823 648 594 623.823 594 594C594 564.177 569.823 540 540 540C510.177 540 486 564.177 486 594C486 623.823 510.177 648 540 648Z" fill="#149046"/>
<path d="M648 648C677.823 648 702 623.823 702 594C702 564.177 677.823 540 648 540C618.177 540 594 564.177 594 594C594 623.823 618.177 648 648 648Z" fill="#149046"/>
<path d="M594 702C623.823 702 648 677.823 648 648C648 618.177 623.823 594 594 594C564.177 594 540 618.177 540 648C540 677.823 564.177 702 594 702Z" fill="#179848"/>
<path d="M540 756C569.823 756 594 731.823 594 702C594 672.177 569.823 648 540 648C510.177 648 486 672.177 486 702C486 731.823 510.177 756 540 756Z" fill="#1A9F4A"/>
<path d="M648 756C677.823 756 702 731.823 702 702C702 672.177 677.823 648 648 648C618.177 648 594 672.177 594 702C594 731.823 618.177 756 648 756Z" fill="#1A9F4A"/>
<path d="M594 810C623.823 810 648 785.823 648 756C648 726.177 623.823 702 594 702C564.177 702 540 726.177 540 756C540 785.823 564.177 810 594 810Z" fill="#1EA74C"/>
<path d="M540 864C569.823 864 594 839.823 594 810C594 780.177 569.823 756 540 756C510.177 756 486 780.177 486 810C486 839.823 510.177 864 540 864Z" fill="#22AE4D"/>
<path d="M648 864C677.823 864 702 839.823 702 810C702 780.177 677.823 756 648 756C618.177 756 594 780.177 594 810C594 839.823 618.177 864 648 864Z" fill="#22AE4D"/>
<path d="M594 918C623.823 918 648 893.823 648 864C648 834.177 623.823 810 594 810C564.177 810 540 834.177 540 864C540 893.823 564.177 918 594 918Z" fill="#26B64F"/>
<path d="M540 972C569.823 972 594 947.823 594 918C594 888.177 569.823 864 540 864C510.177 864 486 888.177 486 918C486 947.823 510.177 972 540 972Z" fill="#2BBD50"/>
<path d="M648 972C677.823 972 702 947.823 702 918C702 888.177 677.823 864 648 864C618.177 864 594 888.177 594 918C594 947.823 618.177 972 648 972Z" fill="#2BBD50"/>
<path d="M594 1026C623.823 1026 648 1001.82 648 972C648 942.177 623.823 918 594 918C564.177 918 540 942.177 540 972C540 1001.82 564.177 1026 594 1026Z" fill="#30C552"/>
<path d="M540 1080C569.823 1080 594 1055.82 594 1026C594 996.177 569.823 972 540 972C510.177 972 486 996.177 486 1026C486 1055.82 510.177 1080 540 1080Z" fill="#35CC53"/>
<path d="M648 1080C677.823 1080 702 1055.82 702 1026C702 996.177 677.823 972 648 972C618.177 972 594 996.177 594 1026C594 1055.82 618.177 1080 648 1080Z" fill="#35CC53"/>
<path d="M594 1134C623.823 1134 648 1109.82 648 1080C648 1050.18 623.823 1026 594 1026C564.177 1026 540 1050.18 540 1080C540 1109.82 564.177 1134 594 1134Z" fill="#3AD454"/>
</g>
<g clip-path="url(#clip7_40_3888)">
<path d="M756 0H648V1080H756V0Z" fill="#0E4429"/>
<path d="M702 54C731.823 54 756 29.8234 756 3.8147e-06C756 -29.8234 731.823 -54 702 -54C672.177 -54 648 -29.8234 648 3.8147e-06C648 29.8234 672.177 54 702 54Z" fill="#0E4429"/>
<path d="M648 108C677.823 108 702 83.8234 702 54C702 24.1766 677.823 0 648 0C618.177 0 594 24.1766 594 54C594 83.8234 618.177 108 648 108Z" fill="#0E4B2C"/>
<path d="M756 108C785.823 108 810 83.8234 810 54C810 24.1766 785.823 0 756 0C726.177 0 702 24.1766 702 54C702 83.8234 726.177 108 756 108Z" fill="#0E4B2C"/>
<path d="M702 162C731.823 162 756 137.823 756 108C756 78.1766 731.823 54 702 54C672.177 54 648 78.1766 648 108C648 137.823 672.177 162 702 162Z" fill="#0D512F"/>
<path d="M648 216C677.823 216 702 191.823 702 162C702 132.177 677.823 108 648 108C618.177 108 594 132.177 594 162C594 191.823 618.177 216 648 216Z" fill="#0D5832"/>
<path d="M756 216C785.823 216 810 191.823 810 162C810 132.177 785.823 108 756 108C726.177 108 702 132.177 702 162C702 191.823 726.177 216 756 216Z" fill="#0D5832"/>
<path d="M702 270C731.823 270 756 245.823 756 216C756 186.177 731.823 162 702 162C672.177 162 648 186.177 648 216C648 245.823 672.177 270 702 270Z" fill="#0D5F35"/>
<path d="M648 324C677.823 324 702 299.823 702 270C702 240.177 677.823 216 648 216C618.177 216 594 240.177 594 270C594 299.823 618.177 324 648 324Z" fill="#0D6637"/>
<path d="M756 324C785.823 324 810 299.823 810 270C810 240.177 785.823 216 756 216C726.177 216 702 240.177 702 270C702 299.823 726.177 324 756 324Z" fill="#0D6637"/>
<path d="M702 378C731.823 378 756 353.823 756 324C756 294.177 731.823 270 702 270C672.177 270 648 294.177 648 324C648 353.823 672.177 378 702 378Z" fill="#0D6D3A"/>
<path d="M648 432C677.823 432 702 407.823 702 378C702 348.177 677.823 324 648 324C618.177 324 594 348.177 594 378C594 407.823 618.177 432 648 432Z" fill="#0D743D"/>
<path d="M756 432C785.823 432 810 407.823 810 378C810 348.177 785.823 324 756 324C726.177 324 702 348.177 702 378C702 407.823 726.177 432 756 432Z" fill="#0D743D"/>
<path d="M702 486C731.823 486 756 461.823 756 432C756 402.177 731.823 378 702 378C672.177 378 648 402.177 648 432C648 461.823 672.177 486 702 486Z" fill="#0E7B3F"/>
<path d="M648 540C677.823 540 702 515.823 702 486C702 456.177 677.823 432 648 432C618.177 432 594 456.177 594 486C594 515.823 618.177 540 648 540Z" fill="#108241"/>
<path d="M756 540C785.823 540 810 515.823 810 486C810 456.177 785.823 432 756 432C726.177 432 702 456.177 702 486C702 515.823 726.177 540 756 540Z" fill="#108241"/>
<path d="M702 594C731.823 594 756 569.823 756 540C756 510.177 731.823 486 702 486C672.177 486 648 510.177 648 540C648 569.823 672.177 594 702 594Z" fill="#128944"/>
<path d="M648 648C677.823 648 702 623.823 702 594C702 564.177 677.823 540 648 540C618.177 540 594 564.177 594 594C594 623.823 618.177 648 648 648Z" fill="#149046"/>
<path d="M756 648C785.823 648 810 623.823 810 594C810 564.177 785.823 540 756 540C726.177 540 702 564.177 702 594C702 623.823 726.177 648 756 648Z" fill="#149046"/>
<path d="M702 702C731.823 702 756 677.823 756 648C756 618.177 731.823 594 702 594C672.177 594 648 618.177 648 648C648 677.823 672.177 702 702 702Z" fill="#179848"/>
<path d="M648 756C677.823 756 702 731.823 702 702C702 672.177 677.823 648 648 648C618.177 648 594 672.177 594 702C594 731.823 618.177 756 648 756Z" fill="#1A9F4A"/>
<path d="M756 756C785.823 756 810 731.823 810 702C810 672.177 785.823 648 756 648C726.177 648 702 672.177 702 702C702 731.823 726.177 756 756 756Z" fill="#1A9F4A"/>
<path d="M702 810C731.823 810 756 785.823 756 756C756 726.177 731.823 702 702 702C672.177 702 648 726.177 648 756C648 785.823 672.177 810 702 810Z" fill="#1EA74C"/>
<path d="M648 864C677.823 864 702 839.823 702 810C702 780.177 677.823 756 648 756C618.177 756 594 780.177 594 810C594 839.823 618.177 864 648 864Z" fill="#22AE4D"/>
<path d="M756 864C785.823 864 810 839.823 810 810C810 780.177 785.823 756 756 756C726.177 756 702 780.177 702 810C702 839.823 726.177 864 756 864Z" fill="#22AE4D"/>
<path d="M702 918C731.823 918 756 893.823 756 864C756 834.177 731.823 810 702 810C672.177 810 648 834.177 648 864C648 893.823 672.177 918 702 918Z" fill="#26B64F"/>
<path d="M648 972C677.823 972 702 947.823 702 918C702 888.177 677.823 864 648 864C618.177 864 594 888.177 594 918C594 947.823 618.177 972 648 972Z" fill="#2BBD50"/>
<path d="M756 972C785.823 972 810 947.823 810 918C810 888.177 785.823 864 756 864C726.177 864 702 888.177 702 918C702 947.823 726.177 972 756 972Z" fill="#2BBD50"/>
<path d="M702 1026C731.823 1026 756 1001.82 756 972C756 942.177 731.823 918 702 918C672.177 918 648 942.177 648 972C648 1001.82 672.177 1026 702 1026Z" fill="#30C552"/>
<path d="M648 1080C677.823 1080 702 1055.82 702 1026C702 996.177 677.823 972 648 972C618.177 972 594 996.177 594 1026C594 1055.82 618.177 1080 648 1080Z" fill="#35CC53"/>
<path d="M756 1080C785.823 1080 810 1055.82 810 1026C810 996.177 785.823 972 756 972C726.177 972 702 996.177 702 1026C702 1055.82 726.177 1080 756 1080Z" fill="#35CC53"/>
<path d="M702 1134C731.823 1134 756 1109.82 756 1080C756 1050.18 731.823 1026 702 1026C672.177 1026 648 1050.18 648 1080C648 1109.82 672.177 1134 702 1134Z" fill="#3AD454"/>
</g>
<g clip-path="url(#clip8_40_3888)">
<path d="M864 0H756V1080H864V0Z" fill="#0E4429"/>
<path d="M810 54C839.823 54 864 29.8234 864 3.8147e-06C864 -29.8234 839.823 -54 810 -54C780.177 -54 756 -29.8234 756 3.8147e-06C756 29.8234 780.177 54 810 54Z" fill="#0E4429"/>
<path d="M756 108C785.823 108 810 83.8234 810 54C810 24.1766 785.823 0 756 0C726.177 0 702 24.1766 702 54C702 83.8234 726.177 108 756 108Z" fill="#0E4B2C"/>
<path d="M864 108C893.823 108 918 83.8234 918 54C918 24.1766 893.823 0 864 0C834.177 0 810 24.1766 810 54C810 83.8234 834.177 108 864 108Z" fill="#0E4B2C"/>
<path d="M810 162C839.823 162 864 137.823 864 108C864 78.1766 839.823 54 810 54C780.177 54 756 78.1766 756 108C756 137.823 780.177 162 810 162Z" fill="#0D512F"/>
<path d="M756 216C785.823 216 810 191.823 810 162C810 132.177 785.823 108 756 108C726.177 108 702 132.177 702 162C702 191.823 726.177 216 756 216Z" fill="#0D5832"/>
<path d="M864 216C893.823 216 918 191.823 918 162C918 132.177 893.823 108 864 108C834.177 108 810 132.177 810 162C810 191.823 834.177 216 864 216Z" fill="#0D5832"/>
<path d="M810 270C839.823 270 864 245.823 864 216C864 186.177 839.823 162 810 162C780.177 162 756 186.177 756 216C756 245.823 780.177 270 810 270Z" fill="#0D5F35"/>
<path d="M756 324C785.823 324 810 299.823 810 270C810 240.177 785.823 216 756 216C726.177 216 702 240.177 702 270C702 299.823 726.177 324 756 324Z" fill="#0D6637"/>
<path d="M864 324C893.823 324 918 299.823 918 270C918 240.177 893.823 216 864 216C834.177 216 810 240.177 810 270C810 299.823 834.177 324 864 324Z" fill="#0D6637"/>
<path d="M810 378C839.823 378 864 353.823 864 324C864 294.177 839.823 270 810 270C780.177 270 756 294.177 756 324C756 353.823 780.177 378 810 378Z" fill="#0D6D3A"/>
<path d="M756 432C785.823 432 810 407.823 810 378C810 348.177 785.823 324 756 324C726.177 324 702 348.177 702 378C702 407.823 726.177 432 756 432Z" fill="#0D743D"/>
<path d="M864 432C893.823 432 918 407.823 918 378C918 348.177 893.823 324 864 324C834.177 324 810 348.177 810 378C810 407.823 834.177 432 864 432Z" fill="#0D743D"/>
<path d="M810 486C839.823 486 864 461.823 864 432C864 402.177 839.823 378 810 378C780.177 378 756 402.177 756 432C756 461.823 780.177 486 810 486Z" fill="#0E7B3F"/>
<path d="M756 540C785.823 540 810 515.823 810 486C810 456.177 785.823 432 756 432C726.177 432 702 456.177 702 486C702 515.823 726.177 540 756 540Z" fill="#108241"/>
<path d="M864 540C893.823 540 918 515.823 918 486C918 456.177 893.823 432 864 432C834.177 432 810 456.177 810 486C810 515.823 834.177 540 864 540Z" fill="#108241"/>
<path d="M810 594C839.823 594 864 569.823 864 540C864 510.177 839.823 486 810 486C780.177 486 756 510.177 756 540C756 569.823 780.177 594 810 594Z" fill="#128944"/>
<path d="M756 648C785.823 648 810 623.823 810 594C810 564.177 785.823 540 756 540C726.177 540 702 564.177 702 594C702 623.823 726.177 648 756 648Z" fill="#149046"/>
<path d="M864 648C893.823 648 918 623.823 918 594C918 564.177 893.823 540 864 540C834.177 540 810 564.177 810 594C810 623.823 834.177 648 864 648Z" fill="#149046"/>
<path d="M810 702C839.823 702 864 677.823 864 648C864 618.177 839.823 594 810 594C780.177 594 756 618.177 756 648C756 677.823 780.177 702 810 702Z" fill="#179848"/>
<path d="M756 756C785.823 756 810 731.823 810 702C810 672.177 785.823 648 756 648C726.177 648 702 672.177 702 702C702 731.823 726.177 756 756 756Z" fill="#1A9F4A"/>
<path d="M864 756C893.823 756 918 731.823 918 702C918 672.177 893.823 648 864 648C834.177 648 810 672.177 810 702C810 731.823 834.177 756 864 756Z" fill="#1A9F4A"/>
<path d="M810 810C839.823 810 864 785.823 864 756C864 726.177 839.823 702 810 702C780.177 702 756 726.177 756 756C756 785.823 780.177 810 810 810Z" fill="#1EA74C"/>
<path d="M756 864C785.823 864 810 839.823 810 810C810 780.177 785.823 756 756 756C726.177 756 702 780.177 702 810C702 839.823 726.177 864 756 864Z" fill="#22AE4D"/>
<path d="M864 864C893.823 864 918 839.823 918 810C918 780.177 893.823 756 864 756C834.177 756 810 780.177 810 810C810 839.823 834.177 864 864 864Z" fill="#22AE4D"/>
<path d="M810 918C839.823 918 864 893.823 864 864C864 834.177 839.823 810 810 810C780.177 810 756 834.177 756 864C756 893.823 780.177 918 810 918Z" fill="#26B64F"/>
<path d="M756 972C785.823 972 810 947.823 810 918C810 888.177 785.823 864 756 864C726.177 864 702 888.177 702 918C702 947.823 726.177 972 756 972Z" fill="#2BBD50"/>
<path d="M864 972C893.823 972 918 947.823 918 918C918 888.177 893.823 864 864 864C834.177 864 810 888.177 810 918C810 947.823 834.177 972 864 972Z" fill="#2BBD50"/>
<path d="M810 1026C839.823 1026 864 1001.82 864 972C864 942.177 839.823 918 810 918C780.177 918 756 942.177 756 972C756 1001.82 780.177 1026 810 1026Z" fill="#30C552"/>
<path d="M756 1080C785.823 1080 810 1055.82 810 1026C810 996.177 785.823 972 756 972C726.177 972 702 996.177 702 1026C702 1055.82 726.177 1080 756 1080Z" fill="#35CC53"/>
<path d="M864 1080C893.823 1080 918 1055.82 918 1026C918 996.177 893.823 972 864 972C834.177 972 810 996.177 810 1026C810 1055.82 834.177 1080 864 1080Z" fill="#35CC53"/>
<path d="M810 1134C839.823 1134 864 1109.82 864 1080C864 1050.18 839.823 1026 810 1026C780.177 1026 756 1050.18 756 1080C756 1109.82 780.177 1134 810 1134Z" fill="#3AD454"/>
</g>
<g clip-path="url(#clip9_40_3888)">
<path d="M972 0H864V1080H972V0Z" fill="#0E4429"/>
<path d="M918 54C947.823 54 972 29.8234 972 3.8147e-06C972 -29.8234 947.823 -54 918 -54C888.177 -54 864 -29.8234 864 3.8147e-06C864 29.8234 888.177 54 918 54Z" fill="#0E4429"/>
<path d="M864 108C893.823 108 918 83.8234 918 54C918 24.1766 893.823 0 864 0C834.177 0 810 24.1766 810 54C810 83.8234 834.177 108 864 108Z" fill="#0E4B2C"/>
<path d="M972 108C1001.82 108 1026 83.8234 1026 54C1026 24.1766 1001.82 0 972 0C942.177 0 918 24.1766 918 54C918 83.8234 942.177 108 972 108Z" fill="#0E4B2C"/>
<path d="M918 162C947.823 162 972 137.823 972 108C972 78.1766 947.823 54 918 54C888.177 54 864 78.1766 864 108C864 137.823 888.177 162 918 162Z" fill="#0D512F"/>
<path d="M864 216C893.823 216 918 191.823 918 162C918 132.177 893.823 108 864 108C834.177 108 810 132.177 810 162C810 191.823 834.177 216 864 216Z" fill="#0D5832"/>
<path d="M972 216C1001.82 216 1026 191.823 1026 162C1026 132.177 1001.82 108 972 108C942.177 108 918 132.177 918 162C918 191.823 942.177 216 972 216Z" fill="#0D5832"/>
<path d="M918 270C947.823 270 972 245.823 972 216C972 186.177 947.823 162 918 162C888.177 162 864 186.177 864 216C864 245.823 888.177 270 918 270Z" fill="#0D5F35"/>
<path d="M864 324C893.823 324 918 299.823 918 270C918 240.177 893.823 216 864 216C834.177 216 810 240.177 810 270C810 299.823 834.177 324 864 324Z" fill="#0D6637"/>
<path d="M972 324C1001.82 324 1026 299.823 1026 270C1026 240.177 1001.82 216 972 216C942.177 216 918 240.177 918 270C918 299.823 942.177 324 972 324Z" fill="#0D6637"/>
<path d="M918 378C947.823 378 972 353.823 972 324C972 294.177 947.823 270 918 270C888.177 270 864 294.177 864 324C864 353.823 888.177 378 918 378Z" fill="#0D6D3A"/>
<path d="M864 432C893.823 432 918 407.823 918 378C918 348.177 893.823 324 864 324C834.177 324 810 348.177 810 378C810 407.823 834.177 432 864 432Z" fill="#0D743D"/>
<path d="M972 432C1001.82 432 1026 407.823 1026 378C1026 348.177 1001.82 324 972 324C942.177 324 918 348.177 918 378C918 407.823 942.177 432 972 432Z" fill="#0D743D"/>
<path d="M918 486C947.823 486 972 461.823 972 432C972 402.177 947.823 378 918 378C888.177 378 864 402.177 864 432C864 461.823 888.177 486 918 486Z" fill="#0E7B3F"/>
<path d="M864 540C893.823 540 918 515.823 918 486C918 456.177 893.823 432 864 432C834.177 432 810 456.177 810 486C810 515.823 834.177 540 864 540Z" fill="#108241"/>
<path d="M972 540C1001.82 540 1026 515.823 1026 486C1026 456.177 1001.82 432 972 432C942.177 432 918 456.177 918 486C918 515.823 942.177 540 972 540Z" fill="#108241"/>
<path d="M918 594C947.823 594 972 569.823 972 540C972 510.177 947.823 486 918 486C888.177 486 864 510.177 864 540C864 569.823 888.177 594 918 594Z" fill="#128944"/>
<path d="M864 648C893.823 648 918 623.823 918 594C918 564.177 893.823 540 864 540C834.177 540 810 564.177 810 594C810 623.823 834.177 648 864 648Z" fill="#149046"/>
<path d="M972 648C1001.82 648 1026 623.823 1026 594C1026 564.177 1001.82 540 972 540C942.177 540 918 564.177 918 594C918 623.823 942.177 648 972 648Z" fill="#149046"/>
<path d="M918 702C947.823 702 972 677.823 972 648C972 618.177 947.823 594 918 594C888.177 594 864 618.177 864 648C864 677.823 888.177 702 918 702Z" fill="#179848"/>
<path d="M864 756C893.823 756 918 731.823 918 702C918 672.177 893.823 648 864 648C834.177 648 810 672.177 810 702C810 731.823 834.177 756 864 756Z" fill="#1A9F4A"/>
<path d="M972 756C1001.82 756 1026 731.823 1026 702C1026 672.177 1001.82 648 972 648C942.177 648 918 672.177 918 702C918 731.823 942.177 756 972 756Z" fill="#1A9F4A"/>
<path d="M918 810C947.823 810 972 785.823 972 756C972 726.177 947.823 702 918 702C888.177 702 864 726.177 864 756C864 785.823 888.177 810 918 810Z" fill="#1EA74C"/>
<path d="M864 864C893.823 864 918 839.823 918 810C918 780.177 893.823 756 864 756C834.177 756 810 780.177 810 810C810 839.823 834.177 864 864 864Z" fill="#22AE4D"/>
<path d="M972 864C1001.82 864 1026 839.823 1026 810C1026 780.177 1001.82 756 972 756C942.177 756 918 780.177 918 810C918 839.823 942.177 864 972 864Z" fill="#22AE4D"/>
<path d="M918 918C947.823 918 972 893.823 972 864C972 834.177 947.823 810 918 810C888.177 810 864 834.177 864 864C864 893.823 888.177 918 918 918Z" fill="#26B64F"/>
<path d="M864 972C893.823 972 918 947.823 918 918C918 888.177 893.823 864 864 864C834.177 864 810 888.177 810 918C810 947.823 834.177 972 864 972Z" fill="#2BBD50"/>
<path d="M972 972C1001.82 972 1026 947.823 1026 918C1026 888.177 1001.82 864 972 864C942.177 864 918 888.177 918 918C918 947.823 942.177 972 972 972Z" fill="#2BBD50"/>
<path d="M918 1026C947.823 1026 972 1001.82 972 972C972 942.177 947.823 918 918 918C888.177 918 864 942.177 864 972C864 1001.82 888.177 1026 918 1026Z" fill="#30C552"/>
<path d="M864 1080C893.823 1080 918 1055.82 918 1026C918 996.177 893.823 972 864 972C834.177 972 810 996.177 810 1026C810 1055.82 834.177 1080 864 1080Z" fill="#35CC53"/>
<path d="M972 1080C1001.82 1080 1026 1055.82 1026 1026C1026 996.177 1001.82 972 972 972C942.177 972 918 996.177 918 1026C918 1055.82 942.177 1080 972 1080Z" fill="#35CC53"/>
<path d="M918 1134C947.823 1134 972 1109.82 972 1080C972 1050.18 947.823 1026 918 1026C888.177 1026 864 1050.18 864 1080C864 1109.82 888.177 1134 918 1134Z" fill="#3AD454"/>
</g>
<g clip-path="url(#clip10_40_3888)">
<path d="M1080 0H972V1080H1080V0Z" fill="#0E4429"/>
<path d="M1026 54C1055.82 54 1080 29.8234 1080 3.8147e-06C1080 -29.8234 1055.82 -54 1026 -54C996.177 -54 972 -29.8234 972 3.8147e-06C972 29.8234 996.177 54 1026 54Z" fill="#0E4429"/>
<path d="M972 108C1001.82 108 1026 83.8234 1026 54C1026 24.1766 1001.82 0 972 0C942.177 0 918 24.1766 918 54C918 83.8234 942.177 108 972 108Z" fill="#0E4B2C"/>
<path d="M1080 108C1109.82 108 1134 83.8234 1134 54C1134 24.1766 1109.82 0 1080 0C1050.18 0 1026 24.1766 1026 54C1026 83.8234 1050.18 108 1080 108Z" fill="#0E4B2C"/>
<path d="M1026 162C1055.82 162 1080 137.823 1080 108C1080 78.1766 1055.82 54 1026 54C996.177 54 972 78.1766 972 108C972 137.823 996.177 162 1026 162Z" fill="#0D512F"/>
<path d="M972 216C1001.82 216 1026 191.823 1026 162C1026 132.177 1001.82 108 972 108C942.177 108 918 132.177 918 162C918 191.823 942.177 216 972 216Z" fill="#0D5832"/>
<path d="M1080 216C1109.82 216 1134 191.823 1134 162C1134 132.177 1109.82 108 1080 108C1050.18 108 1026 132.177 1026 162C1026 191.823 1050.18 216 1080 216Z" fill="#0D5832"/>
<path d="M1026 270C1055.82 270 1080 245.823 1080 216C1080 186.177 1055.82 162 1026 162C996.177 162 972 186.177 972 216C972 245.823 996.177 270 1026 270Z" fill="#0D5F35"/>
<path d="M972 324C1001.82 324 1026 299.823 1026 270C1026 240.177 1001.82 216 972 216C942.177 216 918 240.177 918 270C918 299.823 942.177 324 972 324Z" fill="#0D6637"/>
<path d="M1080 324C1109.82 324 1134 299.823 1134 270C1134 240.177 1109.82 216 1080 216C1050.18 216 1026 240.177 1026 270C1026 299.823 1050.18 324 1080 324Z" fill="#0D6637"/>
<path d="M1026 378C1055.82 378 1080 353.823 1080 324C1080 294.177 1055.82 270 1026 270C996.177 270 972 294.177 972 324C972 353.823 996.177 378 1026 378Z" fill="#0D6D3A"/>
<path d="M972 432C1001.82 432 1026 407.823 1026 378C1026 348.177 1001.82 324 972 324C942.177 324 918 348.177 918 378C918 407.823 942.177 432 972 432Z" fill="#0D743D"/>
<path d="M1080 432C1109.82 432 1134 407.823 1134 378C1134 348.177 1109.82 324 1080 324C1050.18 324 1026 348.177 1026 378C1026 407.823 1050.18 432 1080 432Z" fill="#0D743D"/>
<path d="M1026 486C1055.82 486 1080 461.823 1080 432C1080 402.177 1055.82 378 1026 378C996.177 378 972 402.177 972 432C972 461.823 996.177 486 1026 486Z" fill="#0E7B3F"/>
<path d="M972 540C1001.82 540 1026 515.823 1026 486C1026 456.177 1001.82 432 972 432C942.177 432 918 456.177 918 486C918 515.823 942.177 540 972 540Z" fill="#108241"/>
<path d="M1080 540C1109.82 540 1134 515.823 1134 486C1134 456.177 1109.82 432 1080 432C1050.18 432 1026 456.177 1026 486C1026 515.823 1050.18 540 1080 540Z" fill="#108241"/>
<path d="M1026 594C1055.82 594 1080 569.823 1080 540C1080 510.177 1055.82 486 1026 486C996.177 486 972 510.177 972 540C972 569.823 996.177 594 1026 594Z" fill="#128944"/>
<path d="M972 648C1001.82 648 1026 623.823 1026 594C1026 564.177 1001.82 540 972 540C942.177 540 918 564.177 918 594C918 623.823 942.177 648 972 648Z" fill="#149046"/>
<path d="M1080 648C1109.82 648 1134 623.823 1134 594C1134 564.177 1109.82 540 1080 540C1050.18 540 1026 564.177 1026 594C1026 623.823 1050.18 648 1080 648Z" fill="#149046"/>
<path d="M1026 702C1055.82 702 1080 677.823 1080 648C1080 618.177 1055.82 594 1026 594C996.177 594 972 618.177 972 648C972 677.823 996.177 702 1026 702Z" fill="#179848"/>
<path d="M972 756C1001.82 756 1026 731.823 1026 702C1026 672.177 1001.82 648 972 648C942.177 648 918 672.177 918 702C918 731.823 942.177 756 972 756Z" fill="#1A9F4A"/>
<path d="M1080 756C1109.82 756 1134 731.823 1134 702C1134 672.177 1109.82 648 1080 648C1050.18 648 1026 672.177 1026 702C1026 731.823 1050.18 756 1080 756Z" fill="#1A9F4A"/>
<path d="M1026 810C1055.82 810 1080 785.823 1080 756C1080 726.177 1055.82 702 1026 702C996.177 702 972 726.177 972 756C972 785.823 996.177 810 1026 810Z" fill="#1EA74C"/>
<path d="M972 864C1001.82 864 1026 839.823 1026 810C1026 780.177 1001.82 756 972 756C942.177 756 918 780.177 918 810C918 839.823 942.177 864 972 864Z" fill="#22AE4D"/>
<path d="M1080 864C1109.82 864 1134 839.823 1134 810C1134 780.177 1109.82 756 1080 756C1050.18 756 1026 780.177 1026 810C1026 839.823 1050.18 864 1080 864Z" fill="#22AE4D"/>
<path d="M1026 918C1055.82 918 1080 893.823 1080 864C1080 834.177 1055.82 810 1026 810C996.177 810 972 834.177 972 864C972 893.823 996.177 918 1026 918Z" fill="#26B64F"/>
<path d="M972 972C1001.82 972 1026 947.823 1026 918C1026 888.177 1001.82 864 972 864C942.177 864 918 888.177 918 918C918 947.823 942.177 972 972 972Z" fill="#2BBD50"/>
<path d="M1080 972C1109.82 972 1134 947.823 1134 918C1134 888.177 1109.82 864 1080 864C1050.18 864 1026 888.177 1026 918C1026 947.823 1050.18 972 1080 972Z" fill="#2BBD50"/>
<path d="M1026 1026C1055.82 1026 1080 1001.82 1080 972C1080 942.177 1055.82 918 1026 918C996.177 918 972 942.177 972 972C972 1001.82 996.177 1026 1026 1026Z" fill="#30C552"/>
<path d="M972 1080C1001.82 1080 1026 1055.82 1026 1026C1026 996.177 1001.82 972 972 972C942.177 972 918 996.177 918 1026C918 1055.82 942.177 1080 972 1080Z" fill="#35CC53"/>
<path d="M1080 1080C1109.82 1080 1134 1055.82 1134 1026C1134 996.177 1109.82 972 1080 972C1050.18 972 1026 996.177 1026 1026C1026 1055.82 1050.18 1080 1080 1080Z" fill="#35CC53"/>
<path d="M1026 1134C1055.82 1134 1080 1109.82 1080 1080C1080 1050.18 1055.82 1026 1026 1026C996.177 1026 972 1050.18 972 1080C972 1109.82 996.177 1134 1026 1134Z" fill="#3AD454"/>
</g>
</g>
<defs>
<clipPath id="clip0_40_3888">
<rect width="1080" height="1080" fill="white"/>
</clipPath>
<clipPath id="clip1_40_3888">
<rect width="108" height="1080" fill="white"/>
</clipPath>
<clipPath id="clip2_40_3888">
<rect width="108" height="1080" fill="white" transform="translate(108)"/>
</clipPath>
<clipPath id="clip3_40_3888">
<rect width="108" height="1080" fill="white" transform="translate(216)"/>
</clipPath>
<clipPath id="clip4_40_3888">
<rect width="108" height="1080" fill="white" transform="translate(324)"/>
</clipPath>
<clipPath id="clip5_40_3888">
<rect width="108" height="1080" fill="white" transform="translate(432)"/>
</clipPath>
<clipPath id="clip6_40_3888">
<rect width="108" height="1080" fill="white" transform="translate(540)"/>
</clipPath>
<clipPath id="clip7_40_3888">
<rect width="108" height="1080" fill="white" transform="translate(648)"/>
</clipPath>
<clipPath id="clip8_40_3888">
<rect width="108" height="1080" fill="white" transform="translate(756)"/>
</clipPath>
<clipPath id="clip9_40_3888">
<rect width="108" height="1080" fill="white" transform="translate(864)"/>
</clipPath>
<clipPath id="clip10_40_3888">
<rect width="108" height="1080" fill="white" transform="translate(972)"/>
</clipPath>
</defs>
</svg>
