<svg viewBox="0 0 1080 1080" fill="none" xmlns="http://www.w3.org/2000/svg">
<g clip-path="url(#clip0_40_4510)">
<rect width="1080" height="1080" fill="white"/>
<g clip-path="url(#clip1_40_4510)">
<path d="M340 -60H-60V340H340V-60Z" fill="#3AD454"/>
<path d="M324.5 54.5L458.5 70.45M403.5 380L305.5 308.5L200 270L94.5 209L-40 239.5M-40 239.5L87.5 322L3.25 379.75L-40 239.5ZM-40 239.5L-158.5 186.5L-9 131L-75.5 54.5L3.25 -20.25L-94.5 -91.5" stroke="#26A642" stroke-width="0.5"/>
<path d="M-75.5 54.5L58.5 70.5L135 131L241.5 186.5L94.25 208.75L-9.25 130.75M125 392.5L87.5 322" stroke="#26A642" stroke-width="0.5"/>
<path d="M200 270L229 361L305.5 308.5L360 239.5L241.5 186.5L200 270ZM200 270L87.5 322L94.5 209L135 131L209.5 74.5L324.5 54.5L228.75 -39.25L125 -7.5L87.5 -78L3.25 -20.25L58.5 70.5L-9 131L-40 239.5L-94.5 308.5L3.5 380" stroke="#26A642" stroke-width="0.5"/>
<path d="M200 -130L229.25 -38.75L305.5 -91.5M241.5 186.5L209.5 74.5M209.5 74.5L58.5 70.5L125 -7.5M209.5 74.5L391 131M135 131H-9" stroke="#26A642" stroke-width="0.5"/>
<path d="M-171 -39L3.25 -20.25L125 -7.5L209.5 74.5L228.75 -39.25M228.75 -39.25L403.5 -20L324.5 54.5L391 131L241.5 186.5L305.5 308.5M228.75 -39.25L87.5 -78M229 361L87.5 322M-40 -160.5L3.5 -20M-9 131L-190.5 74.5" stroke="#26A642" stroke-width="0.5"/>
<path d="M324.5 57C325.881 57 327 55.8807 327 54.5C327 53.1193 325.881 52 324.5 52C323.119 52 322 53.1193 322 54.5C322 55.8807 323.119 57 324.5 57Z" fill="#26A642"/>
<path d="M209.5 77C210.881 77 212 75.8807 212 74.5C212 73.1193 210.881 72 209.5 72C208.119 72 207 73.1193 207 74.5C207 75.8807 208.119 77 209.5 77Z" fill="#26A642"/>
<path d="M241.5 189C242.881 189 244 187.881 244 186.5C244 185.119 242.881 184 241.5 184C240.119 184 239 185.119 239 186.5C239 187.881 240.119 189 241.5 189Z" fill="#26A642"/>
<path d="M305.5 311C306.881 311 308 309.881 308 308.5C308 307.119 306.881 306 305.5 306C304.119 306 303 307.119 303 308.5C303 309.881 304.119 311 305.5 311Z" fill="#26A642"/>
<path d="M200 272.5C201.381 272.5 202.5 271.381 202.5 270C202.5 268.619 201.381 267.5 200 267.5C198.619 267.5 197.5 268.619 197.5 270C197.5 271.381 198.619 272.5 200 272.5Z" fill="#26A642"/>
<path d="M94.5 211.5C95.8807 211.5 97 210.381 97 209C97 207.619 95.8807 206.5 94.5 206.5C93.1193 206.5 92 207.619 92 209C92 210.381 93.1193 211.5 94.5 211.5Z" fill="#26A642"/>
<path d="M87.5 324.5C88.8807 324.5 90 323.381 90 322C90 320.619 88.8807 319.5 87.5 319.5C86.1193 319.5 85 320.619 85 322C85 323.381 86.1193 324.5 87.5 324.5Z" fill="#26A642"/>
<path d="M58.5 73C59.8807 73 61 71.8807 61 70.5C61 69.1193 59.8807 68 58.5 68C57.1193 68 56 69.1193 56 70.5C56 71.8807 57.1193 73 58.5 73Z" fill="#26A642"/>
<path d="M135 133.5C136.381 133.5 137.5 132.381 137.5 131C137.5 129.619 136.381 128.5 135 128.5C133.619 128.5 132.5 129.619 132.5 131C132.5 132.381 133.619 133.5 135 133.5Z" fill="#26A642"/>
</g>
<g clip-path="url(#clip2_40_4510)">
<path d="M740 -60H340V340H740V-60Z" fill="#3AD454"/>
<path d="M724.5 54.5L858.5 70.45M803.5 380L705.5 308.5L600 270L494.5 209L360 239.5M360 239.5L487.5 322L403.25 379.75L360 239.5ZM360 239.5L241.5 186.5L391 131L324.5 54.5L403.25 -20.25L305.5 -91.5" stroke="#26A642" stroke-width="0.5"/>
<path d="M324.5 54.5L458.5 70.5L535 131L641.5 186.5L494.25 208.75L390.75 130.75M525 392.5L487.5 322" stroke="#26A642" stroke-width="0.5"/>
<path d="M600 270L629 361L705.5 308.5L760 239.5L641.5 186.5L600 270ZM600 270L487.5 322L494.5 209L535 131L609.5 74.5L724.5 54.5L628.75 -39.25L525 -7.5L487.5 -78L403.25 -20.25L458.5 70.5L391 131L360 239.5L305.5 308.5L403.5 380" stroke="#26A642" stroke-width="0.5"/>
<path d="M600 -130L629.25 -38.75L705.5 -91.5M641.5 186.5L609.5 74.5M609.5 74.5L458.5 70.5L525 -7.5M609.5 74.5L791 131M535 131H391" stroke="#26A642" stroke-width="0.5"/>
<path d="M229 -39L403.25 -20.25L525 -7.5L609.5 74.5L628.75 -39.25M628.75 -39.25L803.5 -20L724.5 54.5L791 131L641.5 186.5L705.5 308.5M628.75 -39.25L487.5 -78M629 361L487.5 322M360 -160.5L403.5 -20M391 131L209.5 74.5" stroke="#26A642" stroke-width="0.5"/>
<path d="M724.5 57C725.881 57 727 55.8807 727 54.5C727 53.1193 725.881 52 724.5 52C723.119 52 722 53.1193 722 54.5C722 55.8807 723.119 57 724.5 57Z" fill="#26A642"/>
<path d="M609.5 77C610.881 77 612 75.8807 612 74.5C612 73.1193 610.881 72 609.5 72C608.119 72 607 73.1193 607 74.5C607 75.8807 608.119 77 609.5 77Z" fill="#26A642"/>
<path d="M641.5 189C642.881 189 644 187.881 644 186.5C644 185.119 642.881 184 641.5 184C640.119 184 639 185.119 639 186.5C639 187.881 640.119 189 641.5 189Z" fill="#26A642"/>
<path d="M705.5 311C706.881 311 708 309.881 708 308.5C708 307.119 706.881 306 705.5 306C704.119 306 703 307.119 703 308.5C703 309.881 704.119 311 705.5 311Z" fill="#26A642"/>
<path d="M600 272.5C601.381 272.5 602.5 271.381 602.5 270C602.5 268.619 601.381 267.5 600 267.5C598.619 267.5 597.5 268.619 597.5 270C597.5 271.381 598.619 272.5 600 272.5Z" fill="#26A642"/>
<path d="M494.5 211.5C495.881 211.5 497 210.381 497 209C497 207.619 495.881 206.5 494.5 206.5C493.119 206.5 492 207.619 492 209C492 210.381 493.119 211.5 494.5 211.5Z" fill="#26A642"/>
<path d="M487.5 324.5C488.881 324.5 490 323.381 490 322C490 320.619 488.881 319.5 487.5 319.5C486.119 319.5 485 320.619 485 322C485 323.381 486.119 324.5 487.5 324.5Z" fill="#26A642"/>
<path d="M360 242C361.381 242 362.5 240.881 362.5 239.5C362.5 238.119 361.381 237 360 237C358.619 237 357.5 238.119 357.5 239.5C357.5 240.881 358.619 242 360 242Z" fill="#26A642"/>
<path d="M391 133.5C392.381 133.5 393.5 132.381 393.5 131C393.5 129.619 392.381 128.5 391 128.5C389.619 128.5 388.5 129.619 388.5 131C388.5 132.381 389.619 133.5 391 133.5Z" fill="#26A642"/>
<path d="M458.5 73C459.881 73 461 71.8807 461 70.5C461 69.1193 459.881 68 458.5 68C457.119 68 456 69.1193 456 70.5C456 71.8807 457.119 73 458.5 73Z" fill="#26A642"/>
<path d="M535 133.5C536.381 133.5 537.5 132.381 537.5 131C537.5 129.619 536.381 128.5 535 128.5C533.619 128.5 532.5 129.619 532.5 131C532.5 132.381 533.619 133.5 535 133.5Z" fill="#26A642"/>
</g>
<g clip-path="url(#clip3_40_4510)">
<path d="M1140 -60H740V340H1140V-60Z" fill="#3AD454"/>
<path d="M1124.5 54.5L1258.5 70.45M1203.5 380L1105.5 308.5L1000 270L894.5 209L760 239.5M760 239.5L887.5 322L803.25 379.75L760 239.5ZM760 239.5L641.5 186.5L791 131L724.5 54.5L803.25 -20.25L705.5 -91.5" stroke="#26A642" stroke-width="0.5"/>
<path d="M724.5 54.5L858.5 70.5L935 131L1041.5 186.5L894.25 208.75L790.75 130.75M925 392.5L887.5 322" stroke="#26A642" stroke-width="0.5"/>
<path d="M1000 270L1029 361L1105.5 308.5L1160 239.5L1041.5 186.5L1000 270ZM1000 270L887.5 322L894.5 209L935 131L1009.5 74.5L1124.5 54.5L1028.75 -39.25L925 -7.5L887.5 -78L803.25 -20.25L858.5 70.5L791 131L760 239.5L705.5 308.5L803.5 380" stroke="#26A642" stroke-width="0.5"/>
<path d="M1000 -130L1029.25 -38.75L1105.5 -91.5M1041.5 186.5L1009.5 74.5M1009.5 74.5L858.5 70.5L925 -7.5M1009.5 74.5L1191 131M935 131H791" stroke="#26A642" stroke-width="0.5"/>
<path d="M629 -39L803.25 -20.25L925 -7.5L1009.5 74.5L1028.75 -39.25M1028.75 -39.25L1203.5 -20L1124.5 54.5L1191 131L1041.5 186.5L1105.5 308.5M1028.75 -39.25L887.5 -78M1029 361L887.5 322M760 -160.5L803.5 -20M791 131L609.5 74.5" stroke="#26A642" stroke-width="0.5"/>
<path d="M1009.5 77C1010.88 77 1012 75.8807 1012 74.5C1012 73.1193 1010.88 72 1009.5 72C1008.12 72 1007 73.1193 1007 74.5C1007 75.8807 1008.12 77 1009.5 77Z" fill="#26A642"/>
<path d="M1041.5 189C1042.88 189 1044 187.881 1044 186.5C1044 185.119 1042.88 184 1041.5 184C1040.12 184 1039 185.119 1039 186.5C1039 187.881 1040.12 189 1041.5 189Z" fill="#26A642"/>
<path d="M1000 272.5C1001.38 272.5 1002.5 271.381 1002.5 270C1002.5 268.619 1001.38 267.5 1000 267.5C998.619 267.5 997.5 268.619 997.5 270C997.5 271.381 998.619 272.5 1000 272.5Z" fill="#26A642"/>
<path d="M894.5 211.5C895.881 211.5 897 210.381 897 209C897 207.619 895.881 206.5 894.5 206.5C893.119 206.5 892 207.619 892 209C892 210.381 893.119 211.5 894.5 211.5Z" fill="#26A642"/>
<path d="M887.5 324.5C888.881 324.5 890 323.381 890 322C890 320.619 888.881 319.5 887.5 319.5C886.119 319.5 885 320.619 885 322C885 323.381 886.119 324.5 887.5 324.5Z" fill="#26A642"/>
<path d="M760 242C761.381 242 762.5 240.881 762.5 239.5C762.5 238.119 761.381 237 760 237C758.619 237 757.5 238.119 757.5 239.5C757.5 240.881 758.619 242 760 242Z" fill="#26A642"/>
<path d="M791 133.5C792.381 133.5 793.5 132.381 793.5 131C793.5 129.619 792.381 128.5 791 128.5C789.619 128.5 788.5 129.619 788.5 131C788.5 132.381 789.619 133.5 791 133.5Z" fill="#26A642"/>
<path d="M858.5 73C859.881 73 861 71.8807 861 70.5C861 69.1193 859.881 68 858.5 68C857.119 68 856 69.1193 856 70.5C856 71.8807 857.119 73 858.5 73Z" fill="#26A642"/>
<path d="M935 133.5C936.381 133.5 937.5 132.381 937.5 131C937.5 129.619 936.381 128.5 935 128.5C933.619 128.5 932.5 129.619 932.5 131C932.5 132.381 933.619 133.5 935 133.5Z" fill="#26A642"/>
</g>
<g clip-path="url(#clip4_40_4510)">
<path d="M340 340H-60V740H340V340Z" fill="#3AD454"/>
<path d="M324.5 454.5L458.5 470.45M403.5 780L305.5 708.5L200 670L94.5 609L-40 639.5M-40 639.5L87.5 722L3.25 779.75L-40 639.5ZM-40 639.5L-158.5 586.5L-9 531L-75.5 454.5L3.25 379.75L-94.5 308.5" stroke="#26A642" stroke-width="0.5"/>
<path d="M-75.5 454.5L58.5 470.5L135 531L241.5 586.5L94.25 608.75L-9.25 530.75M125 792.5L87.5 722" stroke="#26A642" stroke-width="0.5"/>
<path d="M200 670L229 761L305.5 708.5L360 639.5L241.5 586.5L200 670ZM200 670L87.5 722L94.5 609L135 531L209.5 474.5L324.5 454.5L228.75 360.75L125 392.5L87.5 322L3.25 379.75L58.5 470.5L-9 531L-40 639.5L-94.5 708.5L3.5 780" stroke="#26A642" stroke-width="0.5"/>
<path d="M200 270L229.25 361.25L305.5 308.5M241.5 586.5L209.5 474.5M209.5 474.5L58.5 470.5L125 392.5M209.5 474.5L391 531M135 531H-9" stroke="#26A642" stroke-width="0.5"/>
<path d="M-171 361L3.25 379.75L125 392.5L209.5 474.5L228.75 360.75M228.75 360.75L403.5 380L324.5 454.5L391 531L241.5 586.5L305.5 708.5M228.75 360.75L87.5 322M229 761L87.5 722M-40 239.5L3.5 380M-9 531L-190.5 474.5" stroke="#26A642" stroke-width="0.5"/>
<path d="M324.5 457C325.881 457 327 455.881 327 454.5C327 453.119 325.881 452 324.5 452C323.119 452 322 453.119 322 454.5C322 455.881 323.119 457 324.5 457Z" fill="#26A642"/>
<path d="M209.5 477C210.881 477 212 475.881 212 474.5C212 473.119 210.881 472 209.5 472C208.119 472 207 473.119 207 474.5C207 475.881 208.119 477 209.5 477Z" fill="#26A642"/>
<path d="M241.5 589C242.881 589 244 587.881 244 586.5C244 585.119 242.881 584 241.5 584C240.119 584 239 585.119 239 586.5C239 587.881 240.119 589 241.5 589Z" fill="#26A642"/>
<path d="M305.5 711C306.881 711 308 709.881 308 708.5C308 707.119 306.881 706 305.5 706C304.119 706 303 707.119 303 708.5C303 709.881 304.119 711 305.5 711Z" fill="#26A642"/>
<path d="M200 672.5C201.381 672.5 202.5 671.381 202.5 670C202.5 668.619 201.381 667.5 200 667.5C198.619 667.5 197.5 668.619 197.5 670C197.5 671.381 198.619 672.5 200 672.5Z" fill="#26A642"/>
<path d="M94.5 611.5C95.8807 611.5 97 610.381 97 609C97 607.619 95.8807 606.5 94.5 606.5C93.1193 606.5 92 607.619 92 609C92 610.381 93.1193 611.5 94.5 611.5Z" fill="#26A642"/>
<path d="M87.5 724.5C88.8807 724.5 90 723.381 90 722C90 720.619 88.8807 719.5 87.5 719.5C86.1193 719.5 85 720.619 85 722C85 723.381 86.1193 724.5 87.5 724.5Z" fill="#26A642"/>
<path d="M3.5 382.5C4.88071 382.5 6 381.381 6 380C6 378.619 4.88071 377.5 3.5 377.5C2.11929 377.5 1 378.619 1 380C1 381.381 2.11929 382.5 3.5 382.5Z" fill="#26A642"/>
<path d="M125 395C126.381 395 127.5 393.881 127.5 392.5C127.5 391.119 126.381 390 125 390C123.619 390 122.5 391.119 122.5 392.5C122.5 393.881 123.619 395 125 395Z" fill="#26A642"/>
<path d="M229 363.5C230.381 363.5 231.5 362.381 231.5 361C231.5 359.619 230.381 358.5 229 358.5C227.619 358.5 226.5 359.619 226.5 361C226.5 362.381 227.619 363.5 229 363.5Z" fill="#26A642"/>
<path d="M58.5 473C59.8807 473 61 471.881 61 470.5C61 469.119 59.8807 468 58.5 468C57.1193 468 56 469.119 56 470.5C56 471.881 57.1193 473 58.5 473Z" fill="#26A642"/>
<path d="M135 533.5C136.381 533.5 137.5 532.381 137.5 531C137.5 529.619 136.381 528.5 135 528.5C133.619 528.5 132.5 529.619 132.5 531C132.5 532.381 133.619 533.5 135 533.5Z" fill="#26A642"/>
</g>
<g clip-path="url(#clip5_40_4510)">
<path d="M740 340H340V740H740V340Z" fill="#3AD454"/>
<path d="M724.5 454.5L858.5 470.45M803.5 780L705.5 708.5L600 670L494.5 609L360 639.5M360 639.5L487.5 722L403.25 779.75L360 639.5ZM360 639.5L241.5 586.5L391 531L324.5 454.5L403.25 379.75L305.5 308.5" stroke="#26A642" stroke-width="0.5"/>
<path d="M324.5 454.5L458.5 470.5L535 531L641.5 586.5L494.25 608.75L390.75 530.75M525 792.5L487.5 722" stroke="#26A642" stroke-width="0.5"/>
<path d="M600 670L629 761L705.5 708.5L760 639.5L641.5 586.5L600 670ZM600 670L487.5 722L494.5 609L535 531L609.5 474.5L724.5 454.5L628.75 360.75L525 392.5L487.5 322L403.25 379.75L458.5 470.5L391 531L360 639.5L305.5 708.5L403.5 780" stroke="#26A642" stroke-width="0.5"/>
<path d="M600 270L629.25 361.25L705.5 308.5M641.5 586.5L609.5 474.5M609.5 474.5L458.5 470.5L525 392.5M609.5 474.5L791 531M535 531H391" stroke="#26A642" stroke-width="0.5"/>
<path d="M229 361L403.25 379.75L525 392.5L609.5 474.5L628.75 360.75M628.75 360.75L803.5 380L724.5 454.5L791 531L641.5 586.5L705.5 708.5M628.75 360.75L487.5 322M629 761L487.5 722M360 239.5L403.5 380M391 531L209.5 474.5" stroke="#26A642" stroke-width="0.5"/>
<path d="M724.5 457C725.881 457 727 455.881 727 454.5C727 453.119 725.881 452 724.5 452C723.119 452 722 453.119 722 454.5C722 455.881 723.119 457 724.5 457Z" fill="#26A642"/>
<path d="M609.5 477C610.881 477 612 475.881 612 474.5C612 473.119 610.881 472 609.5 472C608.119 472 607 473.119 607 474.5C607 475.881 608.119 477 609.5 477Z" fill="#26A642"/>
<path d="M641.5 589C642.881 589 644 587.881 644 586.5C644 585.119 642.881 584 641.5 584C640.119 584 639 585.119 639 586.5C639 587.881 640.119 589 641.5 589Z" fill="#26A642"/>
<path d="M705.5 711C706.881 711 708 709.881 708 708.5C708 707.119 706.881 706 705.5 706C704.119 706 703 707.119 703 708.5C703 709.881 704.119 711 705.5 711Z" fill="#26A642"/>
<path d="M600 672.5C601.381 672.5 602.5 671.381 602.5 670C602.5 668.619 601.381 667.5 600 667.5C598.619 667.5 597.5 668.619 597.5 670C597.5 671.381 598.619 672.5 600 672.5Z" fill="#26A642"/>
<path d="M494.5 611.5C495.881 611.5 497 610.381 497 609C497 607.619 495.881 606.5 494.5 606.5C493.119 606.5 492 607.619 492 609C492 610.381 493.119 611.5 494.5 611.5Z" fill="#26A642"/>
<path d="M487.5 724.5C488.881 724.5 490 723.381 490 722C490 720.619 488.881 719.5 487.5 719.5C486.119 719.5 485 720.619 485 722C485 723.381 486.119 724.5 487.5 724.5Z" fill="#26A642"/>
<path d="M360 642C361.381 642 362.5 640.881 362.5 639.5C362.5 638.119 361.381 637 360 637C358.619 637 357.5 638.119 357.5 639.5C357.5 640.881 358.619 642 360 642Z" fill="#26A642"/>
<path d="M391 533.5C392.381 533.5 393.5 532.381 393.5 531C393.5 529.619 392.381 528.5 391 528.5C389.619 528.5 388.5 529.619 388.5 531C388.5 532.381 389.619 533.5 391 533.5Z" fill="#26A642"/>
<path d="M403.5 382.5C404.881 382.5 406 381.381 406 380C406 378.619 404.881 377.5 403.5 377.5C402.119 377.5 401 378.619 401 380C401 381.381 402.119 382.5 403.5 382.5Z" fill="#26A642"/>
<path d="M525 395C526.381 395 527.5 393.881 527.5 392.5C527.5 391.119 526.381 390 525 390C523.619 390 522.5 391.119 522.5 392.5C522.5 393.881 523.619 395 525 395Z" fill="#26A642"/>
<path d="M629 363.5C630.381 363.5 631.5 362.381 631.5 361C631.5 359.619 630.381 358.5 629 358.5C627.619 358.5 626.5 359.619 626.5 361C626.5 362.381 627.619 363.5 629 363.5Z" fill="#26A642"/>
<path d="M458.5 473C459.881 473 461 471.881 461 470.5C461 469.119 459.881 468 458.5 468C457.119 468 456 469.119 456 470.5C456 471.881 457.119 473 458.5 473Z" fill="#26A642"/>
<path d="M535 533.5C536.381 533.5 537.5 532.381 537.5 531C537.5 529.619 536.381 528.5 535 528.5C533.619 528.5 532.5 529.619 532.5 531C532.5 532.381 533.619 533.5 535 533.5Z" fill="#26A642"/>
</g>
<g clip-path="url(#clip6_40_4510)">
<path d="M1140 340H740V740H1140V340Z" fill="#3AD454"/>
<path d="M1124.5 454.5L1258.5 470.45M1203.5 780L1105.5 708.5L1000 670L894.5 609L760 639.5M760 639.5L887.5 722L803.25 779.75L760 639.5ZM760 639.5L641.5 586.5L791 531L724.5 454.5L803.25 379.75L705.5 308.5" stroke="#26A642" stroke-width="0.5"/>
<path d="M724.5 454.5L858.5 470.5L935 531L1041.5 586.5L894.25 608.75L790.75 530.75M925 792.5L887.5 722" stroke="#26A642" stroke-width="0.5"/>
<path d="M1000 670L1029 761L1105.5 708.5L1160 639.5L1041.5 586.5L1000 670ZM1000 670L887.5 722L894.5 609L935 531L1009.5 474.5L1124.5 454.5L1028.75 360.75L925 392.5L887.5 322L803.25 379.75L858.5 470.5L791 531L760 639.5L705.5 708.5L803.5 780" stroke="#26A642" stroke-width="0.5"/>
<path d="M1000 270L1029.25 361.25L1105.5 308.5M1041.5 586.5L1009.5 474.5M1009.5 474.5L858.5 470.5L925 392.5M1009.5 474.5L1191 531M935 531H791" stroke="#26A642" stroke-width="0.5"/>
<path d="M629 361L803.25 379.75L925 392.5L1009.5 474.5L1028.75 360.75M1028.75 360.75L1203.5 380L1124.5 454.5L1191 531L1041.5 586.5L1105.5 708.5M1028.75 360.75L887.5 322M1029 761L887.5 722M760 239.5L803.5 380M791 531L609.5 474.5" stroke="#26A642" stroke-width="0.5"/>
<path d="M1009.5 477C1010.88 477 1012 475.881 1012 474.5C1012 473.119 1010.88 472 1009.5 472C1008.12 472 1007 473.119 1007 474.5C1007 475.881 1008.12 477 1009.5 477Z" fill="#26A642"/>
<path d="M1041.5 589C1042.88 589 1044 587.881 1044 586.5C1044 585.119 1042.88 584 1041.5 584C1040.12 584 1039 585.119 1039 586.5C1039 587.881 1040.12 589 1041.5 589Z" fill="#26A642"/>
<path d="M1000 672.5C1001.38 672.5 1002.5 671.381 1002.5 670C1002.5 668.619 1001.38 667.5 1000 667.5C998.619 667.5 997.5 668.619 997.5 670C997.5 671.381 998.619 672.5 1000 672.5Z" fill="#26A642"/>
<path d="M894.5 611.5C895.881 611.5 897 610.381 897 609C897 607.619 895.881 606.5 894.5 606.5C893.119 606.5 892 607.619 892 609C892 610.381 893.119 611.5 894.5 611.5Z" fill="#26A642"/>
<path d="M887.5 724.5C888.881 724.5 890 723.381 890 722C890 720.619 888.881 719.5 887.5 719.5C886.119 719.5 885 720.619 885 722C885 723.381 886.119 724.5 887.5 724.5Z" fill="#26A642"/>
<path d="M760 642C761.381 642 762.5 640.881 762.5 639.5C762.5 638.119 761.381 637 760 637C758.619 637 757.5 638.119 757.5 639.5C757.5 640.881 758.619 642 760 642Z" fill="#26A642"/>
<path d="M791 533.5C792.381 533.5 793.5 532.381 793.5 531C793.5 529.619 792.381 528.5 791 528.5C789.619 528.5 788.5 529.619 788.5 531C788.5 532.381 789.619 533.5 791 533.5Z" fill="#26A642"/>
<path d="M803.5 382.5C804.881 382.5 806 381.381 806 380C806 378.619 804.881 377.5 803.5 377.5C802.119 377.5 801 378.619 801 380C801 381.381 802.119 382.5 803.5 382.5Z" fill="#26A642"/>
<path d="M925 395C926.381 395 927.5 393.881 927.5 392.5C927.5 391.119 926.381 390 925 390C923.619 390 922.5 391.119 922.5 392.5C922.5 393.881 923.619 395 925 395Z" fill="#26A642"/>
<path d="M1029 363.5C1030.38 363.5 1031.5 362.381 1031.5 361C1031.5 359.619 1030.38 358.5 1029 358.5C1027.62 358.5 1026.5 359.619 1026.5 361C1026.5 362.381 1027.62 363.5 1029 363.5Z" fill="#26A642"/>
<path d="M858.5 473C859.881 473 861 471.881 861 470.5C861 469.119 859.881 468 858.5 468C857.119 468 856 469.119 856 470.5C856 471.881 857.119 473 858.5 473Z" fill="#26A642"/>
<path d="M935 533.5C936.381 533.5 937.5 532.381 937.5 531C937.5 529.619 936.381 528.5 935 528.5C933.619 528.5 932.5 529.619 932.5 531C932.5 532.381 933.619 533.5 935 533.5Z" fill="#26A642"/>
</g>
<g clip-path="url(#clip7_40_4510)">
<path d="M340 740H-60V1140H340V740Z" fill="#3AD454"/>
<path d="M324.5 854.5L458.5 870.45M403.5 1180L305.5 1108.5L200 1070L94.5 1009L-40 1039.5M-40 1039.5L87.5 1122L3.25 1179.75L-40 1039.5ZM-40 1039.5L-158.5 986.5L-9 931L-75.5 854.5L3.25 779.75L-94.5 708.5" stroke="#26A642" stroke-width="0.5"/>
<path d="M-75.5 854.5L58.5 870.5L135 931L241.5 986.5L94.25 1008.75L-9.25 930.75M125 1192.5L87.5 1122" stroke="#26A642" stroke-width="0.5"/>
<path d="M200 1070L229 1161L305.5 1108.5L360 1039.5L241.5 986.5L200 1070ZM200 1070L87.5 1122L94.5 1009L135 931L209.5 874.5L324.5 854.5L228.75 760.75L125 792.5L87.5 722L3.25 779.75L58.5 870.5L-9 931L-40 1039.5L-94.5 1108.5L3.5 1180" stroke="#26A642" stroke-width="0.5"/>
<path d="M200 670L229.25 761.25L305.5 708.5M241.5 986.5L209.5 874.5M209.5 874.5L58.5 870.5L125 792.5M209.5 874.5L391 931M135 931H-9" stroke="#26A642" stroke-width="0.5"/>
<path d="M-171 761L3.25 779.75L125 792.5L209.5 874.5L228.75 760.75M228.75 760.75L403.5 780L324.5 854.5L391 931L241.5 986.5L305.5 1108.5M228.75 760.75L87.5 722M229 1161L87.5 1122M-40 639.5L3.5 780M-9 931L-190.5 874.5" stroke="#26A642" stroke-width="0.5"/>
<path d="M324.5 857C325.881 857 327 855.881 327 854.5C327 853.119 325.881 852 324.5 852C323.119 852 322 853.119 322 854.5C322 855.881 323.119 857 324.5 857Z" fill="#26A642"/>
<path d="M209.5 877C210.881 877 212 875.881 212 874.5C212 873.119 210.881 872 209.5 872C208.119 872 207 873.119 207 874.5C207 875.881 208.119 877 209.5 877Z" fill="#26A642"/>
<path d="M241.5 989C242.881 989 244 987.881 244 986.5C244 985.119 242.881 984 241.5 984C240.119 984 239 985.119 239 986.5C239 987.881 240.119 989 241.5 989Z" fill="#26A642"/>
<path d="M200 1072.5C201.381 1072.5 202.5 1071.38 202.5 1070C202.5 1068.62 201.381 1067.5 200 1067.5C198.619 1067.5 197.5 1068.62 197.5 1070C197.5 1071.38 198.619 1072.5 200 1072.5Z" fill="#26A642"/>
<path d="M94.5 1011.5C95.8807 1011.5 97 1010.38 97 1009C97 1007.62 95.8807 1006.5 94.5 1006.5C93.1193 1006.5 92 1007.62 92 1009C92 1010.38 93.1193 1011.5 94.5 1011.5Z" fill="#26A642"/>
<path d="M3.5 782.5C4.88071 782.5 6 781.381 6 780C6 778.619 4.88071 777.5 3.5 777.5C2.11929 777.5 1 778.619 1 780C1 781.381 2.11929 782.5 3.5 782.5Z" fill="#26A642"/>
<path d="M125 795C126.381 795 127.5 793.881 127.5 792.5C127.5 791.119 126.381 790 125 790C123.619 790 122.5 791.119 122.5 792.5C122.5 793.881 123.619 795 125 795Z" fill="#26A642"/>
<path d="M229 763.5C230.381 763.5 231.5 762.381 231.5 761C231.5 759.619 230.381 758.5 229 758.5C227.619 758.5 226.5 759.619 226.5 761C226.5 762.381 227.619 763.5 229 763.5Z" fill="#26A642"/>
<path d="M58.5 873C59.8807 873 61 871.881 61 870.5C61 869.119 59.8807 868 58.5 868C57.1193 868 56 869.119 56 870.5C56 871.881 57.1193 873 58.5 873Z" fill="#26A642"/>
<path d="M135 933.5C136.381 933.5 137.5 932.381 137.5 931C137.5 929.619 136.381 928.5 135 928.5C133.619 928.5 132.5 929.619 132.5 931C132.5 932.381 133.619 933.5 135 933.5Z" fill="#26A642"/>
</g>
<g clip-path="url(#clip8_40_4510)">
<path d="M740 740H340V1140H740V740Z" fill="#3AD454"/>
<path d="M724.5 854.5L858.5 870.45M803.5 1180L705.5 1108.5L600 1070L494.5 1009L360 1039.5M360 1039.5L487.5 1122L403.25 1179.75L360 1039.5ZM360 1039.5L241.5 986.5L391 931L324.5 854.5L403.25 779.75L305.5 708.5" stroke="#26A642" stroke-width="0.5"/>
<path d="M324.5 854.5L458.5 870.5L535 931L641.5 986.5L494.25 1008.75L390.75 930.75M525 1192.5L487.5 1122" stroke="#26A642" stroke-width="0.5"/>
<path d="M600 1070L629 1161L705.5 1108.5L760 1039.5L641.5 986.5L600 1070ZM600 1070L487.5 1122L494.5 1009L535 931L609.5 874.5L724.5 854.5L628.75 760.75L525 792.5L487.5 722L403.25 779.75L458.5 870.5L391 931L360 1039.5L305.5 1108.5L403.5 1180" stroke="#26A642" stroke-width="0.5"/>
<path d="M600 670L629.25 761.25L705.5 708.5M641.5 986.5L609.5 874.5M609.5 874.5L458.5 870.5L525 792.5M609.5 874.5L791 931M535 931H391" stroke="#26A642" stroke-width="0.5"/>
<path d="M229 761L403.25 779.75L525 792.5L609.5 874.5L628.75 760.75M628.75 760.75L803.5 780L724.5 854.5L791 931L641.5 986.5L705.5 1108.5M628.75 760.75L487.5 722M629 1161L487.5 1122M360 639.5L403.5 780M391 931L209.5 874.5" stroke="#26A642" stroke-width="0.5"/>
<path d="M724.5 857C725.881 857 727 855.881 727 854.5C727 853.119 725.881 852 724.5 852C723.119 852 722 853.119 722 854.5C722 855.881 723.119 857 724.5 857Z" fill="#26A642"/>
<path d="M609.5 877C610.881 877 612 875.881 612 874.5C612 873.119 610.881 872 609.5 872C608.119 872 607 873.119 607 874.5C607 875.881 608.119 877 609.5 877Z" fill="#26A642"/>
<path d="M641.5 989C642.881 989 644 987.881 644 986.5C644 985.119 642.881 984 641.5 984C640.119 984 639 985.119 639 986.5C639 987.881 640.119 989 641.5 989Z" fill="#26A642"/>
<path d="M600 1072.5C601.381 1072.5 602.5 1071.38 602.5 1070C602.5 1068.62 601.381 1067.5 600 1067.5C598.619 1067.5 597.5 1068.62 597.5 1070C597.5 1071.38 598.619 1072.5 600 1072.5Z" fill="#26A642"/>
<path d="M494.5 1011.5C495.881 1011.5 497 1010.38 497 1009C497 1007.62 495.881 1006.5 494.5 1006.5C493.119 1006.5 492 1007.62 492 1009C492 1010.38 493.119 1011.5 494.5 1011.5Z" fill="#26A642"/>
<path d="M360 1042C361.381 1042 362.5 1040.88 362.5 1039.5C362.5 1038.12 361.381 1037 360 1037C358.619 1037 357.5 1038.12 357.5 1039.5C357.5 1040.88 358.619 1042 360 1042Z" fill="#26A642"/>
<path d="M391 933.5C392.381 933.5 393.5 932.381 393.5 931C393.5 929.619 392.381 928.5 391 928.5C389.619 928.5 388.5 929.619 388.5 931C388.5 932.381 389.619 933.5 391 933.5Z" fill="#26A642"/>
<path d="M403.5 782.5C404.881 782.5 406 781.381 406 780C406 778.619 404.881 777.5 403.5 777.5C402.119 777.5 401 778.619 401 780C401 781.381 402.119 782.5 403.5 782.5Z" fill="#26A642"/>
<path d="M525 795C526.381 795 527.5 793.881 527.5 792.5C527.5 791.119 526.381 790 525 790C523.619 790 522.5 791.119 522.5 792.5C522.5 793.881 523.619 795 525 795Z" fill="#26A642"/>
<path d="M629 763.5C630.381 763.5 631.5 762.381 631.5 761C631.5 759.619 630.381 758.5 629 758.5C627.619 758.5 626.5 759.619 626.5 761C626.5 762.381 627.619 763.5 629 763.5Z" fill="#26A642"/>
<path d="M458.5 873C459.881 873 461 871.881 461 870.5C461 869.119 459.881 868 458.5 868C457.119 868 456 869.119 456 870.5C456 871.881 457.119 873 458.5 873Z" fill="#26A642"/>
<path d="M535 933.5C536.381 933.5 537.5 932.381 537.5 931C537.5 929.619 536.381 928.5 535 928.5C533.619 928.5 532.5 929.619 532.5 931C532.5 932.381 533.619 933.5 535 933.5Z" fill="#26A642"/>
</g>
<g clip-path="url(#clip9_40_4510)">
<path d="M1140 740H740V1140H1140V740Z" fill="#3AD454"/>
<path d="M1124.5 854.5L1258.5 870.45M1203.5 1180L1105.5 1108.5L1000 1070L894.5 1009L760 1039.5M760 1039.5L887.5 1122L803.25 1179.75L760 1039.5ZM760 1039.5L641.5 986.5L791 931L724.5 854.5L803.25 779.75L705.5 708.5" stroke="#26A642" stroke-width="0.5"/>
<path d="M724.5 854.5L858.5 870.5L935 931L1041.5 986.5L894.25 1008.75L790.75 930.75M925 1192.5L887.5 1122" stroke="#26A642" stroke-width="0.5"/>
<path d="M1000 1070L1029 1161L1105.5 1108.5L1160 1039.5L1041.5 986.5L1000 1070ZM1000 1070L887.5 1122L894.5 1009L935 931L1009.5 874.5L1124.5 854.5L1028.75 760.75L925 792.5L887.5 722L803.25 779.75L858.5 870.5L791 931L760 1039.5L705.5 1108.5L803.5 1180" stroke="#26A642" stroke-width="0.5"/>
<path d="M1000 670L1029.25 761.25L1105.5 708.5M1041.5 986.5L1009.5 874.5M1009.5 874.5L858.5 870.5L925 792.5M1009.5 874.5L1191 931M935 931H791" stroke="#26A642" stroke-width="0.5"/>
<path d="M629 761L803.25 779.75L925 792.5L1009.5 874.5L1028.75 760.75M1028.75 760.75L1203.5 780L1124.5 854.5L1191 931L1041.5 986.5L1105.5 1108.5M1028.75 760.75L887.5 722M1029 1161L887.5 1122M760 639.5L803.5 780M791 931L609.5 874.5" stroke="#26A642" stroke-width="0.5"/>
<path d="M1009.5 877C1010.88 877 1012 875.881 1012 874.5C1012 873.119 1010.88 872 1009.5 872C1008.12 872 1007 873.119 1007 874.5C1007 875.881 1008.12 877 1009.5 877Z" fill="#26A642"/>
<path d="M1041.5 989C1042.88 989 1044 987.881 1044 986.5C1044 985.119 1042.88 984 1041.5 984C1040.12 984 1039 985.119 1039 986.5C1039 987.881 1040.12 989 1041.5 989Z" fill="#26A642"/>
<path d="M1000 1072.5C1001.38 1072.5 1002.5 1071.38 1002.5 1070C1002.5 1068.62 1001.38 1067.5 1000 1067.5C998.619 1067.5 997.5 1068.62 997.5 1070C997.5 1071.38 998.619 1072.5 1000 1072.5Z" fill="#26A642"/>
<path d="M894.5 1011.5C895.881 1011.5 897 1010.38 897 1009C897 1007.62 895.881 1006.5 894.5 1006.5C893.119 1006.5 892 1007.62 892 1009C892 1010.38 893.119 1011.5 894.5 1011.5Z" fill="#26A642"/>
<path d="M760 1042C761.381 1042 762.5 1040.88 762.5 1039.5C762.5 1038.12 761.381 1037 760 1037C758.619 1037 757.5 1038.12 757.5 1039.5C757.5 1040.88 758.619 1042 760 1042Z" fill="#26A642"/>
<path d="M791 933.5C792.381 933.5 793.5 932.381 793.5 931C793.5 929.619 792.381 928.5 791 928.5C789.619 928.5 788.5 929.619 788.5 931C788.5 932.381 789.619 933.5 791 933.5Z" fill="#26A642"/>
<path d="M803.5 782.5C804.881 782.5 806 781.381 806 780C806 778.619 804.881 777.5 803.5 777.5C802.119 777.5 801 778.619 801 780C801 781.381 802.119 782.5 803.5 782.5Z" fill="#26A642"/>
<path d="M925 795C926.381 795 927.5 793.881 927.5 792.5C927.5 791.119 926.381 790 925 790C923.619 790 922.5 791.119 922.5 792.5C922.5 793.881 923.619 795 925 795Z" fill="#26A642"/>
<path d="M1029 763.5C1030.38 763.5 1031.5 762.381 1031.5 761C1031.5 759.619 1030.38 758.5 1029 758.5C1027.62 758.5 1026.5 759.619 1026.5 761C1026.5 762.381 1027.62 763.5 1029 763.5Z" fill="#26A642"/>
<path d="M858.5 873C859.881 873 861 871.881 861 870.5C861 869.119 859.881 868 858.5 868C857.119 868 856 869.119 856 870.5C856 871.881 857.119 873 858.5 873Z" fill="#26A642"/>
<path d="M935 933.5C936.381 933.5 937.5 932.381 937.5 931C937.5 929.619 936.381 928.5 935 928.5C933.619 928.5 932.5 929.619 932.5 931C932.5 932.381 933.619 933.5 935 933.5Z" fill="#26A642"/>
</g>
<g opacity="0.75">
<rect x="0.5" y="0.5" width="1079" height="1079" fill="url(#paint0_radial_40_4510)" stroke="black"/>
<rect x="1079.5" y="1079.5" width="1079" height="1079" transform="rotate(-180 1079.5 1079.5)" fill="url(#paint1_radial_40_4510)" stroke="black"/>
</g>
</g>
<defs>
<radialGradient id="paint0_radial_40_4510" cx="0" cy="0" r="1" gradientUnits="userSpaceOnUse" gradientTransform="translate(156.101 123.337) rotate(45.7526) scale(1655.77 1249.33)">
<stop offset="0.00880086" stop-color="#0D0E0F" stop-opacity="0.92"/>
<stop offset="0.27" stop-color="#0D0E0F" stop-opacity="0.72"/>
<stop offset="0.568183" stop-color="#0D0E0F" stop-opacity="0.62"/>
<stop offset="0.758841" stop-color="#0D0E0F" stop-opacity="0.42"/>
<stop offset="1" stop-color="#3AD454" stop-opacity="0"/>
</radialGradient>
<radialGradient id="paint1_radial_40_4510" cx="0" cy="0" r="1" gradientUnits="userSpaceOnUse" gradientTransform="translate(1236.1 1203.34) rotate(45.7526) scale(1655.77 1249.33)">
<stop offset="0.00880086" stop-color="#0D0E0F" stop-opacity="0.92"/>
<stop offset="0.27" stop-color="#0D0E0F" stop-opacity="0.72"/>
<stop offset="0.568183" stop-color="#0D0E0F" stop-opacity="0.62"/>
<stop offset="0.758841" stop-color="#0D0E0F" stop-opacity="0.42"/>
<stop offset="1" stop-color="#3AD454" stop-opacity="0"/>
</radialGradient>
<clipPath id="clip0_40_4510">
<rect width="1080" height="1080" fill="white"/>
</clipPath>
<clipPath id="clip1_40_4510">
<rect width="400" height="400" fill="white" transform="translate(-60 -60)"/>
</clipPath>
<clipPath id="clip2_40_4510">
<rect width="400" height="400" fill="white" transform="translate(340 -60)"/>
</clipPath>
<clipPath id="clip3_40_4510">
<rect width="400" height="400" fill="white" transform="translate(740 -60)"/>
</clipPath>
<clipPath id="clip4_40_4510">
<rect width="400" height="400" fill="white" transform="translate(-60 340)"/>
</clipPath>
<clipPath id="clip5_40_4510">
<rect width="400" height="400" fill="white" transform="translate(340 340)"/>
</clipPath>
<clipPath id="clip6_40_4510">
<rect width="400" height="400" fill="white" transform="translate(740 340)"/>
</clipPath>
<clipPath id="clip7_40_4510">
<rect width="400" height="400" fill="white" transform="translate(-60 740)"/>
</clipPath>
<clipPath id="clip8_40_4510">
<rect width="400" height="400" fill="white" transform="translate(340 740)"/>
</clipPath>
<clipPath id="clip9_40_4510">
<rect width="400" height="400" fill="white" transform="translate(740 740)"/>
</clipPath>
</defs>
</svg>
