<svg viewBox="0 0 1080 1080" fill="none" xmlns="http://www.w3.org/2000/svg">
<g clip-path="url(#clip0_40_3891)">
<rect width="1080" height="1080" fill="white"/>
<g clip-path="url(#clip1_40_3891)">
<path d="M540 0H0V540H540V0Z" fill="#12933B"/>
<path d="M519.075 154.575L699.975 176.108M625.725 594L493.425 497.475L351 445.5L208.575 363.15L26.9999 404.325M26.9999 404.325L199.125 515.7L85.3874 593.663L26.9999 404.325ZM26.9999 404.325L-132.975 332.775L68.8499 257.85L-20.9251 154.575L85.3874 53.6625L-46.5751 -42.525" stroke="#1E1E1E" stroke-width="2"/>
<path d="M-20.925 154.575L159.975 176.175L263.25 257.85L407.025 332.775L208.237 362.812L68.5125 257.512M249.75 610.875L199.125 515.7" stroke="#1E1E1E" stroke-width="2"/>
<path d="M351 445.5L390.15 568.35L493.425 497.475L567 404.325L407.025 332.775L351 445.5ZM351 445.5L199.125 515.7L208.575 363.15L263.25 257.85L363.825 181.575L519.075 154.575L389.813 28.0125L249.75 70.875L199.125 -24.3L85.3876 53.6625L159.975 176.175L68.8501 257.85L27.0001 404.325L-46.575 497.475L85.7251 594" stroke="#1E1E1E" stroke-width="2"/>
<path d="M351 -94.5L390.487 28.6875L493.425 -42.525M407.025 332.775L363.825 181.575M363.825 181.575L159.975 176.175L249.75 70.875M363.825 181.575L608.85 257.85M263.25 257.85H68.8499" stroke="#1E1E1E" stroke-width="2"/>
<path d="M-149.85 28.35L85.3875 53.6625L249.75 70.875L363.825 181.575L389.812 28.0125M389.812 28.0125L625.725 54L519.075 154.575L608.85 257.85L407.025 332.775L493.425 497.475M389.812 28.0125L199.125 -24.3M390.15 568.35L199.125 515.7M27 -135.675L85.725 54M68.85 257.85L-176.175 181.575" stroke="#1E1E1E" stroke-width="2"/>
<path d="M519.7 161.2C523.014 161.2 525.7 158.514 525.7 155.2C525.7 151.886 523.014 149.2 519.7 149.2C516.386 149.2 513.7 151.886 513.7 155.2C513.7 158.514 516.386 161.2 519.7 161.2Z" fill="#1E1E1E"/>
<path d="M364.45 188.2C367.764 188.2 370.45 185.514 370.45 182.2C370.45 178.886 367.764 176.2 364.45 176.2C361.136 176.2 358.45 178.886 358.45 182.2C358.45 185.514 361.136 188.2 364.45 188.2Z" fill="#1E1E1E"/>
<path d="M407.65 339.4C410.964 339.4 413.65 336.714 413.65 333.4C413.65 330.086 410.964 327.4 407.65 327.4C404.336 327.4 401.65 330.086 401.65 333.4C401.65 336.714 404.336 339.4 407.65 339.4Z" fill="#1E1E1E"/>
<path d="M494.05 504.1C497.364 504.1 500.05 501.414 500.05 498.1C500.05 494.786 497.364 492.1 494.05 492.1C490.736 492.1 488.05 494.786 488.05 498.1C488.05 501.414 490.736 504.1 494.05 504.1Z" fill="#1E1E1E"/>
<path d="M351.625 452.125C354.939 452.125 357.625 449.439 357.625 446.125C357.625 442.811 354.939 440.125 351.625 440.125C348.311 440.125 345.625 442.811 345.625 446.125C345.625 449.439 348.311 452.125 351.625 452.125Z" fill="#1E1E1E"/>
<path d="M209.2 369.775C212.514 369.775 215.2 367.089 215.2 363.775C215.2 360.461 212.514 357.775 209.2 357.775C205.886 357.775 203.2 360.461 203.2 363.775C203.2 367.089 205.886 369.775 209.2 369.775Z" fill="#1E1E1E"/>
<path d="M199.75 522.325C203.064 522.325 205.75 519.639 205.75 516.325C205.75 513.011 203.064 510.325 199.75 510.325C196.436 510.325 193.75 513.011 193.75 516.325C193.75 519.639 196.436 522.325 199.75 522.325Z" fill="#1E1E1E"/>
<path d="M27.625 410.95C30.9387 410.95 33.625 408.264 33.625 404.95C33.625 401.636 30.9387 398.95 27.625 398.95C24.3113 398.95 21.625 401.636 21.625 404.95C21.625 408.264 24.3113 410.95 27.625 410.95Z" fill="#1E1E1E"/>
<path d="M69.4751 264.475C72.7888 264.475 75.4751 261.789 75.4751 258.475C75.4751 255.161 72.7888 252.475 69.4751 252.475C66.1614 252.475 63.4751 255.161 63.4751 258.475C63.4751 261.789 66.1614 264.475 69.4751 264.475Z" fill="#1E1E1E"/>
<path d="M86.3501 60.625C89.6638 60.625 92.3501 57.9387 92.3501 54.625C92.3501 51.3113 89.6638 48.625 86.3501 48.625C83.0364 48.625 80.3501 51.3113 80.3501 54.625C80.3501 57.9387 83.0364 60.625 86.3501 60.625Z" fill="#1E1E1E"/>
<path d="M250.375 77.5C253.689 77.5 256.375 74.8137 256.375 71.5C256.375 68.1863 253.689 65.5 250.375 65.5C247.061 65.5 244.375 68.1863 244.375 71.5C244.375 74.8137 247.061 77.5 250.375 77.5Z" fill="#1E1E1E"/>
<path d="M390.775 34.975C394.089 34.975 396.775 32.2887 396.775 28.975C396.775 25.6613 394.089 22.975 390.775 22.975C387.461 22.975 384.775 25.6613 384.775 28.975C384.775 32.2887 387.461 34.975 390.775 34.975Z" fill="#1E1E1E"/>
<path d="M160.6 182.8C163.914 182.8 166.6 180.114 166.6 176.8C166.6 173.486 163.914 170.8 160.6 170.8C157.286 170.8 154.6 173.486 154.6 176.8C154.6 180.114 157.286 182.8 160.6 182.8Z" fill="#1E1E1E"/>
<path d="M263.875 264.475C267.189 264.475 269.875 261.789 269.875 258.475C269.875 255.161 267.189 252.475 263.875 252.475C260.561 252.475 257.875 255.161 257.875 258.475C257.875 261.789 260.561 264.475 263.875 264.475Z" fill="#1E1E1E"/>
</g>
<g clip-path="url(#clip2_40_3891)">
<path d="M1080 0H540V540H1080V0Z" fill="#12933B"/>
<path d="M1059.07 154.575L1239.97 176.108M1165.72 594L1033.42 497.475L891 445.5L748.575 363.15L567 404.325M567 404.325L739.125 515.7L625.387 593.663L567 404.325ZM567 404.325L407.025 332.775L608.85 257.85L519.075 154.575L625.387 53.6625L493.425 -42.525" stroke="#1E1E1E" stroke-width="2"/>
<path d="M519.075 154.575L699.975 176.175L803.25 257.85L947.025 332.775L748.238 362.812L608.513 257.512M789.75 610.875L739.125 515.7" stroke="#1E1E1E" stroke-width="2"/>
<path d="M891 445.5L930.15 568.35L1033.42 497.475L1107 404.325L947.025 332.775L891 445.5ZM891 445.5L739.125 515.7L748.575 363.15L803.25 257.85L903.825 181.575L1059.07 154.575L929.812 28.0125L789.75 70.875L739.125 -24.3L625.387 53.6625L699.975 176.175L608.85 257.85L567 404.325L493.425 497.475L625.725 594" stroke="#1E1E1E" stroke-width="2"/>
<path d="M891 -94.5L930.488 28.6875L1033.43 -42.525M947.025 332.775L903.825 181.575M903.825 181.575L699.975 176.175L789.75 70.875M903.825 181.575L1148.85 257.85M803.25 257.85H608.85" stroke="#1E1E1E" stroke-width="2"/>
<path d="M390.15 28.35L625.387 53.6625L789.75 70.875L903.825 181.575L929.812 28.0125M929.812 28.0125L1165.72 54L1059.07 154.575L1148.85 257.85L947.025 332.775L1033.42 497.475M929.812 28.0125L739.125 -24.3M930.15 568.35L739.125 515.7M567 -135.675L625.725 54M608.85 257.85L363.825 181.575" stroke="#1E1E1E" stroke-width="2"/>
<path d="M1059.7 161.2C1063.01 161.2 1065.7 158.514 1065.7 155.2C1065.7 151.886 1063.01 149.2 1059.7 149.2C1056.39 149.2 1053.7 151.886 1053.7 155.2C1053.7 158.514 1056.39 161.2 1059.7 161.2Z" fill="#1E1E1E"/>
<path d="M904.45 188.2C907.764 188.2 910.45 185.514 910.45 182.2C910.45 178.886 907.764 176.2 904.45 176.2C901.136 176.2 898.45 178.886 898.45 182.2C898.45 185.514 901.136 188.2 904.45 188.2Z" fill="#1E1E1E"/>
<path d="M947.65 339.4C950.964 339.4 953.65 336.714 953.65 333.4C953.65 330.086 950.964 327.4 947.65 327.4C944.336 327.4 941.65 330.086 941.65 333.4C941.65 336.714 944.336 339.4 947.65 339.4Z" fill="#1E1E1E"/>
<path d="M1034.05 504.1C1037.36 504.1 1040.05 501.414 1040.05 498.1C1040.05 494.786 1037.36 492.1 1034.05 492.1C1030.74 492.1 1028.05 494.786 1028.05 498.1C1028.05 501.414 1030.74 504.1 1034.05 504.1Z" fill="#1E1E1E"/>
<path d="M891.625 452.125C894.939 452.125 897.625 449.439 897.625 446.125C897.625 442.811 894.939 440.125 891.625 440.125C888.311 440.125 885.625 442.811 885.625 446.125C885.625 449.439 888.311 452.125 891.625 452.125Z" fill="#1E1E1E"/>
<path d="M749.2 369.775C752.514 369.775 755.2 367.089 755.2 363.775C755.2 360.461 752.514 357.775 749.2 357.775C745.886 357.775 743.2 360.461 743.2 363.775C743.2 367.089 745.886 369.775 749.2 369.775Z" fill="#1E1E1E"/>
<path d="M739.75 522.325C743.064 522.325 745.75 519.639 745.75 516.325C745.75 513.011 743.064 510.325 739.75 510.325C736.436 510.325 733.75 513.011 733.75 516.325C733.75 519.639 736.436 522.325 739.75 522.325Z" fill="#1E1E1E"/>
<path d="M567.625 410.95C570.939 410.95 573.625 408.264 573.625 404.95C573.625 401.636 570.939 398.95 567.625 398.95C564.311 398.95 561.625 401.636 561.625 404.95C561.625 408.264 564.311 410.95 567.625 410.95Z" fill="#1E1E1E"/>
<path d="M609.475 264.475C612.789 264.475 615.475 261.789 615.475 258.475C615.475 255.161 612.789 252.475 609.475 252.475C606.161 252.475 603.475 255.161 603.475 258.475C603.475 261.789 606.161 264.475 609.475 264.475Z" fill="#1E1E1E"/>
<path d="M626.35 60.625C629.664 60.625 632.35 57.9387 632.35 54.625C632.35 51.3113 629.664 48.625 626.35 48.625C623.036 48.625 620.35 51.3113 620.35 54.625C620.35 57.9387 623.036 60.625 626.35 60.625Z" fill="#1E1E1E"/>
<path d="M790.375 77.5C793.689 77.5 796.375 74.8137 796.375 71.5C796.375 68.1863 793.689 65.5 790.375 65.5C787.061 65.5 784.375 68.1863 784.375 71.5C784.375 74.8137 787.061 77.5 790.375 77.5Z" fill="#1E1E1E"/>
<path d="M930.775 34.975C934.089 34.975 936.775 32.2887 936.775 28.975C936.775 25.6613 934.089 22.975 930.775 22.975C927.461 22.975 924.775 25.6613 924.775 28.975C924.775 32.2887 927.461 34.975 930.775 34.975Z" fill="#1E1E1E"/>
<path d="M700.6 182.8C703.914 182.8 706.6 180.114 706.6 176.8C706.6 173.486 703.914 170.8 700.6 170.8C697.286 170.8 694.6 173.486 694.6 176.8C694.6 180.114 697.286 182.8 700.6 182.8Z" fill="#1E1E1E"/>
<path d="M803.875 264.475C807.189 264.475 809.875 261.789 809.875 258.475C809.875 255.161 807.189 252.475 803.875 252.475C800.561 252.475 797.875 255.161 797.875 258.475C797.875 261.789 800.561 264.475 803.875 264.475Z" fill="#1E1E1E"/>
</g>
<g clip-path="url(#clip3_40_3891)">
<path d="M540 540H0V1080H540V540Z" fill="#12933B"/>
<path d="M519.075 694.575L699.975 716.108M625.725 1134L493.425 1037.48L351 985.5L208.575 903.15L26.9999 944.325M26.9999 944.325L199.125 1055.7L85.3874 1133.66L26.9999 944.325ZM26.9999 944.325L-132.975 872.775L68.8499 797.85L-20.9251 694.575L85.3874 593.663L-46.5751 497.475" stroke="#1E1E1E" stroke-width="2"/>
<path d="M-20.925 694.575L159.975 716.175L263.25 797.85L407.025 872.775L208.237 902.812L68.5125 797.513M249.75 1150.87L199.125 1055.7" stroke="#1E1E1E" stroke-width="2"/>
<path d="M351 985.5L390.15 1108.35L493.425 1037.48L567 944.325L407.025 872.775L351 985.5ZM351 985.5L199.125 1055.7L208.575 903.15L263.25 797.85L363.825 721.575L519.075 694.575L389.813 568.013L249.75 610.875L199.125 515.7L85.3876 593.663L159.975 716.175L68.8501 797.85L27.0001 944.325L-46.575 1037.48L85.7251 1134" stroke="#1E1E1E" stroke-width="2"/>
<path d="M351 445.5L390.487 568.688L493.425 497.475M407.025 872.775L363.825 721.575M363.825 721.575L159.975 716.175L249.75 610.875M363.825 721.575L608.85 797.85M263.25 797.85H68.8499" stroke="#1E1E1E" stroke-width="2"/>
<path d="M-149.85 568.35L85.3875 593.663L249.75 610.875L363.825 721.575L389.812 568.013M389.812 568.013L625.725 594L519.075 694.575L608.85 797.85L407.025 872.775L493.425 1037.48M389.812 568.013L199.125 515.7M390.15 1108.35L199.125 1055.7M27 404.325L85.725 594M68.85 797.85L-176.175 721.575" stroke="#1E1E1E" stroke-width="2"/>
<path d="M519.7 701.2C523.014 701.2 525.7 698.514 525.7 695.2C525.7 691.886 523.014 689.2 519.7 689.2C516.386 689.2 513.7 691.886 513.7 695.2C513.7 698.514 516.386 701.2 519.7 701.2Z" fill="#1E1E1E"/>
<path d="M364.45 728.2C367.764 728.2 370.45 725.514 370.45 722.2C370.45 718.886 367.764 716.2 364.45 716.2C361.136 716.2 358.45 718.886 358.45 722.2C358.45 725.514 361.136 728.2 364.45 728.2Z" fill="#1E1E1E"/>
<path d="M407.65 879.4C410.964 879.4 413.65 876.714 413.65 873.4C413.65 870.086 410.964 867.4 407.65 867.4C404.336 867.4 401.65 870.086 401.65 873.4C401.65 876.714 404.336 879.4 407.65 879.4Z" fill="#1E1E1E"/>
<path d="M494.05 1044.1C497.364 1044.1 500.05 1041.41 500.05 1038.1C500.05 1034.79 497.364 1032.1 494.05 1032.1C490.736 1032.1 488.05 1034.79 488.05 1038.1C488.05 1041.41 490.736 1044.1 494.05 1044.1Z" fill="#1E1E1E"/>
<path d="M351.625 992.125C354.939 992.125 357.625 989.439 357.625 986.125C357.625 982.811 354.939 980.125 351.625 980.125C348.311 980.125 345.625 982.811 345.625 986.125C345.625 989.439 348.311 992.125 351.625 992.125Z" fill="#1E1E1E"/>
<path d="M209.2 909.775C212.514 909.775 215.2 907.089 215.2 903.775C215.2 900.461 212.514 897.775 209.2 897.775C205.886 897.775 203.2 900.461 203.2 903.775C203.2 907.089 205.886 909.775 209.2 909.775Z" fill="#1E1E1E"/>
<path d="M199.75 1062.33C203.064 1062.33 205.75 1059.64 205.75 1056.33C205.75 1053.01 203.064 1050.33 199.75 1050.33C196.436 1050.33 193.75 1053.01 193.75 1056.33C193.75 1059.64 196.436 1062.33 199.75 1062.33Z" fill="#1E1E1E"/>
<path d="M27.625 950.95C30.9387 950.95 33.625 948.264 33.625 944.95C33.625 941.636 30.9387 938.95 27.625 938.95C24.3113 938.95 21.625 941.636 21.625 944.95C21.625 948.264 24.3113 950.95 27.625 950.95Z" fill="#1E1E1E"/>
<path d="M69.4751 804.475C72.7888 804.475 75.4751 801.789 75.4751 798.475C75.4751 795.161 72.7888 792.475 69.4751 792.475C66.1614 792.475 63.4751 795.161 63.4751 798.475C63.4751 801.789 66.1614 804.475 69.4751 804.475Z" fill="#1E1E1E"/>
<path d="M86.3501 600.625C89.6638 600.625 92.3501 597.939 92.3501 594.625C92.3501 591.311 89.6638 588.625 86.3501 588.625C83.0364 588.625 80.3501 591.311 80.3501 594.625C80.3501 597.939 83.0364 600.625 86.3501 600.625Z" fill="#1E1E1E"/>
<path d="M250.375 617.5C253.689 617.5 256.375 614.814 256.375 611.5C256.375 608.186 253.689 605.5 250.375 605.5C247.061 605.5 244.375 608.186 244.375 611.5C244.375 614.814 247.061 617.5 250.375 617.5Z" fill="#1E1E1E"/>
<path d="M390.775 574.975C394.089 574.975 396.775 572.289 396.775 568.975C396.775 565.661 394.089 562.975 390.775 562.975C387.461 562.975 384.775 565.661 384.775 568.975C384.775 572.289 387.461 574.975 390.775 574.975Z" fill="#1E1E1E"/>
<path d="M160.6 722.8C163.914 722.8 166.6 720.114 166.6 716.8C166.6 713.486 163.914 710.8 160.6 710.8C157.286 710.8 154.6 713.486 154.6 716.8C154.6 720.114 157.286 722.8 160.6 722.8Z" fill="#1E1E1E"/>
<path d="M263.875 804.475C267.189 804.475 269.875 801.789 269.875 798.475C269.875 795.161 267.189 792.475 263.875 792.475C260.561 792.475 257.875 795.161 257.875 798.475C257.875 801.789 260.561 804.475 263.875 804.475Z" fill="#1E1E1E"/>
</g>
<g clip-path="url(#clip4_40_3891)">
<path d="M1080 540H540V1080H1080V540Z" fill="#12933B"/>
<path d="M1059.07 694.575L1239.97 716.108M1165.72 1134L1033.42 1037.48L891 985.5L748.575 903.15L567 944.325M567 944.325L739.125 1055.7L625.387 1133.66L567 944.325ZM567 944.325L407.025 872.775L608.85 797.85L519.075 694.575L625.387 593.663L493.425 497.475" stroke="#1E1E1E" stroke-width="2"/>
<path d="M519.075 694.575L699.975 716.175L803.25 797.85L947.025 872.775L748.238 902.812L608.513 797.513M789.75 1150.87L739.125 1055.7" stroke="#1E1E1E" stroke-width="2"/>
<path d="M891 985.5L930.15 1108.35L1033.42 1037.48L1107 944.325L947.025 872.775L891 985.5ZM891 985.5L739.125 1055.7L748.575 903.15L803.25 797.85L903.825 721.575L1059.07 694.575L929.812 568.013L789.75 610.875L739.125 515.7L625.387 593.663L699.975 716.175L608.85 797.85L567 944.325L493.425 1037.48L625.725 1134" stroke="#1E1E1E" stroke-width="2"/>
<path d="M891 445.5L930.488 568.688L1033.43 497.475M947.025 872.775L903.825 721.575M903.825 721.575L699.975 716.175L789.75 610.875M903.825 721.575L1148.85 797.85M803.25 797.85H608.85" stroke="#1E1E1E" stroke-width="2"/>
<path d="M390.15 568.35L625.387 593.663L789.75 610.875L903.825 721.575L929.812 568.013M929.812 568.013L1165.72 594L1059.07 694.575L1148.85 797.85L947.025 872.775L1033.42 1037.48M929.812 568.013L739.125 515.7M930.15 1108.35L739.125 1055.7M567 404.325L625.725 594M608.85 797.85L363.825 721.575" stroke="#1E1E1E" stroke-width="2"/>
<path d="M1059.7 701.2C1063.01 701.2 1065.7 698.514 1065.7 695.2C1065.7 691.886 1063.01 689.2 1059.7 689.2C1056.39 689.2 1053.7 691.886 1053.7 695.2C1053.7 698.514 1056.39 701.2 1059.7 701.2Z" fill="#1E1E1E"/>
<path d="M904.45 728.2C907.764 728.2 910.45 725.514 910.45 722.2C910.45 718.886 907.764 716.2 904.45 716.2C901.136 716.2 898.45 718.886 898.45 722.2C898.45 725.514 901.136 728.2 904.45 728.2Z" fill="#1E1E1E"/>
<path d="M947.65 879.4C950.964 879.4 953.65 876.714 953.65 873.4C953.65 870.086 950.964 867.4 947.65 867.4C944.336 867.4 941.65 870.086 941.65 873.4C941.65 876.714 944.336 879.4 947.65 879.4Z" fill="#1E1E1E"/>
<path d="M1034.05 1044.1C1037.36 1044.1 1040.05 1041.41 1040.05 1038.1C1040.05 1034.79 1037.36 1032.1 1034.05 1032.1C1030.74 1032.1 1028.05 1034.79 1028.05 1038.1C1028.05 1041.41 1030.74 1044.1 1034.05 1044.1Z" fill="#1E1E1E"/>
<path d="M891.625 992.125C894.939 992.125 897.625 989.439 897.625 986.125C897.625 982.811 894.939 980.125 891.625 980.125C888.311 980.125 885.625 982.811 885.625 986.125C885.625 989.439 888.311 992.125 891.625 992.125Z" fill="#1E1E1E"/>
<path d="M749.2 909.775C752.514 909.775 755.2 907.089 755.2 903.775C755.2 900.461 752.514 897.775 749.2 897.775C745.886 897.775 743.2 900.461 743.2 903.775C743.2 907.089 745.886 909.775 749.2 909.775Z" fill="#1E1E1E"/>
<path d="M739.75 1062.33C743.064 1062.33 745.75 1059.64 745.75 1056.33C745.75 1053.01 743.064 1050.33 739.75 1050.33C736.436 1050.33 733.75 1053.01 733.75 1056.33C733.75 1059.64 736.436 1062.33 739.75 1062.33Z" fill="#1E1E1E"/>
<path d="M567.625 950.95C570.939 950.95 573.625 948.264 573.625 944.95C573.625 941.636 570.939 938.95 567.625 938.95C564.311 938.95 561.625 941.636 561.625 944.95C561.625 948.264 564.311 950.95 567.625 950.95Z" fill="#1E1E1E"/>
<path d="M609.475 804.475C612.789 804.475 615.475 801.789 615.475 798.475C615.475 795.161 612.789 792.475 609.475 792.475C606.161 792.475 603.475 795.161 603.475 798.475C603.475 801.789 606.161 804.475 609.475 804.475Z" fill="#1E1E1E"/>
<path d="M626.35 600.625C629.664 600.625 632.35 597.939 632.35 594.625C632.35 591.311 629.664 588.625 626.35 588.625C623.036 588.625 620.35 591.311 620.35 594.625C620.35 597.939 623.036 600.625 626.35 600.625Z" fill="#1E1E1E"/>
<path d="M790.375 617.5C793.689 617.5 796.375 614.814 796.375 611.5C796.375 608.186 793.689 605.5 790.375 605.5C787.061 605.5 784.375 608.186 784.375 611.5C784.375 614.814 787.061 617.5 790.375 617.5Z" fill="#1E1E1E"/>
<path d="M930.775 574.975C934.089 574.975 936.775 572.289 936.775 568.975C936.775 565.661 934.089 562.975 930.775 562.975C927.461 562.975 924.775 565.661 924.775 568.975C924.775 572.289 927.461 574.975 930.775 574.975Z" fill="#1E1E1E"/>
<path d="M700.6 722.8C703.914 722.8 706.6 720.114 706.6 716.8C706.6 713.486 703.914 710.8 700.6 710.8C697.286 710.8 694.6 713.486 694.6 716.8C694.6 720.114 697.286 722.8 700.6 722.8Z" fill="#1E1E1E"/>
<path d="M803.875 804.475C807.189 804.475 809.875 801.789 809.875 798.475C809.875 795.161 807.189 792.475 803.875 792.475C800.561 792.475 797.875 795.161 797.875 798.475C797.875 801.789 800.561 804.475 803.875 804.475Z" fill="#1E1E1E"/>
</g>
</g>
<defs>
<clipPath id="clip0_40_3891">
<rect width="1080" height="1080" fill="white"/>
</clipPath>
<clipPath id="clip1_40_3891">
<rect width="540" height="540" fill="white"/>
</clipPath>
<clipPath id="clip2_40_3891">
<rect width="540" height="540" fill="white" transform="translate(540)"/>
</clipPath>
<clipPath id="clip3_40_3891">
<rect width="540" height="540" fill="white" transform="translate(0 540)"/>
</clipPath>
<clipPath id="clip4_40_3891">
<rect width="540" height="540" fill="white" transform="translate(540 540)"/>
</clipPath>
</defs>
</svg>
