<svg viewBox="0 0 1080 1080" fill="none" xmlns="http://www.w3.org/2000/svg">
<g clip-path="url(#clip0_40_3886)">
<rect width="1080" height="1080" fill="#0D1116"/>
<path d="M10 2C5.58172 2 2 5.58172 2 10V45.3375C2 49.7558 5.58172 53.3375 10 53.3375H49.5C53.9183 53.3375 57.5 49.7558 57.5 45.3375V10C57.5 5.58172 53.9183 2 49.5 2H10ZM70.125 57.6156C65.7067 57.6156 62.125 61.1973 62.125 65.6156V100.953C62.125 105.371 65.7067 108.953 70.125 108.953H109.625C114.043 108.953 117.625 105.371 117.625 100.953V65.6156C117.625 61.1973 114.043 57.6156 109.625 57.6156H70.125ZM10 113.231C5.58172 113.231 2 116.813 2 121.231V156.569C2 160.987 5.58172 164.569 10 164.569H49.5C53.9183 164.569 57.5 160.987 57.5 156.569V121.231C57.5 116.813 53.9183 113.231 49.5 113.231H10ZM130.25 168.847C125.832 168.847 122.25 172.429 122.25 176.847V212.184C122.25 216.603 125.832 220.184 130.25 220.184H169.75C174.168 220.184 177.75 216.603 177.75 212.184V176.847C177.75 172.429 174.168 168.847 169.75 168.847H130.25ZM190.375 224.462C185.957 224.462 182.375 228.044 182.375 232.462V267.8C182.375 272.218 185.957 275.8 190.375 275.8H229.875C234.293 275.8 237.875 272.218 237.875 267.8V232.462C237.875 228.044 234.293 224.462 229.875 224.462H190.375Z" fill="#0E4429"/>
<path d="M130.25 2C125.832 2 122.25 5.58172 122.25 10V45.3375C122.25 49.7558 125.832 53.3375 130.25 53.3375H169.75C174.168 53.3375 177.75 49.7558 177.75 45.3375V10C177.75 5.58172 174.168 2 169.75 2H130.25ZM130.25 57.6156C125.832 57.6156 122.25 61.1973 122.25 65.6156V100.953C122.25 105.371 125.832 108.953 130.25 108.953H169.75C174.168 108.953 177.75 105.371 177.75 100.953V65.6156C177.75 61.1973 174.168 57.6156 169.75 57.6156H130.25ZM190.375 113.231C185.957 113.231 182.375 116.813 182.375 121.231V156.569C182.375 160.987 185.957 164.569 190.375 164.569H229.875C234.293 164.569 237.875 160.987 237.875 156.569V121.231C237.875 116.813 234.293 113.231 229.875 113.231H190.375ZM10 168.847C5.58172 168.847 2 172.429 2 176.847V212.184C2 216.603 5.58172 220.184 10 220.184H49.5C53.9183 220.184 57.5 216.603 57.5 212.184V176.847C57.5 172.429 53.9183 168.847 49.5 168.847H10ZM10 224.462C5.58172 224.462 2 228.044 2 232.462V267.8C2 272.218 5.58172 275.8 10 275.8H49.5C53.9183 275.8 57.5 272.218 57.5 267.8V232.462C57.5 228.044 53.9183 224.462 49.5 224.462H10Z" fill="#006B32"/>
<path d="M70.125 2C65.7067 2 62.125 5.58172 62.125 10V45.3375C62.125 49.7558 65.7067 53.3375 70.125 53.3375H109.625C114.043 53.3375 117.625 49.7558 117.625 45.3375V10C117.625 5.58172 114.043 2 109.625 2H70.125ZM250.5 57.6156C246.082 57.6156 242.5 61.1973 242.5 65.6156V100.953C242.5 105.371 246.082 108.953 250.5 108.953H290C294.418 108.953 298 105.371 298 100.953V65.6156C298 61.1973 294.418 57.6156 290 57.6156H250.5ZM70.125 113.231C65.7067 113.231 62.125 116.813 62.125 121.231V156.569C62.125 160.987 65.7067 164.569 70.125 164.569H109.625C114.043 164.569 117.625 160.987 117.625 156.569V121.231C117.625 116.813 114.043 113.231 109.625 113.231H70.125ZM250.5 113.231C246.082 113.231 242.5 116.813 242.5 121.231V156.569C242.5 160.987 246.082 164.569 250.5 164.569H290C294.418 164.569 298 160.987 298 156.569V121.231C298 116.813 294.418 113.231 290 113.231H250.5ZM130.25 224.462C125.832 224.462 122.25 228.044 122.25 232.462V267.8C122.25 272.218 125.832 275.8 130.25 275.8H169.75C174.168 275.8 177.75 272.218 177.75 267.8V232.462C177.75 228.044 174.168 224.462 169.75 224.462H130.25Z" fill="#26A642"/>
<path d="M250.5 2C246.082 2 242.5 5.58172 242.5 10V45.3375C242.5 49.7558 246.082 53.3375 250.5 53.3375H290C294.418 53.3375 298 49.7558 298 45.3375V10C298 5.58172 294.418 2 290 2H250.5ZM190.375 57.6156C185.957 57.6156 182.375 61.1973 182.375 65.6156V100.953C182.375 105.371 185.957 108.953 190.375 108.953H229.875C234.293 108.953 237.875 105.371 237.875 100.953V65.6156C237.875 61.1973 234.293 57.6156 229.875 57.6156H190.375ZM190.375 168.847C185.957 168.847 182.375 172.429 182.375 176.847V212.184C182.375 216.603 185.957 220.184 190.375 220.184H229.875C234.293 220.184 237.875 216.603 237.875 212.184V176.847C237.875 172.429 234.293 168.847 229.875 168.847H190.375ZM250.5 168.847C246.082 168.847 242.5 172.429 242.5 176.847V212.184C242.5 216.603 246.082 220.184 250.5 220.184H290C294.418 220.184 298 216.603 298 212.184V176.847C298 172.429 294.418 168.847 290 168.847H250.5ZM70.125 224.462C65.7067 224.462 62.125 228.044 62.125 232.462V267.8C62.125 272.218 65.7067 275.8 70.125 275.8H109.625C114.043 275.8 117.625 272.218 117.625 267.8V232.462C117.625 228.044 114.043 224.462 109.625 224.462H70.125Z" fill="#3AD454"/>
<path d="M310 2C305.582 2 302 5.58172 302 10V45.3375C302 49.7558 305.582 53.3375 310 53.3375H349.5C353.918 53.3375 357.5 49.7558 357.5 45.3375V10C357.5 5.58172 353.918 2 349.5 2H310ZM370.125 57.6156C365.707 57.6156 362.125 61.1973 362.125 65.6156V100.953C362.125 105.371 365.707 108.953 370.125 108.953H409.625C414.043 108.953 417.625 105.371 417.625 100.953V65.6156C417.625 61.1973 414.043 57.6156 409.625 57.6156H370.125ZM310 113.231C305.582 113.231 302 116.813 302 121.231V156.569C302 160.987 305.582 164.569 310 164.569H349.5C353.918 164.569 357.5 160.987 357.5 156.569V121.231C357.5 116.813 353.918 113.231 349.5 113.231H310ZM430.25 168.847C425.832 168.847 422.25 172.429 422.25 176.847V212.184C422.25 216.603 425.832 220.184 430.25 220.184H469.75C474.168 220.184 477.75 216.603 477.75 212.184V176.847C477.75 172.429 474.168 168.847 469.75 168.847H430.25ZM490.375 224.462C485.957 224.462 482.375 228.044 482.375 232.462V267.8C482.375 272.218 485.957 275.8 490.375 275.8H529.875C534.293 275.8 537.875 272.218 537.875 267.8V232.462C537.875 228.044 534.293 224.462 529.875 224.462H490.375Z" fill="#0E4429"/>
<path d="M430.25 2C425.832 2 422.25 5.58172 422.25 10V45.3375C422.25 49.7558 425.832 53.3375 430.25 53.3375H469.75C474.168 53.3375 477.75 49.7558 477.75 45.3375V10C477.75 5.58172 474.168 2 469.75 2H430.25ZM430.25 57.6156C425.832 57.6156 422.25 61.1973 422.25 65.6156V100.953C422.25 105.371 425.832 108.953 430.25 108.953H469.75C474.168 108.953 477.75 105.371 477.75 100.953V65.6156C477.75 61.1973 474.168 57.6156 469.75 57.6156H430.25ZM490.375 113.231C485.957 113.231 482.375 116.813 482.375 121.231V156.569C482.375 160.987 485.957 164.569 490.375 164.569H529.875C534.293 164.569 537.875 160.987 537.875 156.569V121.231C537.875 116.813 534.293 113.231 529.875 113.231H490.375ZM310 168.847C305.582 168.847 302 172.429 302 176.847V212.184C302 216.603 305.582 220.184 310 220.184H349.5C353.918 220.184 357.5 216.603 357.5 212.184V176.847C357.5 172.429 353.918 168.847 349.5 168.847H310ZM310 224.462C305.582 224.462 302 228.044 302 232.462V267.8C302 272.218 305.582 275.8 310 275.8H349.5C353.918 275.8 357.5 272.218 357.5 267.8V232.462C357.5 228.044 353.918 224.462 349.5 224.462H310Z" fill="#006B32"/>
<path d="M370.125 2C365.707 2 362.125 5.58172 362.125 10V45.3375C362.125 49.7558 365.707 53.3375 370.125 53.3375H409.625C414.043 53.3375 417.625 49.7558 417.625 45.3375V10C417.625 5.58172 414.043 2 409.625 2H370.125ZM550.5 57.6156C546.082 57.6156 542.5 61.1973 542.5 65.6156V100.953C542.5 105.371 546.082 108.953 550.5 108.953H590C594.418 108.953 598 105.371 598 100.953V65.6156C598 61.1973 594.418 57.6156 590 57.6156H550.5ZM370.125 113.231C365.707 113.231 362.125 116.813 362.125 121.231V156.569C362.125 160.987 365.707 164.569 370.125 164.569H409.625C414.043 164.569 417.625 160.987 417.625 156.569V121.231C417.625 116.813 414.043 113.231 409.625 113.231H370.125ZM550.5 113.231C546.082 113.231 542.5 116.813 542.5 121.231V156.569C542.5 160.987 546.082 164.569 550.5 164.569H590C594.418 164.569 598 160.987 598 156.569V121.231C598 116.813 594.418 113.231 590 113.231H550.5ZM430.25 224.462C425.832 224.462 422.25 228.044 422.25 232.462V267.8C422.25 272.218 425.832 275.8 430.25 275.8H469.75C474.168 275.8 477.75 272.218 477.75 267.8V232.462C477.75 228.044 474.168 224.462 469.75 224.462H430.25Z" fill="#26A642"/>
<path d="M550.5 2C546.082 2 542.5 5.58172 542.5 10V45.3375C542.5 49.7558 546.082 53.3375 550.5 53.3375H590C594.418 53.3375 598 49.7558 598 45.3375V10C598 5.58172 594.418 2 590 2H550.5ZM490.375 57.6156C485.957 57.6156 482.375 61.1973 482.375 65.6156V100.953C482.375 105.371 485.957 108.953 490.375 108.953H529.875C534.293 108.953 537.875 105.371 537.875 100.953V65.6156C537.875 61.1973 534.293 57.6156 529.875 57.6156H490.375ZM490.375 168.847C485.957 168.847 482.375 172.429 482.375 176.847V212.184C482.375 216.603 485.957 220.184 490.375 220.184H529.875C534.293 220.184 537.875 216.603 537.875 212.184V176.847C537.875 172.429 534.293 168.847 529.875 168.847H490.375ZM550.5 168.847C546.082 168.847 542.5 172.429 542.5 176.847V212.184C542.5 216.603 546.082 220.184 550.5 220.184H590C594.418 220.184 598 216.603 598 212.184V176.847C598 172.429 594.418 168.847 590 168.847H550.5ZM370.125 224.462C365.707 224.462 362.125 228.044 362.125 232.462V267.8C362.125 272.218 365.707 275.8 370.125 275.8H409.625C414.043 275.8 417.625 272.218 417.625 267.8V232.462C417.625 228.044 414.043 224.462 409.625 224.462H370.125Z" fill="#3AD454"/>
<path d="M610 2C605.582 2 602 5.58172 602 10V45.3375C602 49.7558 605.582 53.3375 610 53.3375H649.5C653.918 53.3375 657.5 49.7558 657.5 45.3375V10C657.5 5.58172 653.918 2 649.5 2H610ZM670.125 57.6156C665.707 57.6156 662.125 61.1973 662.125 65.6156V100.953C662.125 105.371 665.707 108.953 670.125 108.953H709.625C714.043 108.953 717.625 105.371 717.625 100.953V65.6156C717.625 61.1973 714.043 57.6156 709.625 57.6156H670.125ZM610 113.231C605.582 113.231 602 116.813 602 121.231V156.569C602 160.987 605.582 164.569 610 164.569H649.5C653.918 164.569 657.5 160.987 657.5 156.569V121.231C657.5 116.813 653.918 113.231 649.5 113.231H610ZM730.25 168.847C725.832 168.847 722.25 172.429 722.25 176.847V212.184C722.25 216.603 725.832 220.184 730.25 220.184H769.75C774.168 220.184 777.75 216.603 777.75 212.184V176.847C777.75 172.429 774.168 168.847 769.75 168.847H730.25ZM790.375 224.462C785.957 224.462 782.375 228.044 782.375 232.462V267.8C782.375 272.218 785.957 275.8 790.375 275.8H829.875C834.293 275.8 837.875 272.218 837.875 267.8V232.462C837.875 228.044 834.293 224.462 829.875 224.462H790.375Z" fill="#0E4429"/>
<path d="M730.25 2C725.832 2 722.25 5.58172 722.25 10V45.3375C722.25 49.7558 725.832 53.3375 730.25 53.3375H769.75C774.168 53.3375 777.75 49.7558 777.75 45.3375V10C777.75 5.58172 774.168 2 769.75 2H730.25ZM730.25 57.6156C725.832 57.6156 722.25 61.1973 722.25 65.6156V100.953C722.25 105.371 725.832 108.953 730.25 108.953H769.75C774.168 108.953 777.75 105.371 777.75 100.953V65.6156C777.75 61.1973 774.168 57.6156 769.75 57.6156H730.25ZM790.375 113.231C785.957 113.231 782.375 116.813 782.375 121.231V156.569C782.375 160.987 785.957 164.569 790.375 164.569H829.875C834.293 164.569 837.875 160.987 837.875 156.569V121.231C837.875 116.813 834.293 113.231 829.875 113.231H790.375ZM610 168.847C605.582 168.847 602 172.429 602 176.847V212.184C602 216.603 605.582 220.184 610 220.184H649.5C653.918 220.184 657.5 216.603 657.5 212.184V176.847C657.5 172.429 653.918 168.847 649.5 168.847H610ZM610 224.462C605.582 224.462 602 228.044 602 232.462V267.8C602 272.218 605.582 275.8 610 275.8H649.5C653.918 275.8 657.5 272.218 657.5 267.8V232.462C657.5 228.044 653.918 224.462 649.5 224.462H610Z" fill="#006B32"/>
<path d="M670.125 2C665.707 2 662.125 5.58172 662.125 10V45.3375C662.125 49.7558 665.707 53.3375 670.125 53.3375H709.625C714.043 53.3375 717.625 49.7558 717.625 45.3375V10C717.625 5.58172 714.043 2 709.625 2H670.125ZM850.5 57.6156C846.082 57.6156 842.5 61.1973 842.5 65.6156V100.953C842.5 105.371 846.082 108.953 850.5 108.953H890C894.418 108.953 898 105.371 898 100.953V65.6156C898 61.1973 894.418 57.6156 890 57.6156H850.5ZM670.125 113.231C665.707 113.231 662.125 116.813 662.125 121.231V156.569C662.125 160.987 665.707 164.569 670.125 164.569H709.625C714.043 164.569 717.625 160.987 717.625 156.569V121.231C717.625 116.813 714.043 113.231 709.625 113.231H670.125ZM850.5 113.231C846.082 113.231 842.5 116.813 842.5 121.231V156.569C842.5 160.987 846.082 164.569 850.5 164.569H890C894.418 164.569 898 160.987 898 156.569V121.231C898 116.813 894.418 113.231 890 113.231H850.5ZM730.25 224.462C725.832 224.462 722.25 228.044 722.25 232.462V267.8C722.25 272.218 725.832 275.8 730.25 275.8H769.75C774.168 275.8 777.75 272.218 777.75 267.8V232.462C777.75 228.044 774.168 224.462 769.75 224.462H730.25Z" fill="#26A642"/>
<path d="M850.5 2C846.082 2 842.5 5.58172 842.5 10V45.3375C842.5 49.7558 846.082 53.3375 850.5 53.3375H890C894.418 53.3375 898 49.7558 898 45.3375V10C898 5.58172 894.418 2 890 2H850.5ZM790.375 57.6156C785.957 57.6156 782.375 61.1973 782.375 65.6156V100.953C782.375 105.371 785.957 108.953 790.375 108.953H829.875C834.293 108.953 837.875 105.371 837.875 100.953V65.6156C837.875 61.1973 834.293 57.6156 829.875 57.6156H790.375ZM790.375 168.847C785.957 168.847 782.375 172.429 782.375 176.847V212.184C782.375 216.603 785.957 220.184 790.375 220.184H829.875C834.293 220.184 837.875 216.603 837.875 212.184V176.847C837.875 172.429 834.293 168.847 829.875 168.847H790.375ZM850.5 168.847C846.082 168.847 842.5 172.429 842.5 176.847V212.184C842.5 216.603 846.082 220.184 850.5 220.184H890C894.418 220.184 898 216.603 898 212.184V176.847C898 172.429 894.418 168.847 890 168.847H850.5ZM670.125 224.462C665.707 224.462 662.125 228.044 662.125 232.462V267.8C662.125 272.218 665.707 275.8 670.125 275.8H709.625C714.043 275.8 717.625 272.218 717.625 267.8V232.462C717.625 228.044 714.043 224.462 709.625 224.462H670.125Z" fill="#3AD454"/>
<path d="M910 2C905.582 2 902 5.58172 902 10V45.3375C902 49.7558 905.582 53.3375 910 53.3375H949.5C953.918 53.3375 957.5 49.7558 957.5 45.3375V10C957.5 5.58172 953.918 2 949.5 2H910ZM970.125 57.6156C965.707 57.6156 962.125 61.1973 962.125 65.6156V100.953C962.125 105.371 965.707 108.953 970.125 108.953H1009.62C1014.04 108.953 1017.62 105.371 1017.62 100.953V65.6156C1017.62 61.1973 1014.04 57.6156 1009.62 57.6156H970.125ZM910 113.231C905.582 113.231 902 116.813 902 121.231V156.569C902 160.987 905.582 164.569 910 164.569H949.5C953.918 164.569 957.5 160.987 957.5 156.569V121.231C957.5 116.813 953.918 113.231 949.5 113.231H910ZM1030.25 168.847C1025.83 168.847 1022.25 172.429 1022.25 176.847V212.184C1022.25 216.603 1025.83 220.184 1030.25 220.184H1069.75C1074.17 220.184 1077.75 216.603 1077.75 212.184V176.847C1077.75 172.429 1074.17 168.847 1069.75 168.847H1030.25ZM1090.38 224.462C1085.96 224.462 1082.38 228.044 1082.38 232.462V267.8C1082.38 272.218 1085.96 275.8 1090.38 275.8H1129.88C1134.29 275.8 1137.88 272.218 1137.88 267.8V232.462C1137.88 228.044 1134.29 224.462 1129.88 224.462H1090.38Z" fill="#0E4429"/>
<path d="M1030.25 2C1025.83 2 1022.25 5.58172 1022.25 10V45.3375C1022.25 49.7558 1025.83 53.3375 1030.25 53.3375H1069.75C1074.17 53.3375 1077.75 49.7558 1077.75 45.3375V10C1077.75 5.58172 1074.17 2 1069.75 2H1030.25ZM1030.25 57.6156C1025.83 57.6156 1022.25 61.1973 1022.25 65.6156V100.953C1022.25 105.371 1025.83 108.953 1030.25 108.953H1069.75C1074.17 108.953 1077.75 105.371 1077.75 100.953V65.6156C1077.75 61.1973 1074.17 57.6156 1069.75 57.6156H1030.25ZM1090.38 113.231C1085.96 113.231 1082.38 116.813 1082.38 121.231V156.569C1082.38 160.987 1085.96 164.569 1090.38 164.569H1129.88C1134.29 164.569 1137.88 160.987 1137.88 156.569V121.231C1137.88 116.813 1134.29 113.231 1129.88 113.231H1090.38ZM910 168.847C905.582 168.847 902 172.429 902 176.847V212.184C902 216.603 905.582 220.184 910 220.184H949.5C953.918 220.184 957.5 216.603 957.5 212.184V176.847C957.5 172.429 953.918 168.847 949.5 168.847H910ZM910 224.462C905.582 224.462 902 228.044 902 232.462V267.8C902 272.218 905.582 275.8 910 275.8H949.5C953.918 275.8 957.5 272.218 957.5 267.8V232.462C957.5 228.044 953.918 224.462 949.5 224.462H910Z" fill="#006B32"/>
<path d="M970.125 2C965.707 2 962.125 5.58172 962.125 10V45.3375C962.125 49.7558 965.707 53.3375 970.125 53.3375H1009.62C1014.04 53.3375 1017.62 49.7558 1017.62 45.3375V10C1017.62 5.58172 1014.04 2 1009.62 2H970.125ZM1150.5 57.6156C1146.08 57.6156 1142.5 61.1973 1142.5 65.6156V100.953C1142.5 105.371 1146.08 108.953 1150.5 108.953H1190C1194.42 108.953 1198 105.371 1198 100.953V65.6156C1198 61.1973 1194.42 57.6156 1190 57.6156H1150.5ZM970.125 113.231C965.707 113.231 962.125 116.813 962.125 121.231V156.569C962.125 160.987 965.707 164.569 970.125 164.569H1009.62C1014.04 164.569 1017.62 160.987 1017.62 156.569V121.231C1017.62 116.813 1014.04 113.231 1009.62 113.231H970.125ZM1150.5 113.231C1146.08 113.231 1142.5 116.813 1142.5 121.231V156.569C1142.5 160.987 1146.08 164.569 1150.5 164.569H1190C1194.42 164.569 1198 160.987 1198 156.569V121.231C1198 116.813 1194.42 113.231 1190 113.231H1150.5ZM1030.25 224.462C1025.83 224.462 1022.25 228.044 1022.25 232.462V267.8C1022.25 272.218 1025.83 275.8 1030.25 275.8H1069.75C1074.17 275.8 1077.75 272.218 1077.75 267.8V232.462C1077.75 228.044 1074.17 224.462 1069.75 224.462H1030.25Z" fill="#26A642"/>
<path d="M1150.5 2C1146.08 2 1142.5 5.58172 1142.5 10V45.3375C1142.5 49.7558 1146.08 53.3375 1150.5 53.3375H1190C1194.42 53.3375 1198 49.7558 1198 45.3375V10C1198 5.58172 1194.42 2 1190 2H1150.5ZM1090.38 57.6156C1085.96 57.6156 1082.38 61.1973 1082.38 65.6156V100.953C1082.38 105.371 1085.96 108.953 1090.38 108.953H1129.88C1134.29 108.953 1137.88 105.371 1137.88 100.953V65.6156C1137.88 61.1973 1134.29 57.6156 1129.88 57.6156H1090.38ZM1090.38 168.847C1085.96 168.847 1082.38 172.429 1082.38 176.847V212.184C1082.38 216.603 1085.96 220.184 1090.38 220.184H1129.88C1134.29 220.184 1137.88 216.603 1137.88 212.184V176.847C1137.88 172.429 1134.29 168.847 1129.88 168.847H1090.38ZM1150.5 168.847C1146.08 168.847 1142.5 172.429 1142.5 176.847V212.184C1142.5 216.603 1146.08 220.184 1150.5 220.184H1190C1194.42 220.184 1198 216.603 1198 212.184V176.847C1198 172.429 1194.42 168.847 1190 168.847H1150.5ZM970.125 224.462C965.707 224.462 962.125 228.044 962.125 232.462V267.8C962.125 272.218 965.707 275.8 970.125 275.8H1009.62C1014.04 275.8 1017.62 272.218 1017.62 267.8V232.462C1017.62 228.044 1014.04 224.462 1009.62 224.462H970.125Z" fill="#3AD454"/>
<path d="M10 279.8C5.58172 279.8 2 283.382 2 287.8V323.137C2 327.556 5.58172 331.137 10 331.137H49.5C53.9183 331.137 57.5 327.556 57.5 323.137V287.8C57.5 283.382 53.9183 279.8 49.5 279.8H10ZM70.125 335.416C65.7067 335.416 62.125 338.997 62.125 343.416V378.753C62.125 383.171 65.7067 386.753 70.125 386.753H109.625C114.043 386.753 117.625 383.171 117.625 378.753V343.416C117.625 338.997 114.043 335.416 109.625 335.416H70.125ZM10 391.031C5.58172 391.031 2 394.613 2 399.031V434.369C2 438.787 5.58172 442.369 10 442.369H49.5C53.9183 442.369 57.5 438.787 57.5 434.369V399.031C57.5 394.613 53.9183 391.031 49.5 391.031H10ZM130.25 446.647C125.832 446.647 122.25 450.229 122.25 454.647V489.984C122.25 494.403 125.832 497.984 130.25 497.984H169.75C174.168 497.984 177.75 494.403 177.75 489.984V454.647C177.75 450.229 174.168 446.647 169.75 446.647H130.25ZM190.375 502.262C185.957 502.262 182.375 505.844 182.375 510.262V545.6C182.375 550.018 185.957 553.6 190.375 553.6H229.875C234.293 553.6 237.875 550.018 237.875 545.6V510.262C237.875 505.844 234.293 502.262 229.875 502.262H190.375Z" fill="#0E4429"/>
<path d="M130.25 279.8C125.832 279.8 122.25 283.382 122.25 287.8V323.137C122.25 327.556 125.832 331.137 130.25 331.137H169.75C174.168 331.137 177.75 327.556 177.75 323.137V287.8C177.75 283.382 174.168 279.8 169.75 279.8H130.25ZM130.25 335.416C125.832 335.416 122.25 338.997 122.25 343.416V378.753C122.25 383.171 125.832 386.753 130.25 386.753H169.75C174.168 386.753 177.75 383.171 177.75 378.753V343.416C177.75 338.997 174.168 335.416 169.75 335.416H130.25ZM190.375 391.031C185.957 391.031 182.375 394.613 182.375 399.031V434.369C182.375 438.787 185.957 442.369 190.375 442.369H229.875C234.293 442.369 237.875 438.787 237.875 434.369V399.031C237.875 394.613 234.293 391.031 229.875 391.031H190.375ZM10 446.647C5.58172 446.647 2 450.229 2 454.647V489.984C2 494.403 5.58172 497.984 10 497.984H49.5C53.9183 497.984 57.5 494.403 57.5 489.984V454.647C57.5 450.229 53.9183 446.647 49.5 446.647H10ZM10 502.262C5.58172 502.262 2 505.844 2 510.262V545.6C2 550.018 5.58172 553.6 10 553.6H49.5C53.9183 553.6 57.5 550.018 57.5 545.6V510.262C57.5 505.844 53.9183 502.262 49.5 502.262H10Z" fill="#006B32"/>
<path d="M70.125 279.8C65.7067 279.8 62.125 283.382 62.125 287.8V323.137C62.125 327.556 65.7067 331.137 70.125 331.137H109.625C114.043 331.137 117.625 327.556 117.625 323.137V287.8C117.625 283.382 114.043 279.8 109.625 279.8H70.125ZM250.5 335.416C246.082 335.416 242.5 338.997 242.5 343.416V378.753C242.5 383.171 246.082 386.753 250.5 386.753H290C294.418 386.753 298 383.171 298 378.753V343.416C298 338.997 294.418 335.416 290 335.416H250.5ZM70.125 391.031C65.7067 391.031 62.125 394.613 62.125 399.031V434.369C62.125 438.787 65.7067 442.369 70.125 442.369H109.625C114.043 442.369 117.625 438.787 117.625 434.369V399.031C117.625 394.613 114.043 391.031 109.625 391.031H70.125ZM250.5 391.031C246.082 391.031 242.5 394.613 242.5 399.031V434.369C242.5 438.787 246.082 442.369 250.5 442.369H290C294.418 442.369 298 438.787 298 434.369V399.031C298 394.613 294.418 391.031 290 391.031H250.5ZM130.25 502.262C125.832 502.262 122.25 505.844 122.25 510.262V545.6C122.25 550.018 125.832 553.6 130.25 553.6H169.75C174.168 553.6 177.75 550.018 177.75 545.6V510.262C177.75 505.844 174.168 502.262 169.75 502.262H130.25Z" fill="#26A642"/>
<path d="M250.5 279.8C246.082 279.8 242.5 283.382 242.5 287.8V323.137C242.5 327.556 246.082 331.137 250.5 331.137H290C294.418 331.137 298 327.556 298 323.137V287.8C298 283.382 294.418 279.8 290 279.8H250.5ZM190.375 335.416C185.957 335.416 182.375 338.997 182.375 343.416V378.753C182.375 383.171 185.957 386.753 190.375 386.753H229.875C234.293 386.753 237.875 383.171 237.875 378.753V343.416C237.875 338.997 234.293 335.416 229.875 335.416H190.375ZM190.375 446.647C185.957 446.647 182.375 450.229 182.375 454.647V489.984C182.375 494.403 185.957 497.984 190.375 497.984H229.875C234.293 497.984 237.875 494.403 237.875 489.984V454.647C237.875 450.229 234.293 446.647 229.875 446.647H190.375ZM250.5 446.647C246.082 446.647 242.5 450.229 242.5 454.647V489.984C242.5 494.403 246.082 497.984 250.5 497.984H290C294.418 497.984 298 494.403 298 489.984V454.647C298 450.229 294.418 446.647 290 446.647H250.5ZM70.125 502.262C65.7067 502.262 62.125 505.844 62.125 510.262V545.6C62.125 550.018 65.7067 553.6 70.125 553.6H109.625C114.043 553.6 117.625 550.018 117.625 545.6V510.262C117.625 505.844 114.043 502.262 109.625 502.262H70.125Z" fill="#3AD454"/>
<path d="M310 279.8C305.582 279.8 302 283.382 302 287.8V323.137C302 327.556 305.582 331.137 310 331.137H349.5C353.918 331.137 357.5 327.556 357.5 323.137V287.8C357.5 283.382 353.918 279.8 349.5 279.8H310ZM370.125 335.416C365.707 335.416 362.125 338.997 362.125 343.416V378.753C362.125 383.171 365.707 386.753 370.125 386.753H409.625C414.043 386.753 417.625 383.171 417.625 378.753V343.416C417.625 338.997 414.043 335.416 409.625 335.416H370.125ZM310 391.031C305.582 391.031 302 394.613 302 399.031V434.369C302 438.787 305.582 442.369 310 442.369H349.5C353.918 442.369 357.5 438.787 357.5 434.369V399.031C357.5 394.613 353.918 391.031 349.5 391.031H310ZM430.25 446.647C425.832 446.647 422.25 450.229 422.25 454.647V489.984C422.25 494.403 425.832 497.984 430.25 497.984H469.75C474.168 497.984 477.75 494.403 477.75 489.984V454.647C477.75 450.229 474.168 446.647 469.75 446.647H430.25ZM490.375 502.262C485.957 502.262 482.375 505.844 482.375 510.262V545.6C482.375 550.018 485.957 553.6 490.375 553.6H529.875C534.293 553.6 537.875 550.018 537.875 545.6V510.262C537.875 505.844 534.293 502.262 529.875 502.262H490.375Z" fill="#0E4429"/>
<path d="M430.25 279.8C425.832 279.8 422.25 283.382 422.25 287.8V323.137C422.25 327.556 425.832 331.137 430.25 331.137H469.75C474.168 331.137 477.75 327.556 477.75 323.137V287.8C477.75 283.382 474.168 279.8 469.75 279.8H430.25ZM430.25 335.416C425.832 335.416 422.25 338.997 422.25 343.416V378.753C422.25 383.171 425.832 386.753 430.25 386.753H469.75C474.168 386.753 477.75 383.171 477.75 378.753V343.416C477.75 338.997 474.168 335.416 469.75 335.416H430.25ZM490.375 391.031C485.957 391.031 482.375 394.613 482.375 399.031V434.369C482.375 438.787 485.957 442.369 490.375 442.369H529.875C534.293 442.369 537.875 438.787 537.875 434.369V399.031C537.875 394.613 534.293 391.031 529.875 391.031H490.375ZM310 446.647C305.582 446.647 302 450.229 302 454.647V489.984C302 494.403 305.582 497.984 310 497.984H349.5C353.918 497.984 357.5 494.403 357.5 489.984V454.647C357.5 450.229 353.918 446.647 349.5 446.647H310ZM310 502.262C305.582 502.262 302 505.844 302 510.262V545.6C302 550.018 305.582 553.6 310 553.6H349.5C353.918 553.6 357.5 550.018 357.5 545.6V510.262C357.5 505.844 353.918 502.262 349.5 502.262H310Z" fill="#006B32"/>
<path d="M370.125 279.8C365.707 279.8 362.125 283.382 362.125 287.8V323.137C362.125 327.556 365.707 331.137 370.125 331.137H409.625C414.043 331.137 417.625 327.556 417.625 323.137V287.8C417.625 283.382 414.043 279.8 409.625 279.8H370.125ZM550.5 335.416C546.082 335.416 542.5 338.997 542.5 343.416V378.753C542.5 383.171 546.082 386.753 550.5 386.753H590C594.418 386.753 598 383.171 598 378.753V343.416C598 338.997 594.418 335.416 590 335.416H550.5ZM370.125 391.031C365.707 391.031 362.125 394.613 362.125 399.031V434.369C362.125 438.787 365.707 442.369 370.125 442.369H409.625C414.043 442.369 417.625 438.787 417.625 434.369V399.031C417.625 394.613 414.043 391.031 409.625 391.031H370.125ZM550.5 391.031C546.082 391.031 542.5 394.613 542.5 399.031V434.369C542.5 438.787 546.082 442.369 550.5 442.369H590C594.418 442.369 598 438.787 598 434.369V399.031C598 394.613 594.418 391.031 590 391.031H550.5ZM430.25 502.262C425.832 502.262 422.25 505.844 422.25 510.262V545.6C422.25 550.018 425.832 553.6 430.25 553.6H469.75C474.168 553.6 477.75 550.018 477.75 545.6V510.262C477.75 505.844 474.168 502.262 469.75 502.262H430.25Z" fill="#26A642"/>
<path d="M550.5 279.8C546.082 279.8 542.5 283.382 542.5 287.8V323.137C542.5 327.556 546.082 331.137 550.5 331.137H590C594.418 331.137 598 327.556 598 323.137V287.8C598 283.382 594.418 279.8 590 279.8H550.5ZM490.375 335.416C485.957 335.416 482.375 338.997 482.375 343.416V378.753C482.375 383.171 485.957 386.753 490.375 386.753H529.875C534.293 386.753 537.875 383.171 537.875 378.753V343.416C537.875 338.997 534.293 335.416 529.875 335.416H490.375ZM490.375 446.647C485.957 446.647 482.375 450.229 482.375 454.647V489.984C482.375 494.403 485.957 497.984 490.375 497.984H529.875C534.293 497.984 537.875 494.403 537.875 489.984V454.647C537.875 450.229 534.293 446.647 529.875 446.647H490.375ZM550.5 446.647C546.082 446.647 542.5 450.229 542.5 454.647V489.984C542.5 494.403 546.082 497.984 550.5 497.984H590C594.418 497.984 598 494.403 598 489.984V454.647C598 450.229 594.418 446.647 590 446.647H550.5ZM370.125 502.262C365.707 502.262 362.125 505.844 362.125 510.262V545.6C362.125 550.018 365.707 553.6 370.125 553.6H409.625C414.043 553.6 417.625 550.018 417.625 545.6V510.262C417.625 505.844 414.043 502.262 409.625 502.262H370.125Z" fill="#3AD454"/>
<path d="M610 279.8C605.582 279.8 602 283.382 602 287.8V323.137C602 327.556 605.582 331.137 610 331.137H649.5C653.918 331.137 657.5 327.556 657.5 323.137V287.8C657.5 283.382 653.918 279.8 649.5 279.8H610ZM670.125 335.416C665.707 335.416 662.125 338.997 662.125 343.416V378.753C662.125 383.171 665.707 386.753 670.125 386.753H709.625C714.043 386.753 717.625 383.171 717.625 378.753V343.416C717.625 338.997 714.043 335.416 709.625 335.416H670.125ZM610 391.031C605.582 391.031 602 394.613 602 399.031V434.369C602 438.787 605.582 442.369 610 442.369H649.5C653.918 442.369 657.5 438.787 657.5 434.369V399.031C657.5 394.613 653.918 391.031 649.5 391.031H610ZM730.25 446.647C725.832 446.647 722.25 450.229 722.25 454.647V489.984C722.25 494.403 725.832 497.984 730.25 497.984H769.75C774.168 497.984 777.75 494.403 777.75 489.984V454.647C777.75 450.229 774.168 446.647 769.75 446.647H730.25ZM790.375 502.262C785.957 502.262 782.375 505.844 782.375 510.262V545.6C782.375 550.018 785.957 553.6 790.375 553.6H829.875C834.293 553.6 837.875 550.018 837.875 545.6V510.262C837.875 505.844 834.293 502.262 829.875 502.262H790.375Z" fill="#0E4429"/>
<path d="M730.25 279.8C725.832 279.8 722.25 283.382 722.25 287.8V323.137C722.25 327.556 725.832 331.137 730.25 331.137H769.75C774.168 331.137 777.75 327.556 777.75 323.137V287.8C777.75 283.382 774.168 279.8 769.75 279.8H730.25ZM730.25 335.416C725.832 335.416 722.25 338.997 722.25 343.416V378.753C722.25 383.171 725.832 386.753 730.25 386.753H769.75C774.168 386.753 777.75 383.171 777.75 378.753V343.416C777.75 338.997 774.168 335.416 769.75 335.416H730.25ZM790.375 391.031C785.957 391.031 782.375 394.613 782.375 399.031V434.369C782.375 438.787 785.957 442.369 790.375 442.369H829.875C834.293 442.369 837.875 438.787 837.875 434.369V399.031C837.875 394.613 834.293 391.031 829.875 391.031H790.375ZM610 446.647C605.582 446.647 602 450.229 602 454.647V489.984C602 494.403 605.582 497.984 610 497.984H649.5C653.918 497.984 657.5 494.403 657.5 489.984V454.647C657.5 450.229 653.918 446.647 649.5 446.647H610ZM610 502.262C605.582 502.262 602 505.844 602 510.262V545.6C602 550.018 605.582 553.6 610 553.6H649.5C653.918 553.6 657.5 550.018 657.5 545.6V510.262C657.5 505.844 653.918 502.262 649.5 502.262H610Z" fill="#006B32"/>
<path d="M670.125 279.8C665.707 279.8 662.125 283.382 662.125 287.8V323.137C662.125 327.556 665.707 331.137 670.125 331.137H709.625C714.043 331.137 717.625 327.556 717.625 323.137V287.8C717.625 283.382 714.043 279.8 709.625 279.8H670.125ZM850.5 335.416C846.082 335.416 842.5 338.997 842.5 343.416V378.753C842.5 383.171 846.082 386.753 850.5 386.753H890C894.418 386.753 898 383.171 898 378.753V343.416C898 338.997 894.418 335.416 890 335.416H850.5ZM670.125 391.031C665.707 391.031 662.125 394.613 662.125 399.031V434.369C662.125 438.787 665.707 442.369 670.125 442.369H709.625C714.043 442.369 717.625 438.787 717.625 434.369V399.031C717.625 394.613 714.043 391.031 709.625 391.031H670.125ZM850.5 391.031C846.082 391.031 842.5 394.613 842.5 399.031V434.369C842.5 438.787 846.082 442.369 850.5 442.369H890C894.418 442.369 898 438.787 898 434.369V399.031C898 394.613 894.418 391.031 890 391.031H850.5ZM730.25 502.262C725.832 502.262 722.25 505.844 722.25 510.262V545.6C722.25 550.018 725.832 553.6 730.25 553.6H769.75C774.168 553.6 777.75 550.018 777.75 545.6V510.262C777.75 505.844 774.168 502.262 769.75 502.262H730.25Z" fill="#26A642"/>
<path d="M850.5 279.8C846.082 279.8 842.5 283.382 842.5 287.8V323.137C842.5 327.556 846.082 331.137 850.5 331.137H890C894.418 331.137 898 327.556 898 323.137V287.8C898 283.382 894.418 279.8 890 279.8H850.5ZM790.375 335.416C785.957 335.416 782.375 338.997 782.375 343.416V378.753C782.375 383.171 785.957 386.753 790.375 386.753H829.875C834.293 386.753 837.875 383.171 837.875 378.753V343.416C837.875 338.997 834.293 335.416 829.875 335.416H790.375ZM790.375 446.647C785.957 446.647 782.375 450.229 782.375 454.647V489.984C782.375 494.403 785.957 497.984 790.375 497.984H829.875C834.293 497.984 837.875 494.403 837.875 489.984V454.647C837.875 450.229 834.293 446.647 829.875 446.647H790.375ZM850.5 446.647C846.082 446.647 842.5 450.229 842.5 454.647V489.984C842.5 494.403 846.082 497.984 850.5 497.984H890C894.418 497.984 898 494.403 898 489.984V454.647C898 450.229 894.418 446.647 890 446.647H850.5ZM670.125 502.262C665.707 502.262 662.125 505.844 662.125 510.262V545.6C662.125 550.018 665.707 553.6 670.125 553.6H709.625C714.043 553.6 717.625 550.018 717.625 545.6V510.262C717.625 505.844 714.043 502.262 709.625 502.262H670.125Z" fill="#3AD454"/>
<path d="M910 279.8C905.582 279.8 902 283.382 902 287.8V323.137C902 327.556 905.582 331.137 910 331.137H949.5C953.918 331.137 957.5 327.556 957.5 323.137V287.8C957.5 283.382 953.918 279.8 949.5 279.8H910ZM970.125 335.416C965.707 335.416 962.125 338.997 962.125 343.416V378.753C962.125 383.171 965.707 386.753 970.125 386.753H1009.62C1014.04 386.753 1017.62 383.171 1017.62 378.753V343.416C1017.62 338.997 1014.04 335.416 1009.62 335.416H970.125ZM910 391.031C905.582 391.031 902 394.613 902 399.031V434.369C902 438.787 905.582 442.369 910 442.369H949.5C953.918 442.369 957.5 438.787 957.5 434.369V399.031C957.5 394.613 953.918 391.031 949.5 391.031H910ZM1030.25 446.647C1025.83 446.647 1022.25 450.229 1022.25 454.647V489.984C1022.25 494.403 1025.83 497.984 1030.25 497.984H1069.75C1074.17 497.984 1077.75 494.403 1077.75 489.984V454.647C1077.75 450.229 1074.17 446.647 1069.75 446.647H1030.25ZM1090.38 502.262C1085.96 502.262 1082.38 505.844 1082.38 510.262V545.6C1082.38 550.018 1085.96 553.6 1090.38 553.6H1129.88C1134.29 553.6 1137.88 550.018 1137.88 545.6V510.262C1137.88 505.844 1134.29 502.262 1129.88 502.262H1090.38Z" fill="#0E4429"/>
<path d="M1030.25 279.8C1025.83 279.8 1022.25 283.382 1022.25 287.8V323.137C1022.25 327.556 1025.83 331.137 1030.25 331.137H1069.75C1074.17 331.137 1077.75 327.556 1077.75 323.137V287.8C1077.75 283.382 1074.17 279.8 1069.75 279.8H1030.25ZM1030.25 335.416C1025.83 335.416 1022.25 338.997 1022.25 343.416V378.753C1022.25 383.171 1025.83 386.753 1030.25 386.753H1069.75C1074.17 386.753 1077.75 383.171 1077.75 378.753V343.416C1077.75 338.997 1074.17 335.416 1069.75 335.416H1030.25ZM1090.38 391.031C1085.96 391.031 1082.38 394.613 1082.38 399.031V434.369C1082.38 438.787 1085.96 442.369 1090.38 442.369H1129.88C1134.29 442.369 1137.88 438.787 1137.88 434.369V399.031C1137.88 394.613 1134.29 391.031 1129.88 391.031H1090.38ZM910 446.647C905.582 446.647 902 450.229 902 454.647V489.984C902 494.403 905.582 497.984 910 497.984H949.5C953.918 497.984 957.5 494.403 957.5 489.984V454.647C957.5 450.229 953.918 446.647 949.5 446.647H910ZM910 502.262C905.582 502.262 902 505.844 902 510.262V545.6C902 550.018 905.582 553.6 910 553.6H949.5C953.918 553.6 957.5 550.018 957.5 545.6V510.262C957.5 505.844 953.918 502.262 949.5 502.262H910Z" fill="#006B32"/>
<path d="M970.125 279.8C965.707 279.8 962.125 283.382 962.125 287.8V323.137C962.125 327.556 965.707 331.137 970.125 331.137H1009.62C1014.04 331.137 1017.62 327.556 1017.62 323.137V287.8C1017.62 283.382 1014.04 279.8 1009.62 279.8H970.125ZM1150.5 335.416C1146.08 335.416 1142.5 338.997 1142.5 343.416V378.753C1142.5 383.171 1146.08 386.753 1150.5 386.753H1190C1194.42 386.753 1198 383.171 1198 378.753V343.416C1198 338.997 1194.42 335.416 1190 335.416H1150.5ZM970.125 391.031C965.707 391.031 962.125 394.613 962.125 399.031V434.369C962.125 438.787 965.707 442.369 970.125 442.369H1009.62C1014.04 442.369 1017.62 438.787 1017.62 434.369V399.031C1017.62 394.613 1014.04 391.031 1009.62 391.031H970.125ZM1150.5 391.031C1146.08 391.031 1142.5 394.613 1142.5 399.031V434.369C1142.5 438.787 1146.08 442.369 1150.5 442.369H1190C1194.42 442.369 1198 438.787 1198 434.369V399.031C1198 394.613 1194.42 391.031 1190 391.031H1150.5ZM1030.25 502.262C1025.83 502.262 1022.25 505.844 1022.25 510.262V545.6C1022.25 550.018 1025.83 553.6 1030.25 553.6H1069.75C1074.17 553.6 1077.75 550.018 1077.75 545.6V510.262C1077.75 505.844 1074.17 502.262 1069.75 502.262H1030.25Z" fill="#26A642"/>
<path d="M1150.5 279.8C1146.08 279.8 1142.5 283.382 1142.5 287.8V323.137C1142.5 327.556 1146.08 331.137 1150.5 331.137H1190C1194.42 331.137 1198 327.556 1198 323.137V287.8C1198 283.382 1194.42 279.8 1190 279.8H1150.5ZM1090.38 335.416C1085.96 335.416 1082.38 338.997 1082.38 343.416V378.753C1082.38 383.171 1085.96 386.753 1090.38 386.753H1129.88C1134.29 386.753 1137.88 383.171 1137.88 378.753V343.416C1137.88 338.997 1134.29 335.416 1129.88 335.416H1090.38ZM1090.38 446.647C1085.96 446.647 1082.38 450.229 1082.38 454.647V489.984C1082.38 494.403 1085.96 497.984 1090.38 497.984H1129.88C1134.29 497.984 1137.88 494.403 1137.88 489.984V454.647C1137.88 450.229 1134.29 446.647 1129.88 446.647H1090.38ZM1150.5 446.647C1146.08 446.647 1142.5 450.229 1142.5 454.647V489.984C1142.5 494.403 1146.08 497.984 1150.5 497.984H1190C1194.42 497.984 1198 494.403 1198 489.984V454.647C1198 450.229 1194.42 446.647 1190 446.647H1150.5ZM970.125 502.262C965.707 502.262 962.125 505.844 962.125 510.262V545.6C962.125 550.018 965.707 553.6 970.125 553.6H1009.62C1014.04 553.6 1017.62 550.018 1017.62 545.6V510.262C1017.62 505.844 1014.04 502.262 1009.62 502.262H970.125Z" fill="#3AD454"/>
<path d="M10 557.6C5.58172 557.6 2 561.182 2 565.6V600.937C2 605.356 5.58172 608.937 10 608.937H49.5C53.9183 608.937 57.5 605.356 57.5 600.937V565.6C57.5 561.182 53.9183 557.6 49.5 557.6H10ZM70.125 613.215C65.7067 613.215 62.125 616.797 62.125 621.215V656.553C62.125 660.971 65.7067 664.553 70.125 664.553H109.625C114.043 664.553 117.625 660.971 117.625 656.553V621.215C117.625 616.797 114.043 613.215 109.625 613.215H70.125ZM10 668.831C5.58172 668.831 2 672.413 2 676.831V712.169C2 716.587 5.58172 720.169 10 720.169H49.5C53.9183 720.169 57.5 716.587 57.5 712.169V676.831C57.5 672.413 53.9183 668.831 49.5 668.831H10ZM130.25 724.447C125.832 724.447 122.25 728.028 122.25 732.447V767.784C122.25 772.202 125.832 775.784 130.25 775.784H169.75C174.168 775.784 177.75 772.202 177.75 767.784V732.447C177.75 728.028 174.168 724.447 169.75 724.447H130.25ZM190.375 780.062C185.957 780.062 182.375 783.644 182.375 788.062V823.4C182.375 827.818 185.957 831.4 190.375 831.4H229.875C234.293 831.4 237.875 827.818 237.875 823.4V788.062C237.875 783.644 234.293 780.062 229.875 780.062H190.375Z" fill="#0E4429"/>
<path d="M130.25 557.6C125.832 557.6 122.25 561.182 122.25 565.6V600.937C122.25 605.356 125.832 608.937 130.25 608.937H169.75C174.168 608.937 177.75 605.356 177.75 600.937V565.6C177.75 561.182 174.168 557.6 169.75 557.6H130.25ZM130.25 613.215C125.832 613.215 122.25 616.797 122.25 621.215V656.553C122.25 660.971 125.832 664.553 130.25 664.553H169.75C174.168 664.553 177.75 660.971 177.75 656.553V621.215C177.75 616.797 174.168 613.215 169.75 613.215H130.25ZM190.375 668.831C185.957 668.831 182.375 672.413 182.375 676.831V712.169C182.375 716.587 185.957 720.169 190.375 720.169H229.875C234.293 720.169 237.875 716.587 237.875 712.169V676.831C237.875 672.413 234.293 668.831 229.875 668.831H190.375ZM10 724.447C5.58172 724.447 2 728.028 2 732.447V767.784C2 772.202 5.58172 775.784 10 775.784H49.5C53.9183 775.784 57.5 772.202 57.5 767.784V732.447C57.5 728.028 53.9183 724.447 49.5 724.447H10ZM10 780.062C5.58172 780.062 2 783.644 2 788.062V823.4C2 827.818 5.58172 831.4 10 831.4H49.5C53.9183 831.4 57.5 827.818 57.5 823.4V788.062C57.5 783.644 53.9183 780.062 49.5 780.062H10Z" fill="#006B32"/>
<path d="M70.125 557.6C65.7067 557.6 62.125 561.182 62.125 565.6V600.937C62.125 605.356 65.7067 608.937 70.125 608.937H109.625C114.043 608.937 117.625 605.356 117.625 600.937V565.6C117.625 561.182 114.043 557.6 109.625 557.6H70.125ZM250.5 613.215C246.082 613.215 242.5 616.797 242.5 621.215V656.553C242.5 660.971 246.082 664.553 250.5 664.553H290C294.418 664.553 298 660.971 298 656.553V621.215C298 616.797 294.418 613.215 290 613.215H250.5ZM70.125 668.831C65.7067 668.831 62.125 672.413 62.125 676.831V712.169C62.125 716.587 65.7067 720.169 70.125 720.169H109.625C114.043 720.169 117.625 716.587 117.625 712.169V676.831C117.625 672.413 114.043 668.831 109.625 668.831H70.125ZM250.5 668.831C246.082 668.831 242.5 672.413 242.5 676.831V712.169C242.5 716.587 246.082 720.169 250.5 720.169H290C294.418 720.169 298 716.587 298 712.169V676.831C298 672.413 294.418 668.831 290 668.831H250.5ZM130.25 780.062C125.832 780.062 122.25 783.644 122.25 788.062V823.4C122.25 827.818 125.832 831.4 130.25 831.4H169.75C174.168 831.4 177.75 827.818 177.75 823.4V788.062C177.75 783.644 174.168 780.062 169.75 780.062H130.25Z" fill="#26A642"/>
<path d="M250.5 557.6C246.082 557.6 242.5 561.182 242.5 565.6V600.937C242.5 605.356 246.082 608.937 250.5 608.937H290C294.418 608.937 298 605.356 298 600.937V565.6C298 561.182 294.418 557.6 290 557.6H250.5ZM190.375 613.215C185.957 613.215 182.375 616.797 182.375 621.215V656.553C182.375 660.971 185.957 664.553 190.375 664.553H229.875C234.293 664.553 237.875 660.971 237.875 656.553V621.215C237.875 616.797 234.293 613.215 229.875 613.215H190.375ZM190.375 724.447C185.957 724.447 182.375 728.028 182.375 732.447V767.784C182.375 772.202 185.957 775.784 190.375 775.784H229.875C234.293 775.784 237.875 772.202 237.875 767.784V732.447C237.875 728.028 234.293 724.447 229.875 724.447H190.375ZM250.5 724.447C246.082 724.447 242.5 728.028 242.5 732.447V767.784C242.5 772.202 246.082 775.784 250.5 775.784H290C294.418 775.784 298 772.202 298 767.784V732.447C298 728.028 294.418 724.447 290 724.447H250.5ZM70.125 780.062C65.7067 780.062 62.125 783.644 62.125 788.062V823.4C62.125 827.818 65.7067 831.4 70.125 831.4H109.625C114.043 831.4 117.625 827.818 117.625 823.4V788.062C117.625 783.644 114.043 780.062 109.625 780.062H70.125Z" fill="#3AD454"/>
<path d="M310 557.6C305.582 557.6 302 561.182 302 565.6V600.937C302 605.356 305.582 608.937 310 608.937H349.5C353.918 608.937 357.5 605.356 357.5 600.937V565.6C357.5 561.182 353.918 557.6 349.5 557.6H310ZM370.125 613.215C365.707 613.215 362.125 616.797 362.125 621.215V656.553C362.125 660.971 365.707 664.553 370.125 664.553H409.625C414.043 664.553 417.625 660.971 417.625 656.553V621.215C417.625 616.797 414.043 613.215 409.625 613.215H370.125ZM310 668.831C305.582 668.831 302 672.413 302 676.831V712.169C302 716.587 305.582 720.169 310 720.169H349.5C353.918 720.169 357.5 716.587 357.5 712.169V676.831C357.5 672.413 353.918 668.831 349.5 668.831H310ZM430.25 724.447C425.832 724.447 422.25 728.028 422.25 732.447V767.784C422.25 772.202 425.832 775.784 430.25 775.784H469.75C474.168 775.784 477.75 772.202 477.75 767.784V732.447C477.75 728.028 474.168 724.447 469.75 724.447H430.25ZM490.375 780.062C485.957 780.062 482.375 783.644 482.375 788.062V823.4C482.375 827.818 485.957 831.4 490.375 831.4H529.875C534.293 831.4 537.875 827.818 537.875 823.4V788.062C537.875 783.644 534.293 780.062 529.875 780.062H490.375Z" fill="#0E4429"/>
<path d="M430.25 557.6C425.832 557.6 422.25 561.182 422.25 565.6V600.937C422.25 605.356 425.832 608.937 430.25 608.937H469.75C474.168 608.937 477.75 605.356 477.75 600.937V565.6C477.75 561.182 474.168 557.6 469.75 557.6H430.25ZM430.25 613.215C425.832 613.215 422.25 616.797 422.25 621.215V656.553C422.25 660.971 425.832 664.553 430.25 664.553H469.75C474.168 664.553 477.75 660.971 477.75 656.553V621.215C477.75 616.797 474.168 613.215 469.75 613.215H430.25ZM490.375 668.831C485.957 668.831 482.375 672.413 482.375 676.831V712.169C482.375 716.587 485.957 720.169 490.375 720.169H529.875C534.293 720.169 537.875 716.587 537.875 712.169V676.831C537.875 672.413 534.293 668.831 529.875 668.831H490.375ZM310 724.447C305.582 724.447 302 728.028 302 732.447V767.784C302 772.202 305.582 775.784 310 775.784H349.5C353.918 775.784 357.5 772.202 357.5 767.784V732.447C357.5 728.028 353.918 724.447 349.5 724.447H310ZM310 780.062C305.582 780.062 302 783.644 302 788.062V823.4C302 827.818 305.582 831.4 310 831.4H349.5C353.918 831.4 357.5 827.818 357.5 823.4V788.062C357.5 783.644 353.918 780.062 349.5 780.062H310Z" fill="#006B32"/>
<path d="M370.125 557.6C365.707 557.6 362.125 561.182 362.125 565.6V600.937C362.125 605.356 365.707 608.937 370.125 608.937H409.625C414.043 608.937 417.625 605.356 417.625 600.937V565.6C417.625 561.182 414.043 557.6 409.625 557.6H370.125ZM550.5 613.215C546.082 613.215 542.5 616.797 542.5 621.215V656.553C542.5 660.971 546.082 664.553 550.5 664.553H590C594.418 664.553 598 660.971 598 656.553V621.215C598 616.797 594.418 613.215 590 613.215H550.5ZM370.125 668.831C365.707 668.831 362.125 672.413 362.125 676.831V712.169C362.125 716.587 365.707 720.169 370.125 720.169H409.625C414.043 720.169 417.625 716.587 417.625 712.169V676.831C417.625 672.413 414.043 668.831 409.625 668.831H370.125ZM550.5 668.831C546.082 668.831 542.5 672.413 542.5 676.831V712.169C542.5 716.587 546.082 720.169 550.5 720.169H590C594.418 720.169 598 716.587 598 712.169V676.831C598 672.413 594.418 668.831 590 668.831H550.5ZM430.25 780.062C425.832 780.062 422.25 783.644 422.25 788.062V823.4C422.25 827.818 425.832 831.4 430.25 831.4H469.75C474.168 831.4 477.75 827.818 477.75 823.4V788.062C477.75 783.644 474.168 780.062 469.75 780.062H430.25Z" fill="#26A642"/>
<path d="M550.5 557.6C546.082 557.6 542.5 561.182 542.5 565.6V600.937C542.5 605.356 546.082 608.937 550.5 608.937H590C594.418 608.937 598 605.356 598 600.937V565.6C598 561.182 594.418 557.6 590 557.6H550.5ZM490.375 613.215C485.957 613.215 482.375 616.797 482.375 621.215V656.553C482.375 660.971 485.957 664.553 490.375 664.553H529.875C534.293 664.553 537.875 660.971 537.875 656.553V621.215C537.875 616.797 534.293 613.215 529.875 613.215H490.375ZM490.375 724.447C485.957 724.447 482.375 728.028 482.375 732.447V767.784C482.375 772.202 485.957 775.784 490.375 775.784H529.875C534.293 775.784 537.875 772.202 537.875 767.784V732.447C537.875 728.028 534.293 724.447 529.875 724.447H490.375ZM550.5 724.447C546.082 724.447 542.5 728.028 542.5 732.447V767.784C542.5 772.202 546.082 775.784 550.5 775.784H590C594.418 775.784 598 772.202 598 767.784V732.447C598 728.028 594.418 724.447 590 724.447H550.5ZM370.125 780.062C365.707 780.062 362.125 783.644 362.125 788.062V823.4C362.125 827.818 365.707 831.4 370.125 831.4H409.625C414.043 831.4 417.625 827.818 417.625 823.4V788.062C417.625 783.644 414.043 780.062 409.625 780.062H370.125Z" fill="#3AD454"/>
<path d="M610 557.6C605.582 557.6 602 561.182 602 565.6V600.937C602 605.356 605.582 608.937 610 608.937H649.5C653.918 608.937 657.5 605.356 657.5 600.937V565.6C657.5 561.182 653.918 557.6 649.5 557.6H610ZM670.125 613.215C665.707 613.215 662.125 616.797 662.125 621.215V656.553C662.125 660.971 665.707 664.553 670.125 664.553H709.625C714.043 664.553 717.625 660.971 717.625 656.553V621.215C717.625 616.797 714.043 613.215 709.625 613.215H670.125ZM610 668.831C605.582 668.831 602 672.413 602 676.831V712.169C602 716.587 605.582 720.169 610 720.169H649.5C653.918 720.169 657.5 716.587 657.5 712.169V676.831C657.5 672.413 653.918 668.831 649.5 668.831H610ZM730.25 724.447C725.832 724.447 722.25 728.028 722.25 732.447V767.784C722.25 772.202 725.832 775.784 730.25 775.784H769.75C774.168 775.784 777.75 772.202 777.75 767.784V732.447C777.75 728.028 774.168 724.447 769.75 724.447H730.25ZM790.375 780.062C785.957 780.062 782.375 783.644 782.375 788.062V823.4C782.375 827.818 785.957 831.4 790.375 831.4H829.875C834.293 831.4 837.875 827.818 837.875 823.4V788.062C837.875 783.644 834.293 780.062 829.875 780.062H790.375Z" fill="#0E4429"/>
<path d="M730.25 557.6C725.832 557.6 722.25 561.182 722.25 565.6V600.937C722.25 605.356 725.832 608.937 730.25 608.937H769.75C774.168 608.937 777.75 605.356 777.75 600.937V565.6C777.75 561.182 774.168 557.6 769.75 557.6H730.25ZM730.25 613.215C725.832 613.215 722.25 616.797 722.25 621.215V656.553C722.25 660.971 725.832 664.553 730.25 664.553H769.75C774.168 664.553 777.75 660.971 777.75 656.553V621.215C777.75 616.797 774.168 613.215 769.75 613.215H730.25ZM790.375 668.831C785.957 668.831 782.375 672.413 782.375 676.831V712.169C782.375 716.587 785.957 720.169 790.375 720.169H829.875C834.293 720.169 837.875 716.587 837.875 712.169V676.831C837.875 672.413 834.293 668.831 829.875 668.831H790.375ZM610 724.447C605.582 724.447 602 728.028 602 732.447V767.784C602 772.202 605.582 775.784 610 775.784H649.5C653.918 775.784 657.5 772.202 657.5 767.784V732.447C657.5 728.028 653.918 724.447 649.5 724.447H610ZM610 780.062C605.582 780.062 602 783.644 602 788.062V823.4C602 827.818 605.582 831.4 610 831.4H649.5C653.918 831.4 657.5 827.818 657.5 823.4V788.062C657.5 783.644 653.918 780.062 649.5 780.062H610Z" fill="#006B32"/>
<path d="M670.125 557.6C665.707 557.6 662.125 561.182 662.125 565.6V600.937C662.125 605.356 665.707 608.937 670.125 608.937H709.625C714.043 608.937 717.625 605.356 717.625 600.937V565.6C717.625 561.182 714.043 557.6 709.625 557.6H670.125ZM850.5 613.215C846.082 613.215 842.5 616.797 842.5 621.215V656.553C842.5 660.971 846.082 664.553 850.5 664.553H890C894.418 664.553 898 660.971 898 656.553V621.215C898 616.797 894.418 613.215 890 613.215H850.5ZM670.125 668.831C665.707 668.831 662.125 672.413 662.125 676.831V712.169C662.125 716.587 665.707 720.169 670.125 720.169H709.625C714.043 720.169 717.625 716.587 717.625 712.169V676.831C717.625 672.413 714.043 668.831 709.625 668.831H670.125ZM850.5 668.831C846.082 668.831 842.5 672.413 842.5 676.831V712.169C842.5 716.587 846.082 720.169 850.5 720.169H890C894.418 720.169 898 716.587 898 712.169V676.831C898 672.413 894.418 668.831 890 668.831H850.5ZM730.25 780.062C725.832 780.062 722.25 783.644 722.25 788.062V823.4C722.25 827.818 725.832 831.4 730.25 831.4H769.75C774.168 831.4 777.75 827.818 777.75 823.4V788.062C777.75 783.644 774.168 780.062 769.75 780.062H730.25Z" fill="#26A642"/>
<path d="M850.5 557.6C846.082 557.6 842.5 561.182 842.5 565.6V600.937C842.5 605.356 846.082 608.937 850.5 608.937H890C894.418 608.937 898 605.356 898 600.937V565.6C898 561.182 894.418 557.6 890 557.6H850.5ZM790.375 613.215C785.957 613.215 782.375 616.797 782.375 621.215V656.553C782.375 660.971 785.957 664.553 790.375 664.553H829.875C834.293 664.553 837.875 660.971 837.875 656.553V621.215C837.875 616.797 834.293 613.215 829.875 613.215H790.375ZM790.375 724.447C785.957 724.447 782.375 728.028 782.375 732.447V767.784C782.375 772.202 785.957 775.784 790.375 775.784H829.875C834.293 775.784 837.875 772.202 837.875 767.784V732.447C837.875 728.028 834.293 724.447 829.875 724.447H790.375ZM850.5 724.447C846.082 724.447 842.5 728.028 842.5 732.447V767.784C842.5 772.202 846.082 775.784 850.5 775.784H890C894.418 775.784 898 772.202 898 767.784V732.447C898 728.028 894.418 724.447 890 724.447H850.5ZM670.125 780.062C665.707 780.062 662.125 783.644 662.125 788.062V823.4C662.125 827.818 665.707 831.4 670.125 831.4H709.625C714.043 831.4 717.625 827.818 717.625 823.4V788.062C717.625 783.644 714.043 780.062 709.625 780.062H670.125Z" fill="#3AD454"/>
<path d="M910 557.6C905.582 557.6 902 561.182 902 565.6V600.937C902 605.356 905.582 608.937 910 608.937H949.5C953.918 608.937 957.5 605.356 957.5 600.937V565.6C957.5 561.182 953.918 557.6 949.5 557.6H910ZM970.125 613.215C965.707 613.215 962.125 616.797 962.125 621.215V656.553C962.125 660.971 965.707 664.553 970.125 664.553H1009.62C1014.04 664.553 1017.62 660.971 1017.62 656.553V621.215C1017.62 616.797 1014.04 613.215 1009.62 613.215H970.125ZM910 668.831C905.582 668.831 902 672.413 902 676.831V712.169C902 716.587 905.582 720.169 910 720.169H949.5C953.918 720.169 957.5 716.587 957.5 712.169V676.831C957.5 672.413 953.918 668.831 949.5 668.831H910ZM1030.25 724.447C1025.83 724.447 1022.25 728.028 1022.25 732.447V767.784C1022.25 772.202 1025.83 775.784 1030.25 775.784H1069.75C1074.17 775.784 1077.75 772.202 1077.75 767.784V732.447C1077.75 728.028 1074.17 724.447 1069.75 724.447H1030.25ZM1090.38 780.062C1085.96 780.062 1082.38 783.644 1082.38 788.062V823.4C1082.38 827.818 1085.96 831.4 1090.38 831.4H1129.88C1134.29 831.4 1137.88 827.818 1137.88 823.4V788.062C1137.88 783.644 1134.29 780.062 1129.88 780.062H1090.38Z" fill="#0E4429"/>
<path d="M1030.25 557.6C1025.83 557.6 1022.25 561.182 1022.25 565.6V600.937C1022.25 605.356 1025.83 608.937 1030.25 608.937H1069.75C1074.17 608.937 1077.75 605.356 1077.75 600.937V565.6C1077.75 561.182 1074.17 557.6 1069.75 557.6H1030.25ZM1030.25 613.215C1025.83 613.215 1022.25 616.797 1022.25 621.215V656.553C1022.25 660.971 1025.83 664.553 1030.25 664.553H1069.75C1074.17 664.553 1077.75 660.971 1077.75 656.553V621.215C1077.75 616.797 1074.17 613.215 1069.75 613.215H1030.25ZM1090.38 668.831C1085.96 668.831 1082.38 672.413 1082.38 676.831V712.169C1082.38 716.587 1085.96 720.169 1090.38 720.169H1129.88C1134.29 720.169 1137.88 716.587 1137.88 712.169V676.831C1137.88 672.413 1134.29 668.831 1129.88 668.831H1090.38ZM910 724.447C905.582 724.447 902 728.028 902 732.447V767.784C902 772.202 905.582 775.784 910 775.784H949.5C953.918 775.784 957.5 772.202 957.5 767.784V732.447C957.5 728.028 953.918 724.447 949.5 724.447H910ZM910 780.062C905.582 780.062 902 783.644 902 788.062V823.4C902 827.818 905.582 831.4 910 831.4H949.5C953.918 831.4 957.5 827.818 957.5 823.4V788.062C957.5 783.644 953.918 780.062 949.5 780.062H910Z" fill="#006B32"/>
<path d="M970.125 557.6C965.707 557.6 962.125 561.182 962.125 565.6V600.937C962.125 605.356 965.707 608.937 970.125 608.937H1009.62C1014.04 608.937 1017.62 605.356 1017.62 600.937V565.6C1017.62 561.182 1014.04 557.6 1009.62 557.6H970.125ZM1150.5 613.215C1146.08 613.215 1142.5 616.797 1142.5 621.215V656.553C1142.5 660.971 1146.08 664.553 1150.5 664.553H1190C1194.42 664.553 1198 660.971 1198 656.553V621.215C1198 616.797 1194.42 613.215 1190 613.215H1150.5ZM970.125 668.831C965.707 668.831 962.125 672.413 962.125 676.831V712.169C962.125 716.587 965.707 720.169 970.125 720.169H1009.62C1014.04 720.169 1017.62 716.587 1017.62 712.169V676.831C1017.62 672.413 1014.04 668.831 1009.62 668.831H970.125ZM1150.5 668.831C1146.08 668.831 1142.5 672.413 1142.5 676.831V712.169C1142.5 716.587 1146.08 720.169 1150.5 720.169H1190C1194.42 720.169 1198 716.587 1198 712.169V676.831C1198 672.413 1194.42 668.831 1190 668.831H1150.5ZM1030.25 780.062C1025.83 780.062 1022.25 783.644 1022.25 788.062V823.4C1022.25 827.818 1025.83 831.4 1030.25 831.4H1069.75C1074.17 831.4 1077.75 827.818 1077.75 823.4V788.062C1077.75 783.644 1074.17 780.062 1069.75 780.062H1030.25Z" fill="#26A642"/>
<path d="M1150.5 557.6C1146.08 557.6 1142.5 561.182 1142.5 565.6V600.937C1142.5 605.356 1146.08 608.937 1150.5 608.937H1190C1194.42 608.937 1198 605.356 1198 600.937V565.6C1198 561.182 1194.42 557.6 1190 557.6H1150.5ZM1090.38 613.215C1085.96 613.215 1082.38 616.797 1082.38 621.215V656.553C1082.38 660.971 1085.96 664.553 1090.38 664.553H1129.88C1134.29 664.553 1137.88 660.971 1137.88 656.553V621.215C1137.88 616.797 1134.29 613.215 1129.88 613.215H1090.38ZM1090.38 724.447C1085.96 724.447 1082.38 728.028 1082.38 732.447V767.784C1082.38 772.202 1085.96 775.784 1090.38 775.784H1129.88C1134.29 775.784 1137.88 772.202 1137.88 767.784V732.447C1137.88 728.028 1134.29 724.447 1129.88 724.447H1090.38ZM1150.5 724.447C1146.08 724.447 1142.5 728.028 1142.5 732.447V767.784C1142.5 772.202 1146.08 775.784 1150.5 775.784H1190C1194.42 775.784 1198 772.202 1198 767.784V732.447C1198 728.028 1194.42 724.447 1190 724.447H1150.5ZM970.125 780.062C965.707 780.062 962.125 783.644 962.125 788.062V823.4C962.125 827.818 965.707 831.4 970.125 831.4H1009.62C1014.04 831.4 1017.62 827.818 1017.62 823.4V788.062C1017.62 783.644 1014.04 780.062 1009.62 780.062H970.125Z" fill="#3AD454"/>
<path d="M10 835.4C5.58172 835.4 2 838.982 2 843.4V878.737C2 883.156 5.58172 886.737 10 886.737H49.5C53.9183 886.737 57.5 883.156 57.5 878.737V843.4C57.5 838.982 53.9183 835.4 49.5 835.4H10ZM70.125 891.016C65.7067 891.016 62.125 894.597 62.125 899.016V934.353C62.125 938.771 65.7067 942.353 70.125 942.353H109.625C114.043 942.353 117.625 938.771 117.625 934.353V899.016C117.625 894.597 114.043 891.016 109.625 891.016H70.125ZM10 946.631C5.58172 946.631 2 950.213 2 954.631V989.969C2 994.387 5.58172 997.969 10 997.969H49.5C53.9183 997.969 57.5 994.387 57.5 989.969V954.631C57.5 950.213 53.9183 946.631 49.5 946.631H10ZM130.25 1002.25C125.832 1002.25 122.25 1005.83 122.25 1010.25V1045.58C122.25 1050 125.832 1053.58 130.25 1053.58H169.75C174.168 1053.58 177.75 1050 177.75 1045.58V1010.25C177.75 1005.83 174.168 1002.25 169.75 1002.25H130.25ZM190.375 1057.86C185.957 1057.86 182.375 1061.44 182.375 1065.86V1101.2C182.375 1105.62 185.957 1109.2 190.375 1109.2H229.875C234.293 1109.2 237.875 1105.62 237.875 1101.2V1065.86C237.875 1061.44 234.293 1057.86 229.875 1057.86H190.375Z" fill="#0E4429"/>
<path d="M130.25 835.4C125.832 835.4 122.25 838.982 122.25 843.4V878.737C122.25 883.156 125.832 886.737 130.25 886.737H169.75C174.168 886.737 177.75 883.156 177.75 878.737V843.4C177.75 838.982 174.168 835.4 169.75 835.4H130.25ZM130.25 891.016C125.832 891.016 122.25 894.597 122.25 899.016V934.353C122.25 938.771 125.832 942.353 130.25 942.353H169.75C174.168 942.353 177.75 938.771 177.75 934.353V899.016C177.75 894.597 174.168 891.016 169.75 891.016H130.25ZM190.375 946.631C185.957 946.631 182.375 950.213 182.375 954.631V989.969C182.375 994.387 185.957 997.969 190.375 997.969H229.875C234.293 997.969 237.875 994.387 237.875 989.969V954.631C237.875 950.213 234.293 946.631 229.875 946.631H190.375ZM10 1002.25C5.58172 1002.25 2 1005.83 2 1010.25V1045.58C2 1050 5.58172 1053.58 10 1053.58H49.5C53.9183 1053.58 57.5 1050 57.5 1045.58V1010.25C57.5 1005.83 53.9183 1002.25 49.5 1002.25H10ZM10 1057.86C5.58172 1057.86 2 1061.44 2 1065.86V1101.2C2 1105.62 5.58172 1109.2 10 1109.2H49.5C53.9183 1109.2 57.5 1105.62 57.5 1101.2V1065.86C57.5 1061.44 53.9183 1057.86 49.5 1057.86H10Z" fill="#006B32"/>
<path d="M70.125 835.4C65.7067 835.4 62.125 838.982 62.125 843.4V878.737C62.125 883.156 65.7067 886.737 70.125 886.737H109.625C114.043 886.737 117.625 883.156 117.625 878.737V843.4C117.625 838.982 114.043 835.4 109.625 835.4H70.125ZM250.5 891.016C246.082 891.016 242.5 894.597 242.5 899.016V934.353C242.5 938.771 246.082 942.353 250.5 942.353H290C294.418 942.353 298 938.771 298 934.353V899.016C298 894.597 294.418 891.016 290 891.016H250.5ZM70.125 946.631C65.7067 946.631 62.125 950.213 62.125 954.631V989.969C62.125 994.387 65.7067 997.969 70.125 997.969H109.625C114.043 997.969 117.625 994.387 117.625 989.969V954.631C117.625 950.213 114.043 946.631 109.625 946.631H70.125ZM250.5 946.631C246.082 946.631 242.5 950.213 242.5 954.631V989.969C242.5 994.387 246.082 997.969 250.5 997.969H290C294.418 997.969 298 994.387 298 989.969V954.631C298 950.213 294.418 946.631 290 946.631H250.5ZM130.25 1057.86C125.832 1057.86 122.25 1061.44 122.25 1065.86V1101.2C122.25 1105.62 125.832 1109.2 130.25 1109.2H169.75C174.168 1109.2 177.75 1105.62 177.75 1101.2V1065.86C177.75 1061.44 174.168 1057.86 169.75 1057.86H130.25Z" fill="#26A642"/>
<path d="M250.5 835.4C246.082 835.4 242.5 838.982 242.5 843.4V878.737C242.5 883.156 246.082 886.737 250.5 886.737H290C294.418 886.737 298 883.156 298 878.737V843.4C298 838.982 294.418 835.4 290 835.4H250.5ZM190.375 891.016C185.957 891.016 182.375 894.597 182.375 899.016V934.353C182.375 938.771 185.957 942.353 190.375 942.353H229.875C234.293 942.353 237.875 938.771 237.875 934.353V899.016C237.875 894.597 234.293 891.016 229.875 891.016H190.375ZM190.375 1002.25C185.957 1002.25 182.375 1005.83 182.375 1010.25V1045.58C182.375 1050 185.957 1053.58 190.375 1053.58H229.875C234.293 1053.58 237.875 1050 237.875 1045.58V1010.25C237.875 1005.83 234.293 1002.25 229.875 1002.25H190.375ZM250.5 1002.25C246.082 1002.25 242.5 1005.83 242.5 1010.25V1045.58C242.5 1050 246.082 1053.58 250.5 1053.58H290C294.418 1053.58 298 1050 298 1045.58V1010.25C298 1005.83 294.418 1002.25 290 1002.25H250.5ZM70.125 1057.86C65.7067 1057.86 62.125 1061.44 62.125 1065.86V1101.2C62.125 1105.62 65.7067 1109.2 70.125 1109.2H109.625C114.043 1109.2 117.625 1105.62 117.625 1101.2V1065.86C117.625 1061.44 114.043 1057.86 109.625 1057.86H70.125Z" fill="#3AD454"/>
<path d="M310 835.4C305.582 835.4 302 838.982 302 843.4V878.737C302 883.156 305.582 886.737 310 886.737H349.5C353.918 886.737 357.5 883.156 357.5 878.737V843.4C357.5 838.982 353.918 835.4 349.5 835.4H310ZM370.125 891.016C365.707 891.016 362.125 894.597 362.125 899.016V934.353C362.125 938.771 365.707 942.353 370.125 942.353H409.625C414.043 942.353 417.625 938.771 417.625 934.353V899.016C417.625 894.597 414.043 891.016 409.625 891.016H370.125ZM310 946.631C305.582 946.631 302 950.213 302 954.631V989.969C302 994.387 305.582 997.969 310 997.969H349.5C353.918 997.969 357.5 994.387 357.5 989.969V954.631C357.5 950.213 353.918 946.631 349.5 946.631H310ZM430.25 1002.25C425.832 1002.25 422.25 1005.83 422.25 1010.25V1045.58C422.25 1050 425.832 1053.58 430.25 1053.58H469.75C474.168 1053.58 477.75 1050 477.75 1045.58V1010.25C477.75 1005.83 474.168 1002.25 469.75 1002.25H430.25ZM490.375 1057.86C485.957 1057.86 482.375 1061.44 482.375 1065.86V1101.2C482.375 1105.62 485.957 1109.2 490.375 1109.2H529.875C534.293 1109.2 537.875 1105.62 537.875 1101.2V1065.86C537.875 1061.44 534.293 1057.86 529.875 1057.86H490.375Z" fill="#0E4429"/>
<path d="M430.25 835.4C425.832 835.4 422.25 838.982 422.25 843.4V878.737C422.25 883.156 425.832 886.737 430.25 886.737H469.75C474.168 886.737 477.75 883.156 477.75 878.737V843.4C477.75 838.982 474.168 835.4 469.75 835.4H430.25ZM430.25 891.016C425.832 891.016 422.25 894.597 422.25 899.016V934.353C422.25 938.771 425.832 942.353 430.25 942.353H469.75C474.168 942.353 477.75 938.771 477.75 934.353V899.016C477.75 894.597 474.168 891.016 469.75 891.016H430.25ZM490.375 946.631C485.957 946.631 482.375 950.213 482.375 954.631V989.969C482.375 994.387 485.957 997.969 490.375 997.969H529.875C534.293 997.969 537.875 994.387 537.875 989.969V954.631C537.875 950.213 534.293 946.631 529.875 946.631H490.375ZM310 1002.25C305.582 1002.25 302 1005.83 302 1010.25V1045.58C302 1050 305.582 1053.58 310 1053.58H349.5C353.918 1053.58 357.5 1050 357.5 1045.58V1010.25C357.5 1005.83 353.918 1002.25 349.5 1002.25H310ZM310 1057.86C305.582 1057.86 302 1061.44 302 1065.86V1101.2C302 1105.62 305.582 1109.2 310 1109.2H349.5C353.918 1109.2 357.5 1105.62 357.5 1101.2V1065.86C357.5 1061.44 353.918 1057.86 349.5 1057.86H310Z" fill="#006B32"/>
<path d="M370.125 835.4C365.707 835.4 362.125 838.982 362.125 843.4V878.737C362.125 883.156 365.707 886.737 370.125 886.737H409.625C414.043 886.737 417.625 883.156 417.625 878.737V843.4C417.625 838.982 414.043 835.4 409.625 835.4H370.125ZM550.5 891.016C546.082 891.016 542.5 894.597 542.5 899.016V934.353C542.5 938.771 546.082 942.353 550.5 942.353H590C594.418 942.353 598 938.771 598 934.353V899.016C598 894.597 594.418 891.016 590 891.016H550.5ZM370.125 946.631C365.707 946.631 362.125 950.213 362.125 954.631V989.969C362.125 994.387 365.707 997.969 370.125 997.969H409.625C414.043 997.969 417.625 994.387 417.625 989.969V954.631C417.625 950.213 414.043 946.631 409.625 946.631H370.125ZM550.5 946.631C546.082 946.631 542.5 950.213 542.5 954.631V989.969C542.5 994.387 546.082 997.969 550.5 997.969H590C594.418 997.969 598 994.387 598 989.969V954.631C598 950.213 594.418 946.631 590 946.631H550.5ZM430.25 1057.86C425.832 1057.86 422.25 1061.44 422.25 1065.86V1101.2C422.25 1105.62 425.832 1109.2 430.25 1109.2H469.75C474.168 1109.2 477.75 1105.62 477.75 1101.2V1065.86C477.75 1061.44 474.168 1057.86 469.75 1057.86H430.25Z" fill="#26A642"/>
<path d="M550.5 835.4C546.082 835.4 542.5 838.982 542.5 843.4V878.737C542.5 883.156 546.082 886.737 550.5 886.737H590C594.418 886.737 598 883.156 598 878.737V843.4C598 838.982 594.418 835.4 590 835.4H550.5ZM490.375 891.016C485.957 891.016 482.375 894.597 482.375 899.016V934.353C482.375 938.771 485.957 942.353 490.375 942.353H529.875C534.293 942.353 537.875 938.771 537.875 934.353V899.016C537.875 894.597 534.293 891.016 529.875 891.016H490.375ZM490.375 1002.25C485.957 1002.25 482.375 1005.83 482.375 1010.25V1045.58C482.375 1050 485.957 1053.58 490.375 1053.58H529.875C534.293 1053.58 537.875 1050 537.875 1045.58V1010.25C537.875 1005.83 534.293 1002.25 529.875 1002.25H490.375ZM550.5 1002.25C546.082 1002.25 542.5 1005.83 542.5 1010.25V1045.58C542.5 1050 546.082 1053.58 550.5 1053.58H590C594.418 1053.58 598 1050 598 1045.58V1010.25C598 1005.83 594.418 1002.25 590 1002.25H550.5ZM370.125 1057.86C365.707 1057.86 362.125 1061.44 362.125 1065.86V1101.2C362.125 1105.62 365.707 1109.2 370.125 1109.2H409.625C414.043 1109.2 417.625 1105.62 417.625 1101.2V1065.86C417.625 1061.44 414.043 1057.86 409.625 1057.86H370.125Z" fill="#3AD454"/>
<path d="M610 835.4C605.582 835.4 602 838.982 602 843.4V878.737C602 883.156 605.582 886.737 610 886.737H649.5C653.918 886.737 657.5 883.156 657.5 878.737V843.4C657.5 838.982 653.918 835.4 649.5 835.4H610ZM670.125 891.016C665.707 891.016 662.125 894.597 662.125 899.016V934.353C662.125 938.771 665.707 942.353 670.125 942.353H709.625C714.043 942.353 717.625 938.771 717.625 934.353V899.016C717.625 894.597 714.043 891.016 709.625 891.016H670.125ZM610 946.631C605.582 946.631 602 950.213 602 954.631V989.969C602 994.387 605.582 997.969 610 997.969H649.5C653.918 997.969 657.5 994.387 657.5 989.969V954.631C657.5 950.213 653.918 946.631 649.5 946.631H610ZM730.25 1002.25C725.832 1002.25 722.25 1005.83 722.25 1010.25V1045.58C722.25 1050 725.832 1053.58 730.25 1053.58H769.75C774.168 1053.58 777.75 1050 777.75 1045.58V1010.25C777.75 1005.83 774.168 1002.25 769.75 1002.25H730.25ZM790.375 1057.86C785.957 1057.86 782.375 1061.44 782.375 1065.86V1101.2C782.375 1105.62 785.957 1109.2 790.375 1109.2H829.875C834.293 1109.2 837.875 1105.62 837.875 1101.2V1065.86C837.875 1061.44 834.293 1057.86 829.875 1057.86H790.375Z" fill="#0E4429"/>
<path d="M730.25 835.4C725.832 835.4 722.25 838.982 722.25 843.4V878.737C722.25 883.156 725.832 886.737 730.25 886.737H769.75C774.168 886.737 777.75 883.156 777.75 878.737V843.4C777.75 838.982 774.168 835.4 769.75 835.4H730.25ZM730.25 891.016C725.832 891.016 722.25 894.597 722.25 899.016V934.353C722.25 938.771 725.832 942.353 730.25 942.353H769.75C774.168 942.353 777.75 938.771 777.75 934.353V899.016C777.75 894.597 774.168 891.016 769.75 891.016H730.25ZM790.375 946.631C785.957 946.631 782.375 950.213 782.375 954.631V989.969C782.375 994.387 785.957 997.969 790.375 997.969H829.875C834.293 997.969 837.875 994.387 837.875 989.969V954.631C837.875 950.213 834.293 946.631 829.875 946.631H790.375ZM610 1002.25C605.582 1002.25 602 1005.83 602 1010.25V1045.58C602 1050 605.582 1053.58 610 1053.58H649.5C653.918 1053.58 657.5 1050 657.5 1045.58V1010.25C657.5 1005.83 653.918 1002.25 649.5 1002.25H610ZM610 1057.86C605.582 1057.86 602 1061.44 602 1065.86V1101.2C602 1105.62 605.582 1109.2 610 1109.2H649.5C653.918 1109.2 657.5 1105.62 657.5 1101.2V1065.86C657.5 1061.44 653.918 1057.86 649.5 1057.86H610Z" fill="#006B32"/>
<path d="M670.125 835.4C665.707 835.4 662.125 838.982 662.125 843.4V878.737C662.125 883.156 665.707 886.737 670.125 886.737H709.625C714.043 886.737 717.625 883.156 717.625 878.737V843.4C717.625 838.982 714.043 835.4 709.625 835.4H670.125ZM850.5 891.016C846.082 891.016 842.5 894.597 842.5 899.016V934.353C842.5 938.771 846.082 942.353 850.5 942.353H890C894.418 942.353 898 938.771 898 934.353V899.016C898 894.597 894.418 891.016 890 891.016H850.5ZM670.125 946.631C665.707 946.631 662.125 950.213 662.125 954.631V989.969C662.125 994.387 665.707 997.969 670.125 997.969H709.625C714.043 997.969 717.625 994.387 717.625 989.969V954.631C717.625 950.213 714.043 946.631 709.625 946.631H670.125ZM850.5 946.631C846.082 946.631 842.5 950.213 842.5 954.631V989.969C842.5 994.387 846.082 997.969 850.5 997.969H890C894.418 997.969 898 994.387 898 989.969V954.631C898 950.213 894.418 946.631 890 946.631H850.5ZM730.25 1057.86C725.832 1057.86 722.25 1061.44 722.25 1065.86V1101.2C722.25 1105.62 725.832 1109.2 730.25 1109.2H769.75C774.168 1109.2 777.75 1105.62 777.75 1101.2V1065.86C777.75 1061.44 774.168 1057.86 769.75 1057.86H730.25Z" fill="#26A642"/>
<path d="M850.5 835.4C846.082 835.4 842.5 838.982 842.5 843.4V878.737C842.5 883.156 846.082 886.737 850.5 886.737H890C894.418 886.737 898 883.156 898 878.737V843.4C898 838.982 894.418 835.4 890 835.4H850.5ZM790.375 891.016C785.957 891.016 782.375 894.597 782.375 899.016V934.353C782.375 938.771 785.957 942.353 790.375 942.353H829.875C834.293 942.353 837.875 938.771 837.875 934.353V899.016C837.875 894.597 834.293 891.016 829.875 891.016H790.375ZM790.375 1002.25C785.957 1002.25 782.375 1005.83 782.375 1010.25V1045.58C782.375 1050 785.957 1053.58 790.375 1053.58H829.875C834.293 1053.58 837.875 1050 837.875 1045.58V1010.25C837.875 1005.83 834.293 1002.25 829.875 1002.25H790.375ZM850.5 1002.25C846.082 1002.25 842.5 1005.83 842.5 1010.25V1045.58C842.5 1050 846.082 1053.58 850.5 1053.58H890C894.418 1053.58 898 1050 898 1045.58V1010.25C898 1005.83 894.418 1002.25 890 1002.25H850.5ZM670.125 1057.86C665.707 1057.86 662.125 1061.44 662.125 1065.86V1101.2C662.125 1105.62 665.707 1109.2 670.125 1109.2H709.625C714.043 1109.2 717.625 1105.62 717.625 1101.2V1065.86C717.625 1061.44 714.043 1057.86 709.625 1057.86H670.125Z" fill="#3AD454"/>
<path d="M910 835.4C905.582 835.4 902 838.982 902 843.4V878.737C902 883.156 905.582 886.737 910 886.737H949.5C953.918 886.737 957.5 883.156 957.5 878.737V843.4C957.5 838.982 953.918 835.4 949.5 835.4H910ZM970.125 891.016C965.707 891.016 962.125 894.597 962.125 899.016V934.353C962.125 938.771 965.707 942.353 970.125 942.353H1009.62C1014.04 942.353 1017.62 938.771 1017.62 934.353V899.016C1017.62 894.597 1014.04 891.016 1009.62 891.016H970.125ZM910 946.631C905.582 946.631 902 950.213 902 954.631V989.969C902 994.387 905.582 997.969 910 997.969H949.5C953.918 997.969 957.5 994.387 957.5 989.969V954.631C957.5 950.213 953.918 946.631 949.5 946.631H910ZM1030.25 1002.25C1025.83 1002.25 1022.25 1005.83 1022.25 1010.25V1045.58C1022.25 1050 1025.83 1053.58 1030.25 1053.58H1069.75C1074.17 1053.58 1077.75 1050 1077.75 1045.58V1010.25C1077.75 1005.83 1074.17 1002.25 1069.75 1002.25H1030.25ZM1090.38 1057.86C1085.96 1057.86 1082.38 1061.44 1082.38 1065.86V1101.2C1082.38 1105.62 1085.96 1109.2 1090.38 1109.2H1129.88C1134.29 1109.2 1137.88 1105.62 1137.88 1101.2V1065.86C1137.88 1061.44 1134.29 1057.86 1129.88 1057.86H1090.38Z" fill="#0E4429"/>
<path d="M1030.25 835.4C1025.83 835.4 1022.25 838.982 1022.25 843.4V878.737C1022.25 883.156 1025.83 886.737 1030.25 886.737H1069.75C1074.17 886.737 1077.75 883.156 1077.75 878.737V843.4C1077.75 838.982 1074.17 835.4 1069.75 835.4H1030.25ZM1030.25 891.016C1025.83 891.016 1022.25 894.597 1022.25 899.016V934.353C1022.25 938.771 1025.83 942.353 1030.25 942.353H1069.75C1074.17 942.353 1077.75 938.771 1077.75 934.353V899.016C1077.75 894.597 1074.17 891.016 1069.75 891.016H1030.25ZM1090.38 946.631C1085.96 946.631 1082.38 950.213 1082.38 954.631V989.969C1082.38 994.387 1085.96 997.969 1090.38 997.969H1129.88C1134.29 997.969 1137.88 994.387 1137.88 989.969V954.631C1137.88 950.213 1134.29 946.631 1129.88 946.631H1090.38ZM910 1002.25C905.582 1002.25 902 1005.83 902 1010.25V1045.58C902 1050 905.582 1053.58 910 1053.58H949.5C953.918 1053.58 957.5 1050 957.5 1045.58V1010.25C957.5 1005.83 953.918 1002.25 949.5 1002.25H910ZM910 1057.86C905.582 1057.86 902 1061.44 902 1065.86V1101.2C902 1105.62 905.582 1109.2 910 1109.2H949.5C953.918 1109.2 957.5 1105.62 957.5 1101.2V1065.86C957.5 1061.44 953.918 1057.86 949.5 1057.86H910Z" fill="#006B32"/>
<path d="M970.125 835.4C965.707 835.4 962.125 838.982 962.125 843.4V878.737C962.125 883.156 965.707 886.737 970.125 886.737H1009.62C1014.04 886.737 1017.62 883.156 1017.62 878.737V843.4C1017.62 838.982 1014.04 835.4 1009.62 835.4H970.125ZM1150.5 891.016C1146.08 891.016 1142.5 894.597 1142.5 899.016V934.353C1142.5 938.771 1146.08 942.353 1150.5 942.353H1190C1194.42 942.353 1198 938.771 1198 934.353V899.016C1198 894.597 1194.42 891.016 1190 891.016H1150.5ZM970.125 946.631C965.707 946.631 962.125 950.213 962.125 954.631V989.969C962.125 994.387 965.707 997.969 970.125 997.969H1009.62C1014.04 997.969 1017.62 994.387 1017.62 989.969V954.631C1017.62 950.213 1014.04 946.631 1009.62 946.631H970.125ZM1150.5 946.631C1146.08 946.631 1142.5 950.213 1142.5 954.631V989.969C1142.5 994.387 1146.08 997.969 1150.5 997.969H1190C1194.42 997.969 1198 994.387 1198 989.969V954.631C1198 950.213 1194.42 946.631 1190 946.631H1150.5ZM1030.25 1057.86C1025.83 1057.86 1022.25 1061.44 1022.25 1065.86V1101.2C1022.25 1105.62 1025.83 1109.2 1030.25 1109.2H1069.75C1074.17 1109.2 1077.75 1105.62 1077.75 1101.2V1065.86C1077.75 1061.44 1074.17 1057.86 1069.75 1057.86H1030.25Z" fill="#26A642"/>
<path d="M1150.5 835.4C1146.08 835.4 1142.5 838.982 1142.5 843.4V878.737C1142.5 883.156 1146.08 886.737 1150.5 886.737H1190C1194.42 886.737 1198 883.156 1198 878.737V843.4C1198 838.982 1194.42 835.4 1190 835.4H1150.5ZM1090.38 891.016C1085.96 891.016 1082.38 894.597 1082.38 899.016V934.353C1082.38 938.771 1085.96 942.353 1090.38 942.353H1129.88C1134.29 942.353 1137.88 938.771 1137.88 934.353V899.016C1137.88 894.597 1134.29 891.016 1129.88 891.016H1090.38ZM1090.38 1002.25C1085.96 1002.25 1082.38 1005.83 1082.38 1010.25V1045.58C1082.38 1050 1085.96 1053.58 1090.38 1053.58H1129.88C1134.29 1053.58 1137.88 1050 1137.88 1045.58V1010.25C1137.88 1005.83 1134.29 1002.25 1129.88 1002.25H1090.38ZM1150.5 1002.25C1146.08 1002.25 1142.5 1005.83 1142.5 1010.25V1045.58C1142.5 1050 1146.08 1053.58 1150.5 1053.58H1190C1194.42 1053.58 1198 1050 1198 1045.58V1010.25C1198 1005.83 1194.42 1002.25 1190 1002.25H1150.5ZM970.125 1057.86C965.707 1057.86 962.125 1061.44 962.125 1065.86V1101.2C962.125 1105.62 965.707 1109.2 970.125 1109.2H1009.62C1014.04 1109.2 1017.62 1105.62 1017.62 1101.2V1065.86C1017.62 1061.44 1014.04 1057.86 1009.62 1057.86H970.125Z" fill="#3AD454"/>
</g>
<defs>
<clipPath id="clip0_40_3886">
<rect width="1080" height="1080" fill="white"/>
</clipPath>
</defs>
</svg>
