<svg viewBox="0 0 1080 1080" fill="none" xmlns="http://www.w3.org/2000/svg">
<g clip-path="url(#clip0_40_4493)">
<rect width="1080" height="1080" fill="white"/>
<path d="M1620 0H-540V1080H1620V0Z" fill="#006B32"/>
<path d="M116.1 952.83C-31.455 923.4 -185.49 909.36 -336.555 926.64C-405.675 934.335 -473.85 949.05 -540 971.73V1080H599.13C442.665 1035.18 287.55 988.065 129.87 955.53C125.28 954.585 120.69 953.775 116.1 952.83Z" fill="#057A36"/>
<path d="M1620 0H-540V971.73C-473.85 949.05 -405.675 934.2 -336.555 926.505C-185.49 909.36 -31.455 923.265 116.1 952.695C120.69 953.64 125.28 954.585 129.87 955.395C287.55 987.795 442.665 1035.04 599.13 1079.86H1620V0Z" fill="#0B8739"/>
<path d="M105.84 784.35C110.16 785.43 114.48 786.645 118.665 787.725C383.535 858.6 643.41 967.95 919.89 1026.14C1155.06 1075.55 1391.71 1065.56 1620 1012.37V0H-540V776.115C-469.395 752.355 -396.225 738.72 -322.515 734.4C-177.66 725.49 -32.805 748.17 105.84 784.35Z" fill="#12933B"/>
<path d="M-540 0V579.69C-464.94 554.85 -386.775 542.835 -308.61 542.295C-169.83 541.215 -34.29 572.94 95.445 615.87C99.4951 617.22 103.41 618.57 107.46 619.92C355.32 703.62 601.155 817.155 866.7 879.255C1118.74 938.25 1374.71 925.695 1619.86 862.245V0H-540Z" fill="#1C9D3E"/>
<path d="M-294.57 350.19C-162 358.29 -35.505 397.71 85.185 447.525C88.965 449.01 92.61 450.63 96.39 452.115C327.24 548.775 559.035 666.09 813.645 732.51C1082.03 802.44 1358.23 787.59 1620 712.53V0H-540V382.32C-460.35 355.86 -377.19 345.195 -294.57 350.19Z" fill="#26A642"/>
<path d="M1620 0H-540V184.005C-455.895 155.79 -367.605 146.88 -280.53 158.085C-154.17 174.42 -36.855 222.48 74.925 279.045C78.435 280.8 81.81 282.555 85.32 284.31C299.16 393.795 516.915 515.025 760.725 585.63C1044.9 667.98 1342.31 651.78 1620.14 563.22V0H1620Z" fill="#28B145"/>
<path d="M74.115 116.505C270.945 238.95 474.66 363.555 707.535 438.75C989.145 529.74 1289.79 520.83 1568.7 431.595C1585.98 426.06 1602.99 420.255 1620.13 414.18V0H-151.065C-75.465 28.755 -4.31998 68.31 64.53 110.7C67.77 112.59 70.875 114.615 74.115 116.505Z" fill="#2ABC47"/>
<path d="M1620 0H132.3C291.735 115.83 461.025 222.075 654.48 291.87C913.41 385.29 1194.48 392.715 1457.73 320.355C1512.81 305.235 1567.21 286.335 1620.13 264.06V0H1620Z" fill="#2CC74A"/>
<path d="M1346.62 208.98C1410.34 194.67 1472.98 174.825 1533.73 149.85C1563.03 137.835 1591.78 124.47 1620 110.025V0H328.59C413.505 56.295 503.685 105.57 601.425 144.99C837.54 240.435 1099.17 264.735 1346.62 208.98Z" fill="#30D14C"/>
<path d="M1235.66 97.74C1337.31 80.73 1436.67 47.655 1528.34 0H552.285C765.18 95.85 1005.35 136.35 1235.66 97.74Z" fill="#3AD454"/>
<g opacity="0.75">
<rect x="0.5" y="0.5" width="1079" height="1079" fill="url(#paint0_radial_40_4493)" stroke="black"/>
<rect x="1079.5" y="1079.5" width="1079" height="1079" transform="rotate(-180 1079.5 1079.5)" fill="url(#paint1_radial_40_4493)" stroke="black"/>
</g>
</g>
<defs>
<radialGradient id="paint0_radial_40_4493" cx="0" cy="0" r="1" gradientUnits="userSpaceOnUse" gradientTransform="translate(156.101 123.337) rotate(45.7526) scale(1655.77 1249.33)">
<stop offset="0.00880086" stop-color="#0D0E0F" stop-opacity="0.92"/>
<stop offset="0.27" stop-color="#0D0E0F" stop-opacity="0.72"/>
<stop offset="0.568183" stop-color="#0D0E0F" stop-opacity="0.62"/>
<stop offset="0.758841" stop-color="#0D0E0F" stop-opacity="0.42"/>
<stop offset="1" stop-color="#3AD454" stop-opacity="0"/>
</radialGradient>
<radialGradient id="paint1_radial_40_4493" cx="0" cy="0" r="1" gradientUnits="userSpaceOnUse" gradientTransform="translate(1236.1 1203.34) rotate(45.7526) scale(1655.77 1249.33)">
<stop offset="0.00880086" stop-color="#0D0E0F" stop-opacity="0.92"/>
<stop offset="0.27" stop-color="#0D0E0F" stop-opacity="0.72"/>
<stop offset="0.568183" stop-color="#0D0E0F" stop-opacity="0.62"/>
<stop offset="0.758841" stop-color="#0D0E0F" stop-opacity="0.42"/>
<stop offset="1" stop-color="#3AD454" stop-opacity="0"/>
</radialGradient>
<clipPath id="clip0_40_4493">
<rect width="1080" height="1080" fill="white"/>
</clipPath>
</defs>
</svg>
