<svg viewBox="0 0 1080 1080" fill="none" xmlns="http://www.w3.org/2000/svg">
<g clip-path="url(#clip0_40_3889)">
<path d="M1080 0H0V1080H1080V0Z" fill="#3AD454"/>
<path d="M1080 0H0V1080H1080V0Z" fill="url(#paint0_radial_40_3889)"/>
<path d="M1348.25 592.92C1350.54 557.145 1350.54 521.775 1348.38 486.945L541.35 539.865V539.73L1334.61 381.915C1327.73 346.95 1318.55 312.795 1307.21 279.585L541.215 539.595V539.46L1266.57 181.71C1250.91 149.985 1233.09 119.34 1213.52 90.045L541.08 539.325C541.08 539.325 541.08 539.19 540.945 539.19L1148.99 5.94003C1125.63 -20.655 1100.66 -45.63 1074.06 -68.985L540.81 539.055C540.81 539.055 540.675 539.055 540.675 538.92L990.09 -133.65C960.795 -153.225 930.15 -170.91 898.29 -186.705L540.54 538.785H540.405L800.415 -227.205C767.205 -238.41 733.05 -247.59 698.085 -254.475L540.27 538.65H540.135L593.055 -268.245C557.28 -270.54 521.91 -270.54 487.08 -268.38L539.865 538.65H539.73L381.915 -254.61C346.95 -247.725 312.795 -238.545 279.585 -227.205L539.595 538.785H539.46L181.71 -186.57C149.985 -170.91 119.34 -153.09 90.0451 -133.515L539.325 538.92C539.325 538.92 539.19 538.92 539.19 539.055L5.94012 -68.985C-20.6549 -45.765 -45.6299 -20.655 -68.9849 5.94003L539.055 539.19C539.055 539.19 539.055 539.325 538.92 539.325L-133.65 89.91C-153.225 119.205 -170.91 149.85 -186.705 181.71L538.785 539.46V539.595L-227.205 279.585C-238.41 312.795 -247.59 346.95 -254.475 381.915L538.65 539.73V539.865L-268.245 486.945C-270.54 522.72 -270.54 558.09 -268.38 592.92L538.65 540.135V540.27L-254.61 698.085C-247.725 733.05 -238.545 767.205 -227.205 800.415L538.785 540.405V540.54L-186.57 898.29C-170.91 930.015 -153.09 960.66 -133.515 989.955L538.92 540.675C538.92 540.675 538.92 540.81 539.055 540.81L-68.9849 1074.06C-45.6299 1100.66 -20.6549 1125.63 5.94012 1148.99L539.19 540.945C539.19 540.945 539.325 540.945 539.325 541.08L89.9101 1213.65C119.205 1233.23 149.85 1250.91 181.71 1266.7L539.46 541.215H539.595L279.585 1307.2C312.795 1318.41 346.95 1327.59 381.915 1334.48L539.73 541.35H539.865L486.945 1348.25C522.72 1350.54 558.09 1350.54 592.92 1348.38L540.135 541.35H540.27L698.085 1334.61C733.05 1327.73 767.205 1318.54 800.415 1307.2L540.405 541.215H540.54L898.29 1266.57C930.015 1250.91 960.66 1233.09 989.955 1213.52L540.675 541.08C540.675 541.08 540.81 541.08 540.81 540.945L1074.06 1148.99C1100.66 1125.63 1125.63 1100.66 1148.99 1074.06L540.945 540.81C540.945 540.81 540.945 540.675 541.08 540.675L1213.65 990.09C1233.23 960.795 1250.91 930.15 1266.71 898.29L541.215 540.54V540.405L1307.21 800.415C1318.41 767.205 1327.59 733.05 1334.48 698.085L541.35 540.27V540.135L1348.25 592.92Z" fill="url(#paint1_radial_40_3889)" fill-opacity="0.8"/>
</g>
<defs>
<radialGradient id="paint0_radial_40_3889" cx="0" cy="0" r="1" gradientUnits="userSpaceOnUse" gradientTransform="translate(540 540) scale(81)">
<stop stop-color="#3AD454"/>
<stop offset="1" stop-color="#26A642"/>
</radialGradient>
<radialGradient id="paint1_radial_40_3889" cx="0" cy="0" r="1" gradientUnits="userSpaceOnUse" gradientTransform="translate(540 540) scale(108)">
<stop stop-color="#3AD454"/>
<stop offset="1" stop-color="#3AD454"/>
</radialGradient>
<clipPath id="clip0_40_3889">
<rect width="1080" height="1080" fill="white"/>
</clipPath>
</defs>
</svg>
