<svg viewBox="0 0 44 44" fill="none" xmlns="http://www.w3.org/2000/svg">
  <g filter="url(#filter0_d_23_741)">
    <path
      d="M28.05 30.6167L30.6167 28.05L23.8334 21.2667V12.8334H20.1667V22.7334L28.05 30.6167ZM22 40.3334C19.4639 40.3334 17.0806 39.8521 14.85 38.8896C12.6195 37.9271 10.6792 36.6209 9.02919 34.9709C7.37919 33.3209 6.07294 31.3806 5.11044 29.15C4.14794 26.9195 3.66669 24.5361 3.66669 22C3.66669 19.4639 4.14794 17.0806 5.11044 14.85C6.07294 12.6195 7.37919 10.6792 9.02919 9.02919C10.6792 7.37919 12.6195 6.07294 14.85 5.11044C17.0806 4.14794 19.4639 3.66669 22 3.66669C24.5361 3.66669 26.9195 4.14794 29.15 5.11044C31.3806 6.07294 33.3209 7.37919 34.9709 9.02919C36.6209 10.6792 37.9271 12.6195 38.8896 14.85C39.8521 17.0806 40.3334 19.4639 40.3334 22C40.3334 24.5361 39.8521 26.9195 38.8896 29.15C37.9271 31.3806 36.6209 33.3209 34.9709 34.9709C33.3209 36.6209 31.3806 37.9271 29.15 38.8896C26.9195 39.8521 24.5361 40.3334 22 40.3334ZM22 36.6667C26.0639 36.6667 29.5243 35.2382 32.3813 32.3813C35.2382 29.5243 36.6667 26.0639 36.6667 22C36.6667 17.9361 35.2382 14.4757 32.3813 11.6188C29.5243 8.76183 26.0639 7.33335 22 7.33335C17.9361 7.33335 14.4757 8.76183 11.6188 11.6188C8.76183 14.4757 7.33335 17.9361 7.33335 22C7.33335 26.0639 8.76183 29.5243 11.6188 32.3813C14.4757 35.2382 17.9361 36.6667 22 36.6667Z"
      fill="#62F772" />
  </g>
  <defs>
    <filter id="filter0_d_23_741" x="3.66669" y="3.66669" width="38.6667" height="38.6667" filterUnits="userSpaceOnUse"
      color-interpolation-filters="sRGB">
      <feFlood flood-opacity="0" result="BackgroundImageFix" />
      <feColorMatrix in="SourceAlpha" type="matrix" values="0 0 0 0 0 0 0 0 0 0 0 0 0 0 0 0 0 0 127 0"
        result="hardAlpha" />
      <feOffset dx="2" dy="2" />
      <feComposite in2="hardAlpha" operator="out" />
      <feColorMatrix type="matrix" values="0 0 0 0 0 0 0 0 0 0 0 0 0 0 0 0 0 0 0.2 0" />
      <feBlend mode="normal" in2="BackgroundImageFix" result="effect1_dropShadow_23_741" />
      <feBlend mode="normal" in="SourceGraphic" in2="effect1_dropShadow_23_741" result="shape" />
    </filter>
  </defs>
</svg>