<svg viewBox="0 0 44 44" fill="none" xmlns="http://www.w3.org/2000/svg">
  <g filter="url(#filter0_d_23_747)">
    <path
      d="M22 22C23.0083 22 23.8715 21.641 24.5896 20.9229C25.3076 20.2049 25.6667 19.3417 25.6667 18.3334C25.6667 17.325 25.3076 16.4618 24.5896 15.7438C23.8715 15.0257 23.0083 14.6667 22 14.6667C20.9917 14.6667 20.1285 15.0257 19.4104 15.7438C18.6924 16.4618 18.3333 17.325 18.3333 18.3334C18.3333 19.3417 18.6924 20.2049 19.4104 20.9229C20.1285 21.641 20.9917 22 22 22ZM22 35.475C25.7278 32.0528 28.4931 28.9438 30.2958 26.1479C32.0986 23.3521 33 20.8695 33 18.7C33 15.3695 31.9382 12.6424 29.8146 10.5188C27.691 8.39516 25.0861 7.33335 22 7.33335C18.9139 7.33335 16.309 8.39516 14.1854 10.5188C12.0618 12.6424 11 15.3695 11 18.7C11 20.8695 11.9014 23.3521 13.7042 26.1479C15.507 28.9438 18.2722 32.0528 22 35.475ZM22 40.3334C17.0806 36.1472 13.4063 32.259 10.9771 28.6688C8.54793 25.0785 7.33334 21.7556 7.33334 18.7C7.33334 14.1167 8.80765 10.4653 11.7563 7.74585C14.7049 5.02641 18.1195 3.66669 22 3.66669C25.8806 3.66669 29.2951 5.02641 32.2438 7.74585C35.1924 10.4653 36.6667 14.1167 36.6667 18.7C36.6667 21.7556 35.4521 25.0785 33.0229 28.6688C30.5938 32.259 26.9195 36.1472 22 40.3334Z"
      fill="#62F772" />
  </g>
  <defs>
    <filter id="filter0_d_23_747" x="7.33334" y="3.66669" width="31.3333" height="38.6667" filterUnits="userSpaceOnUse"
      color-interpolation-filters="sRGB">
      <feFlood flood-opacity="0" result="BackgroundImageFix" />
      <feColorMatrix in="SourceAlpha" type="matrix" values="0 0 0 0 0 0 0 0 0 0 0 0 0 0 0 0 0 0 127 0"
        result="hardAlpha" />
      <feOffset dx="2" dy="2" />
      <feComposite in2="hardAlpha" operator="out" />
      <feColorMatrix type="matrix" values="0 0 0 0 0 0 0 0 0 0 0 0 0 0 0 0 0 0 0.2 0" />
      <feBlend mode="normal" in2="BackgroundImageFix" result="effect1_dropShadow_23_747" />
      <feBlend mode="normal" in="SourceGraphic" in2="effect1_dropShadow_23_747" result="shape" />
    </filter>
  </defs>
</svg>