<svg width="64" height="64" viewBox="0 0 64 64" fill="none" xmlns="http://www.w3.org/2000/svg">
  <g filter="url(#filter0_d_134_1375)">
    <path
      d="M28.4527 59.3382L3.45946 35.4987C1.51351 33.6426 1.51351 30.5877 3.45946 28.7316L28.4527 4.89209C30.3987 3.03597 33.6014 3.03597 35.5473 4.89209L60.5405 28.7316C62.4865 30.5877 62.4865 33.6426 60.5405 35.4987L35.5473 59.3382C34.9267 59.9301 34.1723 60.3333 33.3714 60.5477C32.2902 60.8369 31.1254 60.7825 30.0895 60.3844C29.4858 60.1524 28.926 59.8037 28.4527 59.3382Z"
      fill="#39B44D" />
  </g>
  <path fill-rule="evenodd" clip-rule="evenodd"
    d="M48.9706 24.0103C47.3014 24.0103 45.9207 25.3277 45.9207 26.9205C45.9207 28.1986 46.8068 29.3391 48.0639 29.7128V35.1203C48.0639 38.1879 46.0443 39.8789 41.5106 40.5672L40.0062 40.7835C37.5332 41.2161 35.4518 41.9436 33.8032 42.9858V36.2846L33.8238 35.8893V34.4538C34.6893 33.7263 35.9052 33.274 37.5744 33.0774H37.5951C40.4596 32.6644 41.9227 31.3666 41.9227 29.2626V26.0967C43.2416 25.7821 44.2514 24.6416 44.2514 23.2651C44.2514 21.6527 42.8707 20.3352 41.2014 20.3352C39.5322 20.3352 38.1515 21.6527 38.1515 23.2848C38.1515 24.6809 39.2025 25.8607 40.5626 26.136V29.2822C40.5626 30.7374 39.6146 31.4846 37.389 31.8189C35.9464 31.9762 34.7718 32.3301 33.8444 32.8807V22.1464C34.9572 21.5171 35.6991 20.3766 35.6991 19.0788C35.6991 17.1124 34.0299 15.5 31.9485 15.5C29.8877 15.5 28.1978 17.0928 28.1978 19.0788C28.1978 20.3963 28.9397 21.5368 30.0526 22.1464V29.0702C29.2076 28.6769 28.1978 28.4016 27.0026 28.264C24.2205 27.8707 23.8702 26.7302 23.8702 25.7667V23.5447C25.2097 23.2497 26.2401 22.0896 26.2401 20.6934C26.2401 19.1007 24.8593 17.7832 23.1901 17.7832C21.5209 17.7832 20.1401 19.081 20.1401 20.6738C20.1401 22.0699 21.1705 23.2104 22.51 23.525V25.747C22.51 27.8511 23.9526 29.1292 26.8171 29.5225C28.1978 29.7191 29.2488 30.0141 30.0526 30.545V37.5999C28.136 36.4398 25.7249 35.6729 22.7161 35.3189C18.0793 34.6504 16.0185 32.9789 16.0185 29.8524V28.6136C17.2344 28.2203 18.0999 27.1388 18.0999 25.841C18.0999 24.2482 16.7192 22.9307 15.05 22.9307C13.3807 22.9307 12 24.2482 12 25.841C12 27.1191 12.8655 28.2203 14.0814 28.6136V29.8524C14.0814 32.1334 14.9675 33.9228 16.7398 35.1616C18.0793 36.1251 19.9547 36.7544 22.4482 37.1083H22.4688C25.8073 37.5213 28.2803 38.4258 30.0732 39.8416V60.4121C30.0732 60.4121 30.8646 60.7713 31.9794 60.7713C33.0942 60.7713 33.8856 60.418 33.8856 60.418V50.6785L33.8444 49.1054V45.2865C35.4518 43.9297 37.6363 43.0448 40.5214 42.5729L41.9433 42.3762C44.2926 42.0026 46.0855 41.3734 47.3838 40.4492C49.1561 39.2104 50.0422 37.421 50.0422 35.14V29.7128C51.1551 29.2998 52 28.2183 52 26.9402C52 26.1733 51.6909 25.4457 51.1345 24.8755C50.5574 24.3249 49.795 24.0103 48.9706 24.0103ZM41.1602 21.4364C40.1092 21.4364 39.2437 22.2623 39.2437 23.2848C39.2437 24.268 40.1298 25.1135 41.1602 25.1135C42.2112 25.1135 43.0768 24.3073 43.0768 23.2848C43.0768 22.2623 42.2318 21.4364 41.1602 21.4364ZM21.2324 20.6738C21.2324 21.6766 22.0979 22.5025 23.1489 22.5025C24.1793 22.5025 25.0654 21.6766 25.0654 20.6738C25.0654 19.6709 24.1999 18.845 23.1489 18.845C22.0979 18.845 21.2324 19.6513 21.2324 20.6738ZM13.0922 25.8016C13.0922 26.8242 13.9578 27.6304 15.0088 27.6304C16.0392 27.6304 16.9253 26.8045 16.9253 25.8016C16.9253 24.7988 16.0598 23.9729 15.0088 23.9729C13.9578 23.9729 13.0922 24.7791 13.0922 25.8016ZM29.2901 19.0395C29.2901 20.4159 30.4647 21.5368 31.9073 21.5368C33.3498 21.5368 34.5245 20.3963 34.5245 19.0198C34.5245 17.6434 33.3498 16.5225 31.9073 16.5225C30.4647 16.5225 29.2901 17.6434 29.2901 19.0395ZM47.0541 26.9402C47.0541 27.943 47.899 28.7689 48.9706 28.7689C50.0216 28.7689 50.8872 27.943 50.8872 26.9205C50.8872 26.4486 50.7223 25.9963 50.3514 25.6423C49.9804 25.3081 49.4858 25.1114 48.9706 25.1114C47.9196 25.1114 47.0541 25.9373 47.0541 26.9402Z"
    fill="#FAF8F9" />
  <defs>
    <filter id="filter0_d_134_1375" x="2" y="3.5" width="62" height="59.2302" filterUnits="userSpaceOnUse"
      color-interpolation-filters="sRGB">
      <feFlood flood-opacity="0" result="BackgroundImageFix" />
      <feColorMatrix in="SourceAlpha" type="matrix" values="0 0 0 0 0 0 0 0 0 0 0 0 0 0 0 0 0 0 127 0"
        result="hardAlpha" />
      <feOffset dx="2" dy="2" />
      <feComposite in2="hardAlpha" operator="out" />
      <feColorMatrix type="matrix" values="0 0 0 0 0 0 0 0 0 0.42 0 0 0 0 0.196 0 0 0 1 0" />
      <feBlend mode="normal" in2="BackgroundImageFix" result="effect1_dropShadow_134_1375" />
      <feBlend mode="normal" in="SourceGraphic" in2="effect1_dropShadow_134_1375" result="shape" />
    </filter>
  </defs>
</svg>