<svg viewBox="0 0 128 128" fill="none" xmlns="http://www.w3.org/2000/svg">
  <g filter="url(#filter0_d_95_951)">
    <path
      d="M56.9054 118.676L6.91893 70.9974C3.02703 67.2851 3.02703 61.1754 6.91893 57.4632L56.9054 9.78418C60.7973 6.07194 67.2027 6.07194 71.0946 9.78418L121.081 57.4632C124.973 61.1754 124.973 67.2851 121.081 70.9974L71.0946 118.676C69.8534 119.86 68.3446 120.667 66.7428 121.095C64.5804 121.674 62.2508 121.565 60.1791 120.769C58.9716 120.305 57.8521 119.607 56.9054 118.676Z"
      fill="#39B44D" />
  </g>
  <g filter="url(#filter1_d_95_951)">
    <path
      d="M58.6667 64C55.7333 64 53.2222 62.9556 51.1333 60.8667C49.0444 58.7778 48 56.2667 48 53.3333C48 50.4 49.0444 47.8889 51.1333 45.8C53.2222 43.7111 55.7333 42.6667 58.6667 42.6667C61.6 42.6667 64.1111 43.7111 66.2 45.8C68.2889 47.8889 69.3333 50.4 69.3333 53.3333C69.3333 56.2667 68.2889 58.7778 66.2 60.8667C64.1111 62.9556 61.6 64 58.6667 64ZM37.3333 85.3333V77.8667C37.3333 76.4 37.7111 75.0222 38.4667 73.7333C39.2222 72.4444 40.2667 71.4667 41.6 70.8C43.8667 69.6444 46.4222 68.6667 49.2667 67.8667C52.1111 67.0667 55.2444 66.6667 58.6667 66.6667H59.6C59.8667 66.6667 60.1333 66.7111 60.4 66.8C60.0444 67.6 59.7444 68.4333 59.5 69.3C59.2556 70.1667 59.0667 71.0667 58.9333 72H58.6667C55.5111 72 52.6778 72.4 50.1667 73.2C47.6556 74 45.6 74.8 44 75.6C43.6 75.8222 43.2778 76.1333 43.0333 76.5333C42.7889 76.9333 42.6667 77.3778 42.6667 77.8667V80H59.4667C59.7333 80.9333 60.0889 81.8556 60.5333 82.7667C60.9778 83.6778 61.4667 84.5333 62 85.3333H37.3333ZM74.6667 88L73.8667 84C73.3333 83.7778 72.8333 83.5444 72.3667 83.3C71.9 83.0556 71.4222 82.7556 70.9333 82.4L67.0667 83.6L64.4 79.0667L67.4667 76.4C67.3778 75.7778 67.3333 75.2 67.3333 74.6667C67.3333 74.1333 67.3778 73.5556 67.4667 72.9333L64.4 70.2667L67.0667 65.7333L70.9333 66.9333C71.4222 66.5778 71.9 66.2778 72.3667 66.0333C72.8333 65.7889 73.3333 65.5556 73.8667 65.3333L74.6667 61.3333H80L80.8 65.3333C81.3333 65.5556 81.8333 65.8 82.3 66.0667C82.7667 66.3333 83.2444 66.6667 83.7333 67.0667L87.6 65.7333L90.2667 70.4L87.2 73.0667C87.2889 73.6 87.3333 74.1556 87.3333 74.7333C87.3333 75.3111 87.2889 75.8667 87.2 76.4L90.2667 79.0667L87.6 83.6L83.7333 82.4C83.2444 82.7556 82.7667 83.0556 82.3 83.3C81.8333 83.5444 81.3333 83.7778 80.8 84L80 88H74.6667ZM77.3333 80C78.8 80 80.0556 79.4778 81.1 78.4333C82.1444 77.3889 82.6667 76.1333 82.6667 74.6667C82.6667 73.2 82.1444 71.9444 81.1 70.9C80.0556 69.8556 78.8 69.3333 77.3333 69.3333C75.8667 69.3333 74.6111 69.8556 73.5667 70.9C72.5222 71.9444 72 73.2 72 74.6667C72 76.1333 72.5222 77.3889 73.5667 78.4333C74.6111 79.4778 75.8667 80 77.3333 80ZM58.6667 58.6667C60.1333 58.6667 61.3889 58.1444 62.4333 57.1C63.4778 56.0556 64 54.8 64 53.3333C64 51.8667 63.4778 50.6111 62.4333 49.5667C61.3889 48.5222 60.1333 48 58.6667 48C57.2 48 55.9444 48.5222 54.9 49.5667C53.8556 50.6111 53.3333 51.8667 53.3333 53.3333C53.3333 54.8 53.8556 56.0556 54.9 57.1C55.9444 58.1444 57.2 58.6667 58.6667 58.6667Z"
      fill="white" />
  </g>
  <defs>
    <filter id="filter0_d_95_951" x="4.00001" y="7" width="122" height="116.46" filterUnits="userSpaceOnUse"
      color-interpolation-filters="sRGB">
      <feFlood flood-opacity="0" result="BackgroundImageFix" />
      <feColorMatrix in="SourceAlpha" type="matrix" values="0 0 0 0 0 0 0 0 0 0 0 0 0 0 0 0 0 0 127 0"
        result="hardAlpha" />
      <feOffset dx="2" dy="2" />
      <feComposite in2="hardAlpha" operator="out" />
      <feColorMatrix type="matrix" values="0 0 0 0 0 0 0 0 0 0.42 0 0 0 0 0.196 0 0 0 1 0" />
      <feBlend mode="normal" in2="BackgroundImageFix" result="effect1_dropShadow_95_951" />
      <feBlend mode="normal" in="SourceGraphic" in2="effect1_dropShadow_95_951" result="shape" />
    </filter>
    <filter id="filter1_d_95_951" x="37.3333" y="42.6667" width="54.9333" height="47.3333" filterUnits="userSpaceOnUse"
      color-interpolation-filters="sRGB">
      <feFlood flood-opacity="0" result="BackgroundImageFix" />
      <feColorMatrix in="SourceAlpha" type="matrix" values="0 0 0 0 0 0 0 0 0 0 0 0 0 0 0 0 0 0 127 0"
        result="hardAlpha" />
      <feOffset dx="2" dy="2" />
      <feComposite in2="hardAlpha" operator="out" />
      <feColorMatrix type="matrix" values="0 0 0 0 0 0 0 0 0 0 0 0 0 0 0 0 0 0 0.2 0" />
      <feBlend mode="normal" in2="BackgroundImageFix" result="effect1_dropShadow_95_951" />
      <feBlend mode="normal" in="SourceGraphic" in2="effect1_dropShadow_95_951" result="shape" />
    </filter>
  </defs>
</svg>
