<svg viewBox="0 0 128 128" fill="none" xmlns="http://www.w3.org/2000/svg">
  <g filter="url(#filter0_d_105_3709)">
    <path
      d="M56.9054 118.676L6.91892 70.9974C3.02703 67.2851 3.02703 61.1754 6.91892 57.4632L56.9054 9.78418C60.7973 6.07194 67.2027 6.07194 71.0946 9.78418L121.081 57.4632C124.973 61.1754 124.973 67.2851 121.081 70.9974L71.0946 118.676C69.8534 119.86 68.3446 120.667 66.7428 121.095C64.5804 121.674 62.2508 121.565 60.1791 120.769C58.9716 120.305 57.8521 119.607 56.9054 118.676Z"
      fill="#39B44D" />
  </g>
  <g filter="url(#filter1_d_105_3709)">
    <g filter="url(#filter2_d_105_3709)">
      <path fill-rule="evenodd" clip-rule="evenodd"
        d="M46.9161 44.3832V60.0111H51.5144L51.5791 59.9464H56.5905V44.3832H46.9161ZM59.6967 44.3832V59.9464H69.1446V44.3832H59.6967ZM72.2508 44.3832V59.9464H75.8045C75.8657 59.946 75.9267 59.946 75.9874 59.9464H81.6663V44.3832H72.2508ZM81.2708 41.277H72.6462C73.4402 39.315 74.9125 38.1062 76.9585 38.1062C79.0046 38.1062 80.4769 39.315 81.2708 41.277ZM70.6975 38.369C72.0073 36.4128 74.0663 35 76.9585 35C81.487 35 83.973 38.4636 84.7384 42.0533L84.7725 42.2134V45.3349C91.5459 50.3114 96 56.7866 96 65.6896C96 75.6162 90.9989 82.949 83.8605 87.502C80.0319 89.944 75.5946 91.5866 70.9784 92.435C66.6978 93.2217 62.2404 93.3299 57.9347 92.7455C53.0138 92.0777 48.2593 90.5006 44.1863 87.9649C41.2272 86.1227 38.6236 83.7714 36.5886 80.8955C33.6994 76.8123 32 71.733 32 65.6896C32 56.6523 37.0669 49.9508 43.8099 44.9811V42.2134L43.8441 42.0533C44.2403 40.1948 45.0582 38.4378 46.389 37.1281C47.7461 35.7925 49.5616 35 51.7533 35C53.945 35 55.7605 35.7925 57.1176 37.1281C57.5021 37.5066 57.8439 37.9224 58.145 38.3672C59.4585 36.4085 61.5233 35 64.4206 35C67.3188 35 69.384 36.4094 70.6975 38.369ZM60.0921 41.277H68.7491C67.9538 39.312 66.4776 38.1062 64.4206 38.1062C62.3636 38.1062 60.8875 39.312 60.0921 41.277ZM56.1913 41.277C55.8724 40.4975 55.4481 39.8432 54.9388 39.3419C54.1702 38.5855 53.1403 38.1062 51.7533 38.1062C50.3663 38.1062 49.3364 38.5855 48.5678 39.3419C48.0585 39.8432 47.6341 40.4975 47.3152 41.277H56.1913ZM43.8099 48.9256C38.5481 53.3217 35.1062 58.7761 35.1062 65.6896C35.1062 68.5661 35.5318 71.1659 36.3033 73.5001V69.4914C36.3033 64.6796 39.5155 61.2645 43.8099 60.2202V48.9256ZM45.1322 63.1173C42.2622 63.6025 40.1804 65.3856 39.5839 67.9383H43.5245C43.6935 66.1509 44.1812 64.479 45.1435 63.1173H45.1322ZM51.6552 63.1173C49.7103 63.1661 48.5589 63.8117 47.8456 64.6914C47.2314 65.4489 46.8183 66.5306 46.648 67.9383H56.5905V63.0526H52.8658L52.801 63.1173H51.6552ZM59.6967 63.0526V67.9383H69.1446V63.0526H59.6967ZM72.2508 63.0526V67.9383H81.3793C81.201 66.5411 80.7719 65.4601 80.1414 64.695C79.3592 63.7458 78.0906 63.0696 75.9799 63.0526H72.2508ZM82.7973 63.0526C83.8026 64.4245 84.3245 66.1161 84.5045 67.9383H88.6984C88.0782 65.4017 85.9374 63.5865 83.0812 63.0526H82.7973ZM84.7725 60.267C88.8327 61.4521 91.9879 64.7978 91.9879 69.4914V72.2607C92.5766 70.2405 92.8938 68.05 92.8938 65.6896C92.8938 58.8331 89.8842 53.588 84.7725 49.2824V60.267ZM88.8817 78.6478V71.0445H84.5784V83.17C86.2163 81.8494 87.6681 80.3418 88.8817 78.6478ZM81.4722 85.326V71.0445H72.2508V88.995C75.5577 88.2126 78.6932 86.9835 81.4722 85.326ZM69.1446 89.5914V71.0445H59.6967V89.8252C62.8271 90.1349 66.0266 90.0551 69.1446 89.5914ZM56.5905 89.3846V71.0445H46.5602V85.7677C49.564 87.5067 52.9852 88.7142 56.5905 89.3846ZM43.454 83.6554V71.0445H39.4095V79.4949C40.5672 81.0539 41.9286 82.4408 43.454 83.6554Z"
        fill="#F9F9F9" />
    </g>
  </g>
  <defs>
    <filter id="filter0_d_105_3709" x="4" y="7" width="122" height="116.46" filterUnits="userSpaceOnUse"
      color-interpolation-filters="sRGB">
      <feFlood flood-opacity="0" result="BackgroundImageFix" />
      <feColorMatrix in="SourceAlpha" type="matrix" values="0 0 0 0 0 0 0 0 0 0 0 0 0 0 0 0 0 0 127 0"
        result="hardAlpha" />
      <feOffset dx="2" dy="2" />
      <feComposite in2="hardAlpha" operator="out" />
      <feColorMatrix type="matrix" values="0 0 0 0 0 0 0 0 0 0.42 0 0 0 0 0.196 0 0 0 1 0" />
      <feBlend mode="normal" in2="BackgroundImageFix" result="effect1_dropShadow_105_3709" />
      <feBlend mode="normal" in="SourceGraphic" in2="effect1_dropShadow_105_3709" result="shape" />
    </filter>
    <filter id="filter1_d_105_3709" x="32" y="35" width="66" height="60.1164" filterUnits="userSpaceOnUse"
      color-interpolation-filters="sRGB">
      <feFlood flood-opacity="0" result="BackgroundImageFix" />
      <feColorMatrix in="SourceAlpha" type="matrix" values="0 0 0 0 0 0 0 0 0 0 0 0 0 0 0 0 0 0 127 0"
        result="hardAlpha" />
      <feOffset dx="2" dy="2" />
      <feComposite in2="hardAlpha" operator="out" />
      <feColorMatrix type="matrix" values="0 0 0 0 0 0 0 0 0 0 0 0 0 0 0 0 0 0 0.2 0" />
      <feBlend mode="normal" in2="BackgroundImageFix" result="effect1_dropShadow_105_3709" />
      <feBlend mode="normal" in="SourceGraphic" in2="effect1_dropShadow_105_3709" result="shape" />
    </filter>
    <filter id="filter2_d_105_3709" x="32" y="35" width="66" height="60.1164" filterUnits="userSpaceOnUse"
      color-interpolation-filters="sRGB">
      <feFlood flood-opacity="0" result="BackgroundImageFix" />
      <feColorMatrix in="SourceAlpha" type="matrix" values="0 0 0 0 0 0 0 0 0 0 0 0 0 0 0 0 0 0 127 0"
        result="hardAlpha" />
      <feOffset dx="2" dy="2" />
      <feComposite in2="hardAlpha" operator="out" />
      <feColorMatrix type="matrix" values="0 0 0 0 0 0 0 0 0 0 0 0 0 0 0 0 0 0 0.2 0" />
      <feBlend mode="normal" in2="BackgroundImageFix" result="effect1_dropShadow_105_3709" />
      <feBlend mode="normal" in="SourceGraphic" in2="effect1_dropShadow_105_3709" result="shape" />
    </filter>
  </defs>
</svg>