<svg viewBox="0 0 128 128" fill="none" xmlns="http://www.w3.org/2000/svg">
  <g filter="url(#filter0_d_95_944)">
    <path
      d="M56.9054 118.676L6.91893 70.9974C3.02703 67.2851 3.02703 61.1754 6.91893 57.4632L56.9054 9.78418C60.7973 6.07194 67.2027 6.07194 71.0946 9.78418L121.081 57.4632C124.973 61.1754 124.973 67.2851 121.081 70.9974L71.0946 118.676C69.8534 119.86 68.3446 120.667 66.7428 121.095C64.5804 121.674 62.2508 121.565 60.1791 120.769C58.9716 120.305 57.8521 119.607 56.9054 118.676Z"
      fill="#39B44D" />
  </g>
  <g filter="url(#filter1_d_95_944)">
    <path
      d="M79 57.085L79.405 59.533C79.576 60.592 79.738 61.651 79.909 62.713L80.488 66.289C80.596 66.94 80.698 67.594 80.809 68.248C80.839 68.419 80.818 68.506 80.608 68.545C78.238 69.004 75.865 69.478 73.492 69.943C70.531 70.525 67.567 71.098 64.606 71.677C63.058 71.98 61.516 72.292 59.968 72.598C59.941 72.604 59.917 72.598 59.872 72.595C59.698 71.974 59.515 71.353 59.356 70.726C59.338 70.66 59.404 70.546 59.47 70.486L79 57.085Z"
      fill="white" />
    <path
      d="M64.249 73.795C64.309 73.795 64.399 73.855 64.45 73.903C65.362 74.809 66.241 75.748 67.183 76.618C67.975 77.35 68.839 78.001 69.673 78.688C70.858 79.66 71.896 80.779 72.79 82.027C74.35 84.208 75.478 86.593 76.105 89.203C76.1402 89.4571 76.1071 89.716 76.009 89.953C75.739 90.748 75.163 91.324 74.527 91.837C73.639 92.557 72.637 93.097 71.581 93.535C71.362 93.625 71.281 93.58 71.185 93.367C70.096 90.985 68.995 88.609 67.897 86.233L63.436 76.564L62.395 74.314L62.335 74.158C62.977 74.035 63.607 73.909 64.237 73.798L64.249 73.795Z"
      fill="white" />
    <path fill-rule="evenodd" clip-rule="evenodd"
      d="M58.672 81.646C59.026 81.646 59.377 81.661 59.731 81.691C61.342 81.826 62.947 82.024 64.555 82.204C64.636 82.213 64.744 82.294 64.78 82.369C65.431 83.776 66.076 85.186 66.718 86.599C66.748 86.659 66.748 86.755 66.718 86.809L64.927 90.043C63.676 89.83 62.455 89.599 61.225 89.419C60.2808 89.2798 59.3323 89.1718 58.381 89.095C57.409 89.017 56.434 88.945 55.462 88.948C53.833 88.948 52.213 89.098 50.653 89.623L50.518 89.665L51.433 87.535C52.006 86.197 52.597 84.865 53.143 83.515C53.319 83.0808 53.6461 82.7249 54.064 82.513C54.7768 82.1463 55.5504 81.9125 56.347 81.823C57.118 81.715 57.895 81.646 58.672 81.646ZM54.76 83.086C56.0508 82.7033 57.3862 82.4915 58.732 82.456C59.2505 82.4534 59.7679 82.5046 60.277 82.603C60.3418 82.615 60.4066 82.6347 60.4715 82.6544C60.4762 82.6558 60.481 82.6573 60.4858 82.6587C60.4972 82.6622 60.5086 82.6656 60.52 82.669C58.801 82.543 57.19 82.99 55.585 83.485C55.4504 83.529 55.3322 83.6126 55.246 83.725C54.3852 84.9187 53.5305 86.1184 52.6757 87.318L52.675 87.319C52.659 87.341 52.651 87.3683 52.643 87.3957C52.639 87.4093 52.635 87.423 52.63 87.436L52.561 87.376C52.611 87.271 52.6606 87.1657 52.7103 87.0604C52.8096 86.8497 52.909 86.639 53.011 86.431C53.506 85.39 54.004 84.349 54.511 83.314C54.5625 83.2095 54.6514 83.1281 54.76 83.086Z"
      fill="white" />
    <path fill-rule="evenodd" clip-rule="evenodd"
      d="M64.615 52.387C64.966 52.387 65.317 52.396 65.668 52.42C68.089 52.579 70.351 53.314 72.49 54.448C73.861 55.174 75.124 56.056 76.3 57.061C76.501 57.232 76.69 57.415 76.906 57.613L72.757 60.463L61.588 68.095C60.664 68.725 59.743 69.37 58.813 69.994C58.603 70.132 58.537 70.252 58.597 70.51C58.837 71.548 59.038 72.592 59.257 73.63C59.266 73.675 59.287 73.714 59.308 73.777L61.174 73.408L64.897 81.226C64.453 81.166 64.051 81.103 63.646 81.055C62.791 80.959 61.936 80.854 61.078 80.785C60.3221 80.7148 59.5631 80.6828 58.804 80.689C57.445 80.719 56.083 80.803 54.784 81.265C54.058 81.523 53.404 81.889 52.918 82.561C52.591 82.24 52.261 81.937 51.958 81.613C50.7115 80.2819 49.6865 78.7596 48.922 77.104C48.2347 75.6116 47.76 74.0302 47.512 72.406C47.3085 71.1366 47.2571 69.8475 47.359 68.566C47.595 65.4166 48.6873 62.3916 50.518 59.818C51.8511 57.9243 53.5458 56.3131 55.5044 55.0774C57.463 53.8417 59.6468 53.0058 61.93 52.618C62.821 52.465 63.718 52.387 64.615 52.387ZM60.217 54.841C60.2751 54.8131 60.3332 54.7888 60.3927 54.7639C60.41 54.7567 60.4274 54.7494 60.445 54.742C59.257 55.432 58.138 56.206 57.088 57.076C54.394 59.314 52.24 61.945 51.124 65.326C50.815 66.268 50.638 67.234 50.548 68.224C50.311 70.936 50.929 73.471 52.108 75.886C52.4059 76.4942 52.7531 77.0784 53.1004 77.6628C53.2601 77.9317 53.42 78.2007 53.575 78.472L53.695 78.682C53.5885 78.7361 53.4836 78.7902 53.3796 78.8438C53.1258 78.9747 52.8772 79.1029 52.624 79.222C52.501 79.279 52.378 79.303 52.279 79.129C51.247 77.32 50.395 75.433 49.885 73.408C49.525 72.001 49.321 70.57 49.375 69.115C49.4539 66.7201 50.1639 64.3885 51.433 62.356C52.5576 60.5707 53.9814 58.9926 55.642 57.691C57.0464 56.5598 58.5826 55.6029 60.217 54.841Z"
      fill="white" />
    <path
      d="M48.07 77.41C48.175 77.41 48.25 77.461 48.322 77.59C48.718 78.286 48.796 78.601 49.615 79.87L43.27 83.251C42.495 81.8916 41.826 80.4744 41.269 79.012L42.739 78.661L47.935 77.422C47.98 77.4101 48.0264 77.404 48.073 77.404L48.07 77.41Z"
      fill="white" />
    <path
      d="M46.792 73.618C44.707 73.174 42.634 72.748 40.546 72.313C40.2344 72.2462 39.9202 72.1872 39.5963 72.1263L39.5204 72.1121C39.7132 73.5706 40.0108 75.0133 40.411 76.429H40.432C41.545 76.405 42.658 76.387 43.768 76.375C44.71 76.369 45.652 76.375 46.594 76.375H47.797C47.773 76.282 47.206 74.665 47.026 73.825C47.017 73.744 46.882 73.639 46.792 73.618Z"
      fill="white" />
    <path
      d="M39.574 63.61L41.29 64.678C42.988 65.734 44.719 66.799 46.42 67.849C46.585 67.951 46.645 68.053 46.636 68.239C46.609 68.695 46.501 70.813 46.741 72.304L45.481 71.863C43.45 71.161 41.422 70.456 39.391 69.763C39.3598 69.7517 39.3297 69.7376 39.301 69.721C39.191 67.6801 39.2844 65.6333 39.574 63.61Z"
      fill="white" />
    <path
      d="M42.031 55.3L43.072 56.692C44.59 58.732 46.126 60.766 47.644 62.803C47.755 62.953 47.839 63.076 47.755 63.289C47.326 64.387 46.945 65.779 46.801 66.904C46.429 66.577 46.06 66.256 45.721 65.953L41.215 61.981C40.867 61.672 40.516 61.366 40.177 61.045C40.1353 61.0016 40.1063 60.9477 40.093 60.889C40.5387 59.027 41.1584 57.211 41.944 55.465L42.031 55.3Z"
      fill="white" />
    <path
      d="M48.601 45.985L49.027 47.881L50.593 54.85C50.791 55.729 50.992 56.554 51.178 57.436C51.1853 57.485 51.1827 57.5349 51.1704 57.5828C51.158 57.6307 51.1361 57.6757 51.106 57.715C49.9655 59.0515 49.0026 60.5297 48.241 62.113L47.41 60.436C46.12 57.841 44.833 55.246 43.54 52.657C43.5075 52.5991 43.489 52.5343 43.486 52.468L43.861 51.85C44.608 50.791 45.334 49.711 46.126 48.685C46.717 47.923 47.425 47.254 48.079 46.543L48.601 45.985Z"
      fill="white" />
    <path
      d="M60.163 38.944C60.115 39.256 60.073 39.547 60.022 39.838C59.4454 43.1656 58.8654 46.4926 58.282 49.819C58.102 50.875 57.937 51.754 57.772 52.813C57.742 53.011 57.619 53.041 57.493 53.092C54.835 54.196 52.678 56.119 51.982 56.8L51.823 54.895C51.763 54.214 51.712 53.536 51.658 52.858C51.601 52.153 51.547 51.448 51.487 50.746L51.307 48.691L51.136 46.657L50.956 44.548C50.941 44.35 50.911 44.152 50.914 43.954L50.917 43.939C53.6841 41.7474 56.8132 40.0569 60.163 38.944Z"
      fill="white" />
    <path
      d="M69.628 37.42C70.906 37.42 72.163 37.501 73.402 37.657L71.59 41.017L68.242 47.236L65.971 51.478C65.89 51.628 65.803 51.688 65.629 51.679C62.068 51.439 59.578 52.384 59.161 52.477L59.761 50.227L62.806 38.923C62.875 38.668 62.947 38.413 63.01 38.155C65.1821 37.6669 67.4017 37.4184 69.628 37.42Z"
      fill="white" />
    <path
      d="M77.26 38.401C80.833 39.337 84.154 40.915 87.091 43.003L81.7 47.542L76.564 51.847C75.7 52.573 74.836 53.305 73.981 54.043C73.843 54.16 73.741 54.172 73.57 54.094C71.8167 53.0574 69.8942 52.3384 67.891 51.97L69.28 49.96L74.77 42.007C75.601 40.807 76.432 39.607 77.26 38.401Z"
      fill="white" />
    <path fill-rule="evenodd" clip-rule="evenodd" d="M39.5204 72.1121L39.52 72.112V72.109L39.5204 72.1121Z"
      fill="white" />
  </g>
  <defs>
    <filter id="filter0_d_95_944" x="4.00001" y="7" width="122" height="116.46" filterUnits="userSpaceOnUse"
      color-interpolation-filters="sRGB">
      <feFlood flood-opacity="0" result="BackgroundImageFix" />
      <feColorMatrix in="SourceAlpha" type="matrix" values="0 0 0 0 0 0 0 0 0 0 0 0 0 0 0 0 0 0 127 0"
        result="hardAlpha" />
      <feOffset dx="2" dy="2" />
      <feComposite in2="hardAlpha" operator="out" />
      <feColorMatrix type="matrix" values="0 0 0 0 0 0 0 0 0 0.42 0 0 0 0 0.196 0 0 0 1 0" />
      <feBlend mode="normal" in2="BackgroundImageFix" result="effect1_dropShadow_95_944" />
      <feBlend mode="normal" in="SourceGraphic" in2="effect1_dropShadow_95_944" result="shape" />
    </filter>
    <filter id="filter1_d_95_944" x="39.2562" y="37.42" width="49.8348" height="58.1589" filterUnits="userSpaceOnUse"
      color-interpolation-filters="sRGB">
      <feFlood flood-opacity="0" result="BackgroundImageFix" />
      <feColorMatrix in="SourceAlpha" type="matrix" values="0 0 0 0 0 0 0 0 0 0 0 0 0 0 0 0 0 0 127 0"
        result="hardAlpha" />
      <feOffset dx="2" dy="2" />
      <feComposite in2="hardAlpha" operator="out" />
      <feColorMatrix type="matrix" values="0 0 0 0 0 0 0 0 0 0 0 0 0 0 0 0 0 0 0.2 0" />
      <feBlend mode="normal" in2="BackgroundImageFix" result="effect1_dropShadow_95_944" />
      <feBlend mode="normal" in="SourceGraphic" in2="effect1_dropShadow_95_944" result="shape" />
    </filter>
  </defs>
</svg>