<svg viewBox="0 0 128 128" fill="none" xmlns="http://www.w3.org/2000/svg">
  <g filter="url(#filter0_d_95_960)">
    <path
      d="M56.9054 118.676L6.91893 70.9974C3.02704 67.2851 3.02704 61.1754 6.91893 57.4632L56.9054 9.78418C60.7973 6.07194 67.2027 6.07194 71.0946 9.78418L121.081 57.4632C124.973 61.1754 124.973 67.2851 121.081 70.9974L71.0946 118.676C69.8534 119.86 68.3447 120.667 66.7428 121.095C64.5804 121.674 62.2508 121.565 60.1791 120.769C58.9716 120.305 57.8521 119.607 56.9054 118.676Z"
      fill="#39B44D" />
  </g>
  <g filter="url(#filter1_d_95_960)">
    <path
      d="M34.6667 85.3333V74.6667C34.6667 73.1556 35.1889 71.8889 36.2333 70.8667C37.2778 69.8444 38.5333 69.3333 40 69.3333H48.7333C49.6222 69.3333 50.4667 69.5556 51.2667 70C52.0667 70.4444 52.7111 71.0444 53.2 71.8C54.4889 73.5333 56.0778 74.8889 57.9667 75.8667C59.8555 76.8444 61.8667 77.3333 64 77.3333C66.1778 77.3333 68.2111 76.8444 70.1 75.8667C71.9889 74.8889 73.5555 73.5333 74.8 71.8C75.3778 71.0444 76.0555 70.4444 76.8333 70C77.6111 69.5556 78.4222 69.3333 79.2667 69.3333H88C89.5111 69.3333 90.7778 69.8444 91.8 70.8667C92.8222 71.8889 93.3333 73.1556 93.3333 74.6667V85.3333H74.6667V79.2667C73.1111 80.3778 71.4333 81.2222 69.6333 81.8C67.8333 82.3778 65.9555 82.6667 64 82.6667C62.0889 82.6667 60.2222 82.3667 58.4 81.7667C56.5778 81.1667 54.8889 80.3111 53.3333 79.2V85.3333H34.6667ZM64 74.6667C62.3111 74.6667 60.7111 74.2778 59.2 73.5C57.6889 72.7222 56.4222 71.6444 55.4 70.2667C54.6444 69.1556 53.7 68.2778 52.5667 67.6333C51.4333 66.9889 50.2 66.6667 48.8667 66.6667C49.8444 65.0222 51.9111 63.7222 55.0667 62.7667C58.2222 61.8111 61.2 61.3333 64 61.3333C66.8 61.3333 69.7778 61.8111 72.9333 62.7667C76.0889 63.7222 78.1555 65.0222 79.1333 66.6667C77.8444 66.6667 76.6222 66.9889 75.4667 67.6333C74.3111 68.2778 73.3555 69.1556 72.6 70.2667C71.6222 71.6889 70.3778 72.7778 68.8667 73.5333C67.3555 74.2889 65.7333 74.6667 64 74.6667ZM42.6667 66.6667C40.4444 66.6667 38.5555 65.8889 37 64.3333C35.4444 62.7778 34.6667 60.8889 34.6667 58.6667C34.6667 56.4 35.4444 54.5 37 52.9667C38.5555 51.4333 40.4444 50.6667 42.6667 50.6667C44.9333 50.6667 46.8333 51.4333 48.3667 52.9667C49.9 54.5 50.6667 56.4 50.6667 58.6667C50.6667 60.8889 49.9 62.7778 48.3667 64.3333C46.8333 65.8889 44.9333 66.6667 42.6667 66.6667ZM85.3333 66.6667C83.1111 66.6667 81.2222 65.8889 79.6667 64.3333C78.1111 62.7778 77.3333 60.8889 77.3333 58.6667C77.3333 56.4 78.1111 54.5 79.6667 52.9667C81.2222 51.4333 83.1111 50.6667 85.3333 50.6667C87.6 50.6667 89.5 51.4333 91.0333 52.9667C92.5667 54.5 93.3333 56.4 93.3333 58.6667C93.3333 60.8889 92.5667 62.7778 91.0333 64.3333C89.5 65.8889 87.6 66.6667 85.3333 66.6667ZM64 58.6667C61.7778 58.6667 59.8889 57.8889 58.3333 56.3333C56.7778 54.7778 56 52.8889 56 50.6667C56 48.4 56.7778 46.5 58.3333 44.9667C59.8889 43.4333 61.7778 42.6667 64 42.6667C66.2667 42.6667 68.1667 43.4333 69.7 44.9667C71.2333 46.5 72 48.4 72 50.6667C72 52.8889 71.2333 54.7778 69.7 56.3333C68.1667 57.8889 66.2667 58.6667 64 58.6667Z"
      fill="white" />
  </g>
  <defs>
    <filter id="filter0_d_95_960" x="4.00002" y="7" width="122" height="116.46" filterUnits="userSpaceOnUse"
      color-interpolation-filters="sRGB">
      <feFlood flood-opacity="0" result="BackgroundImageFix" />
      <feColorMatrix in="SourceAlpha" type="matrix" values="0 0 0 0 0 0 0 0 0 0 0 0 0 0 0 0 0 0 127 0"
        result="hardAlpha" />
      <feOffset dx="2" dy="2" />
      <feComposite in2="hardAlpha" operator="out" />
      <feColorMatrix type="matrix" values="0 0 0 0 0 0 0 0 0 0.42 0 0 0 0 0.196 0 0 0 1 0" />
      <feBlend mode="normal" in2="BackgroundImageFix" result="effect1_dropShadow_95_960" />
      <feBlend mode="normal" in="SourceGraphic" in2="effect1_dropShadow_95_960" result="shape" />
    </filter>
    <filter id="filter1_d_95_960" x="34.6667" y="42.6667" width="60.6667" height="44.6667" filterUnits="userSpaceOnUse"
      color-interpolation-filters="sRGB">
      <feFlood flood-opacity="0" result="BackgroundImageFix" />
      <feColorMatrix in="SourceAlpha" type="matrix" values="0 0 0 0 0 0 0 0 0 0 0 0 0 0 0 0 0 0 127 0"
        result="hardAlpha" />
      <feOffset dx="2" dy="2" />
      <feComposite in2="hardAlpha" operator="out" />
      <feColorMatrix type="matrix" values="0 0 0 0 0 0 0 0 0 0 0 0 0 0 0 0 0 0 0.2 0" />
      <feBlend mode="normal" in2="BackgroundImageFix" result="effect1_dropShadow_95_960" />
      <feBlend mode="normal" in="SourceGraphic" in2="effect1_dropShadow_95_960" result="shape" />
    </filter>
  </defs>
</svg>
