<svg viewBox="0 0 128 128" fill="none" xmlns="http://www.w3.org/2000/svg">
  <g filter="url(#filter0_d_95_895)">
    <path
      d="M56.9054 118.676L6.91892 70.9974C3.02703 67.2851 3.02703 61.1754 6.91892 57.4632L56.9054 9.78418C60.7973 6.07194 67.2027 6.07194 71.0946 9.78418L121.081 57.4632C124.973 61.1754 124.973 67.2851 121.081 70.9974L71.0946 118.676C69.8534 119.86 68.3446 120.667 66.7428 121.095C64.5804 121.674 62.2508 121.565 60.1791 120.769C58.9716 120.305 57.8521 119.607 56.9054 118.676Z"
      fill="#39B44D" />
  </g>
  <g filter="url(#filter1_d_95_895)">
    <path fill-rule="evenodd" clip-rule="evenodd"
      d="M84.7822 56.2391C85.2081 55.2833 86.325 54.8469 87.2809 55.2729C88.2368 55.6989 88.6679 56.821 88.2471 57.7768C87.8212 58.7379 86.7043 59.1691 85.7484 58.7431C84.7874 58.3171 84.3562 57.2002 84.7822 56.2391ZM62.5948 38.3843C63.3532 37.6622 64.5532 37.6882 65.2753 38.4466C65.9974 39.2051 65.9714 40.4051 65.213 41.1324C64.4545 41.8545 63.2597 41.8285 62.5324 41.07C61.8103 40.3064 61.8363 39.1064 62.5948 38.3843ZM87.338 63.9276C87.338 64.5094 87.3173 65.086 87.2757 65.6627H84.8809C84.6419 65.6627 84.5432 65.8185 84.5432 66.0523V67.1536C84.5432 69.7407 83.0834 70.3069 81.8055 70.4472C80.5899 70.5822 79.2392 69.9381 79.073 69.19C78.3561 65.1484 77.156 64.286 75.2651 62.7951C77.6132 61.3042 80.0548 59.1067 80.0548 56.1664C80.0548 52.9871 77.8781 50.9871 76.3924 50.0053C74.3092 48.6338 72.0027 48.3585 71.3793 48.3585H46.6153C49.9712 44.613 54.5219 41.9584 59.67 40.9921L62.5896 44.0519C63.2493 44.7428 64.3402 44.7688 65.0312 44.1091L68.2988 40.9869C75.1404 42.2597 80.9379 46.5195 84.2731 52.3637L82.0393 57.4132C81.6548 58.2859 82.0496 59.3093 82.9172 59.6989L87.2238 61.6107C87.3017 62.3691 87.338 63.1431 87.338 63.9276ZM58.7142 59.9691V55.5742H66.5896C66.9948 55.5742 69.4624 56.0469 69.4624 57.8859C69.4624 59.4184 67.5715 59.9639 66.0182 59.9639L58.7142 59.9691ZM40.797 61.4184L44.8802 59.6054C45.7529 59.2158 46.1477 58.1976 45.7581 57.3197L44.9165 55.4183H48.2257V70.3277H41.5554C40.9788 68.2913 40.6671 66.1458 40.6671 63.9276C40.6619 63.0756 40.7087 62.2392 40.797 61.4184ZM43.0204 56.1456C43.4464 57.1015 43.0152 58.2288 42.0541 58.6496C41.0983 59.0755 39.9762 58.6444 39.5554 57.6833C39.1294 56.7223 39.5606 55.6054 40.5217 55.1794C41.4775 54.7534 42.5996 55.1898 43.0204 56.1456ZM50.2569 85.4864C49.2335 85.7098 48.2257 85.0552 48.0075 84.0318C47.7893 83.0032 48.4387 81.9954 49.4621 81.7772C50.4855 81.559 51.4933 82.2084 51.7115 83.237C51.9296 84.2552 51.2803 85.2682 50.2569 85.4864ZM76.6366 79.4188C75.7015 79.2161 74.782 79.8136 74.5846 80.7486L73.6339 85.1903C70.6988 86.5254 67.4364 87.263 64.0026 87.263C60.4908 87.263 57.1609 86.4838 54.1686 85.0968L53.218 80.6551C53.0154 79.7201 52.1011 79.1278 51.166 79.3252L47.2438 80.1668C46.5166 79.4187 45.8412 78.6187 45.2178 77.7772H64.2935C64.5117 77.7772 64.6519 77.7356 64.6519 77.5434V70.7952C64.6519 70.5978 64.5065 70.5615 64.2935 70.5615H58.7142V66.2861H64.7454C65.2961 66.2861 67.6909 66.4419 68.4546 69.5017C68.6936 70.442 69.2182 73.5018 69.5819 74.4836C69.9403 75.5849 71.4001 77.7772 72.9586 77.7772H82.46C82.5691 77.7772 82.6834 77.7668 82.8029 77.7408C82.1431 78.6343 81.4211 79.4863 80.6418 80.2759L76.6366 79.4188ZM77.5457 85.5799C76.5223 85.3565 75.8729 84.3487 76.0911 83.3253C76.3093 82.3019 77.3171 81.6474 78.3405 81.8707C79.3639 82.0889 80.0184 83.1019 79.7951 84.1253C79.5769 85.1435 78.5691 85.7981 77.5457 85.5799ZM95.4836 63.3457L92.8031 61.6886C92.7823 61.4288 92.7563 61.1691 92.7251 60.9093L95.0265 58.7638C95.2603 58.5457 95.3642 58.2236 95.3018 57.9119C95.2395 57.6002 95.0213 57.3404 94.72 57.2262L91.7745 56.1248C91.7018 55.8703 91.6238 55.6157 91.5459 55.3664L93.3797 52.8157C93.5667 52.556 93.6031 52.2183 93.4836 51.9222C93.3641 51.6261 93.094 51.4183 92.7823 51.3663L89.6757 50.8624C89.5563 50.6286 89.4316 50.3949 89.3017 50.1663L90.6056 47.3039C90.7407 47.013 90.7095 46.6753 90.5329 46.4104C90.3563 46.1455 90.055 45.9896 89.7329 46L86.5796 46.1091C86.4185 45.9065 86.2523 45.7039 86.0809 45.5065L86.803 42.4363C86.8757 42.1246 86.7822 41.7973 86.5588 41.5739C86.3354 41.3506 86.0081 41.2571 85.6965 41.3298L82.6263 42.0519C82.4289 41.8856 82.2263 41.7194 82.0237 41.5532L82.1328 38.3999C82.1431 38.083 81.9873 37.7765 81.7224 37.5999C81.4574 37.4232 81.1198 37.3972 80.8288 37.5271L77.9665 38.831C77.7379 38.7064 77.5041 38.5765 77.2703 38.457L76.7664 35.3505C76.7145 35.0336 76.5067 34.7686 76.2106 34.6492C75.9145 34.5245 75.5768 34.566 75.3171 34.753L72.7664 36.592C72.517 36.5141 72.2625 36.4362 72.0079 36.3635L70.9118 33.4076C70.8027 33.1063 70.5429 32.8881 70.2261 32.8257C69.9144 32.7634 69.5923 32.8673 69.3741 33.1011L67.2234 35.4076C66.9637 35.3764 66.7039 35.3505 66.4442 35.3297L64.787 32.6491C64.6208 32.379 64.3247 32.2127 64.0026 32.2127C63.6805 32.2127 63.3844 32.379 63.2181 32.6491L61.561 35.3297C61.3012 35.3505 61.0415 35.3764 60.7817 35.4076L58.6311 33.1011C58.4129 32.8673 58.0908 32.7634 57.7791 32.8257C57.4674 32.8881 57.2077 33.1063 57.0934 33.4076L55.992 36.3531C55.7375 36.4258 55.4829 36.5037 55.2336 36.5817L52.6829 34.7427C52.4232 34.5556 52.0855 34.5141 51.7894 34.6388C51.4933 34.7582 51.2855 35.0284 51.2335 35.3401L50.7296 38.4466C50.4958 38.5661 50.2621 38.6908 50.0335 38.8207L47.1711 37.5167C46.8802 37.3817 46.5425 37.4128 46.2776 37.5895C46.0127 37.7661 45.8568 38.0674 45.8672 38.3895L45.9763 41.5428C45.7737 41.7038 45.5711 41.8701 45.3737 42.0415L42.3035 41.3194C41.9918 41.2467 41.6645 41.3402 41.4411 41.5636C41.2126 41.7921 41.1243 42.1142 41.197 42.4259L41.9191 45.4961C41.7528 45.6935 41.5866 45.8961 41.4204 46.0987L38.2671 45.9896C37.9502 45.9792 37.6437 46.1351 37.4671 46.4C37.2904 46.6649 37.2645 47.0026 37.3943 47.2935L38.6982 50.1559C38.5736 50.3845 38.4437 50.6183 38.3242 50.852L35.2177 51.3559C34.9008 51.4079 34.6358 51.6157 34.5164 51.9118C34.3969 52.2079 34.4332 52.5456 34.6203 52.8053L36.4592 55.356C36.3813 55.6054 36.3034 55.8599 36.2307 56.1145L33.28 57.221C32.9787 57.3301 32.7605 57.5898 32.6981 57.9067C32.6358 58.2184 32.7397 58.5405 32.9735 58.7587L35.2748 60.9041C35.2488 61.1639 35.2229 61.4236 35.1969 61.6834L32.5163 63.3405C32.2514 63.5172 32.0851 63.8133 32.0851 64.1302C32.0851 64.4523 32.2514 64.7484 32.5215 64.9146L35.2021 66.5718C35.2229 66.8315 35.2488 67.0913 35.28 67.351L32.9787 69.5017C32.7449 69.7199 32.641 70.042 32.7033 70.3537C32.7657 70.6654 32.9839 70.9251 33.2852 71.0394L36.2307 72.1407C36.3034 72.3953 36.3813 72.6498 36.4592 72.8992L34.6203 75.4499C34.4332 75.7096 34.3917 76.0473 34.5164 76.3434C34.641 76.6395 34.906 76.8525 35.2229 76.8992L38.3242 77.4083C38.4437 77.6421 38.5684 77.8759 38.6982 78.1044L37.3943 80.9668C37.2593 81.2577 37.2904 81.5954 37.4671 81.8603C37.6437 82.1253 37.9502 82.2811 38.2671 82.2707L41.4152 82.1617C41.5814 82.3643 41.7425 82.5669 41.9139 82.7643L41.1918 85.8344C41.1191 86.1461 41.2126 86.4682 41.436 86.6968C41.6593 86.9254 41.9866 87.0137 42.2983 86.941L45.3685 86.2189C45.5659 86.3903 45.7685 86.5513 45.9711 86.7176L45.862 89.8709C45.8516 90.1878 46.0075 90.4943 46.2724 90.6709C46.5373 90.8475 46.875 90.8735 47.1659 90.7436L50.0283 89.4397C50.2569 89.5696 50.4907 89.6942 50.7244 89.8137L51.2283 92.9151C51.2803 93.232 51.4881 93.4969 51.7842 93.6216C52.0803 93.7463 52.418 93.7047 52.6777 93.5177L55.2284 91.6787C55.4778 91.7566 55.7323 91.8345 55.9869 91.9125L57.0882 94.858C57.1973 95.1593 57.457 95.3775 57.7739 95.4398C58.0856 95.5021 58.4077 95.3982 58.6259 95.1645L60.7765 92.8631C61.0363 92.8943 61.296 92.9203 61.5558 92.9411L63.2129 95.6216C63.3792 95.8918 63.6753 96.058 63.9974 96.058C64.3195 96.058 64.6156 95.8918 64.7818 95.6216L66.439 92.9411C66.6987 92.9203 66.9585 92.8943 67.2182 92.8631L69.3689 95.1645C69.5871 95.3982 69.9092 95.5021 70.2209 95.4398C70.5326 95.3775 70.7923 95.1593 70.9066 94.858L72.0079 91.9125C72.2625 91.8397 72.517 91.7618 72.7664 91.6787L75.3171 93.5177C75.5768 93.7047 75.9145 93.7411 76.2106 93.6216C76.5067 93.5021 76.7145 93.232 76.7664 92.9151L77.2703 89.8137C77.5041 89.6942 77.7379 89.5644 77.9665 89.4397L80.8288 90.7436C81.1198 90.8787 81.4574 90.8475 81.7224 90.6709C81.9873 90.4943 82.1431 90.193 82.1328 89.8709L82.0237 86.7176C82.2263 86.5565 82.4289 86.3903 82.6263 86.2189L85.6965 86.941C86.0081 87.0137 86.3354 86.9254 86.5588 86.6968C86.7874 86.4682 86.8757 86.1461 86.803 85.8344L86.0809 82.7643C86.2471 82.5669 86.4133 82.3643 86.5796 82.1617L89.7329 82.2707C90.0498 82.2811 90.3563 82.1253 90.5329 81.8603C90.7095 81.5954 90.7407 81.2577 90.6056 80.9668L89.3017 78.1044C89.4316 77.8707 89.5563 77.6421 89.6757 77.4083L92.7823 76.9044C93.0992 76.8525 93.3641 76.6447 93.4836 76.3486C93.6083 76.0525 93.5667 75.7148 93.3797 75.455L91.5407 72.9044C91.6186 72.6498 91.6966 72.4004 91.7693 72.1459L94.7148 71.0446C95.0161 70.9303 95.2343 70.6757 95.2966 70.3589C95.359 70.0472 95.2551 69.7251 95.0213 69.5069L92.72 67.3562C92.7459 67.0965 92.7719 66.8367 92.7979 66.577L95.4784 64.9198C95.7486 64.7536 95.9148 64.4575 95.9148 64.1354C95.92 63.8133 95.7538 63.5172 95.4836 63.3457Z"
      fill="#F9F9F9" />
  </g>
  <defs>
    <filter id="filter0_d_95_895" x="4" y="7" width="122" height="116.46" filterUnits="userSpaceOnUse"
      color-interpolation-filters="sRGB">
      <feFlood flood-opacity="0" result="BackgroundImageFix" />
      <feColorMatrix in="SourceAlpha" type="matrix" values="0 0 0 0 0 0 0 0 0 0 0 0 0 0 0 0 0 0 127 0"
        result="hardAlpha" />
      <feOffset dx="2" dy="2" />
      <feComposite in2="hardAlpha" operator="out" />
      <feColorMatrix type="matrix" values="0 0 0 0 0 0 0 0 0 0.42 0 0 0 0 0.196 0 0 0 1 0" />
      <feBlend mode="normal" in2="BackgroundImageFix" result="effect1_dropShadow_95_895" />
      <feBlend mode="normal" in="SourceGraphic" in2="effect1_dropShadow_95_895" result="shape" />
    </filter>
    <filter id="filter1_d_95_895" x="32.0851" y="32.2127" width="65.8298" height="65.8452" filterUnits="userSpaceOnUse"
      color-interpolation-filters="sRGB">
      <feFlood flood-opacity="0" result="BackgroundImageFix" />
      <feColorMatrix in="SourceAlpha" type="matrix" values="0 0 0 0 0 0 0 0 0 0 0 0 0 0 0 0 0 0 127 0"
        result="hardAlpha" />
      <feOffset dx="2" dy="2" />
      <feComposite in2="hardAlpha" operator="out" />
      <feColorMatrix type="matrix" values="0 0 0 0 0 0 0 0 0 0 0 0 0 0 0 0 0 0 0.2 0" />
      <feBlend mode="normal" in2="BackgroundImageFix" result="effect1_dropShadow_95_895" />
      <feBlend mode="normal" in="SourceGraphic" in2="effect1_dropShadow_95_895" result="shape" />
    </filter>
  </defs>
</svg>
