<svg viewBox="0 0 128 128" fill="none" xmlns="http://www.w3.org/2000/svg">
  <g clip-path="url(#clip0_95_913)">
    <g filter="url(#filter0_d_95_913)">
      <path
        d="M97.4826 107.746L28.4227 109.378C23.0457 109.505 18.7255 105.185 18.8526 99.8076L20.4842 30.7477C20.6112 25.3708 25.1405 20.8415 30.5175 20.7144L99.5774 19.0828C104.954 18.9557 109.275 23.276 109.148 28.6529L107.516 97.7128C107.475 99.4276 106.979 101.065 106.149 102.501C105.029 104.439 103.305 106.009 101.277 106.911C100.095 107.437 98.8103 107.735 97.4826 107.746Z"
        fill="#39B44D" />
    </g>
    <g filter="url(#filter1_d_95_913)">
      <path d="M78.0011 74.9428V69.7802H55.4453V74.9428H63.4981V97.9291H69.9088V74.9428H78.0011Z" fill="#F9F9F9" />
      <path
        d="M80.5569 97.3222C81.5907 97.8456 82.8134 98.2383 84.2248 98.5C85.6365 98.7617 87.1241 98.8927 88.6881 98.8927C90.2123 98.8927 91.6601 98.7486 93.032 98.4608C94.4037 98.1729 95.6064 97.6984 96.6401 97.0375C97.6739 96.3765 98.4924 95.513 99.0954 94.4463C99.6985 93.3796 100 92.0611 100 90.4906C100 89.352 99.8277 88.3543 99.483 87.4971C99.1386 86.6398 98.6416 85.8774 97.992 85.21C97.3427 84.5425 96.564 83.9438 95.656 83.4138C94.7481 82.8839 93.7245 82.3832 92.5847 81.9121C91.7495 81.5717 91.0007 81.2412 90.3381 80.9207C89.6753 80.6001 89.112 80.2728 88.6483 79.9392C88.1843 79.6054 87.8267 79.2521 87.5748 78.8791C87.3229 78.5062 87.1971 78.084 87.1971 77.6129C87.1971 77.181 87.3097 76.7917 87.535 76.445C87.7604 76.0981 88.0783 75.8003 88.4892 75.5516C88.9002 75.303 89.4037 75.1101 90.0002 74.9725C90.5965 74.8353 91.2593 74.7665 91.9882 74.7665C92.5184 74.7665 93.0783 74.8057 93.6681 74.8842C94.2579 74.9629 94.851 75.0839 95.4473 75.2473C96.0438 75.411 96.6237 75.617 97.187 75.8659C97.7503 76.1145 98.2704 76.4024 98.7476 76.7295V70.86C97.7799 70.4935 96.723 70.2218 95.5765 70.0453C94.4302 69.8686 93.1147 69.7802 91.6302 69.7802C90.1195 69.7802 88.6881 69.9405 87.3362 70.2613C85.9843 70.5818 84.7948 71.0825 83.7676 71.763C82.7404 72.4436 81.9286 73.3105 81.3323 74.3639C80.7358 75.4175 80.4376 76.6772 80.4376 78.1428C80.4376 80.0145 80.9843 81.6111 82.0778 82.9328C83.1713 84.2546 84.8312 85.3736 87.0578 86.2897C87.9327 86.6432 88.7476 86.9899 89.5032 87.3303C90.2586 87.6704 90.9113 88.0239 91.4613 88.3902C92.0113 88.7567 92.4454 89.1557 92.7635 89.5876C93.0817 90.0195 93.2408 90.5102 93.2408 91.06C93.2408 91.4658 93.1412 91.842 92.9424 92.1887C92.7435 92.5356 92.442 92.8366 92.0378 93.0917C91.6336 93.3469 91.1301 93.5466 90.5271 93.6905C89.924 93.8345 89.2181 93.9064 88.4097 93.9064C87.0313 93.9064 85.6661 93.6677 84.3142 93.19C82.9626 92.7124 81.71 91.9958 80.5569 91.0404V97.3222Z"
        fill="#F9F9F9" />
    </g>
  </g>
  <defs>
    <filter id="filter0_d_95_913" x="18.8498" y="19.08" width="92.3004" height="92.3004" filterUnits="userSpaceOnUse"
      color-interpolation-filters="sRGB">
      <feFlood flood-opacity="0" result="BackgroundImageFix" />
      <feColorMatrix in="SourceAlpha" type="matrix" values="0 0 0 0 0 0 0 0 0 0 0 0 0 0 0 0 0 0 127 0"
        result="hardAlpha" />
      <feOffset dx="2" dy="2" />
      <feComposite in2="hardAlpha" operator="out" />
      <feColorMatrix type="matrix" values="0 0 0 0 0 0 0 0 0 0.42 0 0 0 0 0.196 0 0 0 1 0" />
      <feBlend mode="normal" in2="BackgroundImageFix" result="effect1_dropShadow_95_913" />
      <feBlend mode="normal" in="SourceGraphic" in2="effect1_dropShadow_95_913" result="shape" />
    </filter>
    <filter id="filter1_d_95_913" x="55.4453" y="69.7802" width="46.5547" height="31.1124" filterUnits="userSpaceOnUse"
      color-interpolation-filters="sRGB">
      <feFlood flood-opacity="0" result="BackgroundImageFix" />
      <feColorMatrix in="SourceAlpha" type="matrix" values="0 0 0 0 0 0 0 0 0 0 0 0 0 0 0 0 0 0 127 0"
        result="hardAlpha" />
      <feOffset dx="2" dy="2" />
      <feComposite in2="hardAlpha" operator="out" />
      <feColorMatrix type="matrix" values="0 0 0 0 0 0 0 0 0 0 0 0 0 0 0 0 0 0 0.2 0" />
      <feBlend mode="normal" in2="BackgroundImageFix" result="effect1_dropShadow_95_913" />
      <feBlend mode="normal" in="SourceGraphic" in2="effect1_dropShadow_95_913" result="shape" />
    </filter>
    <clipPath id="clip0_95_913">
      <rect width="128" height="128" fill="white" />
    </clipPath>
  </defs>
</svg>